<mxfile host="app.diagrams.net" modified="2023-11-10T10:02:53.754Z" agent="Mozilla/5.0 (Windows NT 10.0; Win64; x64) AppleWebKit/537.36 (KHTML, like Gecko) Chrome/116.0.0.0 Safari/537.36 OPR/102.0.0.0" etag="K9m7PYQq1CMHSw0sWbj9" version="22.1.0" type="device">
  <diagram name="Page-1" id="sqOXAFdqrCl1LyDjtoJ7">
    <mxGraphModel dx="1180" dy="745" grid="1" gridSize="10" guides="1" tooltips="1" connect="1" arrows="1" fold="1" page="1" pageScale="1" pageWidth="827" pageHeight="1169" math="0" shadow="0">
      <root>
        <mxCell id="0" />
        <mxCell id="1" parent="0" />
        <mxCell id="7IhyG_YjBcEnH4IUcmP1-10" value="" style="rounded=0;whiteSpace=wrap;html=1;" vertex="1" parent="1">
          <mxGeometry x="310" y="220" width="300" height="200" as="geometry" />
        </mxCell>
        <mxCell id="7IhyG_YjBcEnH4IUcmP1-5" value="" style="rounded=0;whiteSpace=wrap;html=1;" vertex="1" parent="1">
          <mxGeometry x="80" y="220" width="190" height="90" as="geometry" />
        </mxCell>
        <mxCell id="7IhyG_YjBcEnH4IUcmP1-2" style="edgeStyle=orthogonalEdgeStyle;rounded=0;orthogonalLoop=1;jettySize=auto;html=1;" edge="1" parent="1" source="7IhyG_YjBcEnH4IUcmP1-1" target="7IhyG_YjBcEnH4IUcmP1-3">
          <mxGeometry relative="1" as="geometry">
            <mxPoint x="260" y="265" as="targetPoint" />
          </mxGeometry>
        </mxCell>
        <mxCell id="7IhyG_YjBcEnH4IUcmP1-1" value="A1" style="rounded=1;whiteSpace=wrap;html=1;arcSize=41;fillColor=#d5e8d4;strokeColor=#82b366;" vertex="1" parent="1">
          <mxGeometry x="90" y="240" width="60" height="50" as="geometry" />
        </mxCell>
        <mxCell id="7IhyG_YjBcEnH4IUcmP1-16" style="edgeStyle=orthogonalEdgeStyle;rounded=0;orthogonalLoop=1;jettySize=auto;html=1;exitX=1;exitY=0.5;exitDx=0;exitDy=0;entryX=0;entryY=0.5;entryDx=0;entryDy=0;" edge="1" parent="1" source="7IhyG_YjBcEnH4IUcmP1-3" target="7IhyG_YjBcEnH4IUcmP1-12">
          <mxGeometry relative="1" as="geometry" />
        </mxCell>
        <mxCell id="7IhyG_YjBcEnH4IUcmP1-3" value="OP1" style="ellipse;whiteSpace=wrap;html=1;fillColor=#f8cecc;strokeColor=#b85450;" vertex="1" parent="1">
          <mxGeometry x="190" y="230" width="70" height="70" as="geometry" />
        </mxCell>
        <mxCell id="7IhyG_YjBcEnH4IUcmP1-8" value="" style="shape=image;verticalLabelPosition=bottom;labelBackgroundColor=default;verticalAlign=top;aspect=fixed;imageAspect=0;image=data:image/png,iVBORw0KGgoAAAANSUhEUgAAAlgAAAJYCAYAAAC+ZpjcAAAAAXNSR0IB2cksfwAAAAlwSFlzAAALEwAACxMBAJqcGAABYalJREFUeJzsveeWXNeVpduPwEfgI+gR9Ah8BD2Cft/Rt6/6jr5VXZ4q2RIlFeVJSRRBAw+kCe+9T4sEEh4gSNbov/vuuc9ZJ9dZsY+JNAiYNceYIyJOREZGRCbyfFhr7bn/239TqVQqlUqlUqlUKpVKpVKpVCqVSqVSqVQqlUqlUqlUKpVKpVKpVCqVSqVSqVQqlUqlUqlUKpVKpVKpVCqVSqVSqVQqlUqlUqlUKpVKpVKpVCqVSqVSqVQqlUqlUqlUKpVKpVKpVCqVSqVSqVQqlUqlUqlUKpVKpVKpVCqVSqVSqVQqlUqlUqlUKpVKpVKpVCqVSqVSqVQqlUqlUqlUKpVKpVKpVCqVSqVSqVQqlUqlUqlUKpVKpVKpVCqVSqVSqVQqlUqlUqlUKpVKpVKpVCqVSqVSqVQqlUqlUqlUKpVKpVKpVCqVSqVSqVQqlUqlUqlUKpVKpVKpVCqVSqVSqVQqlUqlUqlUKpVKpVKpVCqVSqVSqVQqlUqlUqlUKpVKpVKpVCqVSqVSqVQqlUqlUqlUKpVKpVKpVCqVSqVSqVQqlUqlUqlUKpVKpVKpVCqVSqVSvVn6rxfP3n3x9NH3njy4d+nB3cMX9w73zNH+jjnYmZn9xdTszsZmZzpyl9x3juzj7u6b+w+Oek+ePvjBN98+f2fd70WlUqlUKpXqperZsyffvX//3qU7dw7M3t6OmY17Zjrqmsmw4zzqt5yHvaYZdBtmPGi7y1675tzv1N19dH/b3m7Z43DH3h7Y55jNR2Zvf24O7+yadb9flUqlUqlUqnPX0ycPfvDwwd2tO4e7Zj4bmeGgY7odC0atmjPBEjdBFgzowjGAFQALUMUhbDzqRc/ZbFRMvVZybtTLzq1m3YyGfXOwv2sePbz//ouvnr277s9EpVKpVCqVamW9+Prpd9C6m0z7pm8hqIdKU6tqYafiLnF7OGhbOOqa6ai95MmwFXnUb1ioqpluq2w6zZK77LUrFriqziMAGKpcFrjoe3G3mlUHXmRA3aDfNrPp0OztzszBwZ45Ojp88dDC11cKXyqVSqVSqV4lffvN83dQqdrfmztwAkjVqoUIhgBJw17dARM3gRLux+3xoOnACqA1G3fcbXochyzcxvN1AWyidUjVraDC1XXwhddTrxVNtbLtXheuNxtlUypvmaq9jhbj0D52vhi79iLNdj16fPwhZruef/X4vXV/xiqVSqVSqd4SvfjqyXeP7x2+mIz7rkIFaOl2q2Y0spA07VrwKVt4qljYscf6NQtMdXeJ2/B01Ew1HgvjObotC0L1LdOsbbrrOEagRmBGQAb4gvv9uns97XbZtFol53p925TLt8329nXTtOBFbtjXD9fte4Br9ZIpWyDjALa7NzPH9+8cPnv+6Htff6MVL5VKpVKpVOes58+fv4N2W6/bNF3MSKH1N2w6uALYdDqlCJAAUwAiH2xx4xh5MmxExu1euxQDrOA5a1F1DHBFoEVVMLyWXq9mms2iaTQK0WW1ummKxZtma/uW2S7cNsXSpoMpQBUgiw/Nd3tNd5vgC9dxrD9om8ViYY6Ojnr4LNb981CpVCqVSvUa69nTx+9hYL3TrkctOQyjT91MVTdaDeju69bNoF11HvcaZjpouUscn/SbDp6oWjUbt5x5BWsxHUTPhxWFaAU2a0VTtzDUsjA07rUiTyzsTQcdMxt2nd11tkoRz4Eh+Y4FpVp5y5QsXG1uXDdFC1jUOqRLVOMAjWSa6cKcF4y2I8znyib2e9053DHPnz38/rp/RiqVSqVSqV4j3bt753A6GVnIaDkT+EjAwjF3n4UpwNWwU3NARYBFsEVgNZ+0YybYmk/60fPCeF7MXAGuGhaE+q2ahbWmA6r5qOegiuxui9cD6MPcFiCtWtp0gFWwoFW21yuYx7KAhfksCVg+yIJpeJ+Mx2Hofmpf92I+Ml+/0MqWSqVSqVSqFB0e7FmAaLmVeWgLIh5BwpWELIAU4AoVKwdUIWABtmZDwFTXeTHtOe/M+s50GxUoQBaM6zCeF5DkqljVogW4uoOpnckggiwA12Lcj/K13GsJIYuqWICsrc0bZnvrpoOsUnHDQRYNwAOeOmgVoiWYUcmiFYx4DEEXnmPQ75rdnbl58lirWiqVSqVSqZhePP/qnb3dhQWItqtaTS3IoEIzYK1Bgh9yFB7aD9qEUcWKAdZi3HUrBQmwCK648VxoE8L8+wCSUMGql7ZMt1FxLUIAFTeASwaZUqsQrUZAFqAKLUIAFi4BWGgRNlAhsybA8kEWTMf5MdzG8WDlYsW53UILcWiO7x311v3zVKlUKpVKtWY9f/bku4ArVK5QtcLs1e7OxMws8CCDikOVrDQ5uGEzVwRY1CoMAOvkawFRO7NhzHQM9xPM4Togqd0om2al4KpYBFmAqj28xunQXaevleCHViFajYAotAUJtNAqBGCRswCLjtFjeMsQFSyEnVIGFwWgovJ3dGfPPH/26Hvr/vmqVCqVSqVag+aziQWCngvnRBQDwArZUoCryaQTQVWiRx0HV2gT8ioWjPuoKsUBa3c+ilkCFh6P66hiAazaFlwAWb1m1bUHAVcwqlj86zkAol3o5rGw1Y6FIUAWzWFRThac1SLEvBW1BwmweGsRwaZYDICkeVwCtAi60Grd3d01jx4paKlUKpVK9Vbo+Pj4Q0QQoCWIigu1BQFXgArKuaL2XaLHXQdY/VYlqmJh9oouZyMLPWP7uMnQbd68N5/EvL8ziSpZZKpEwRhwB1gBsmAMvWM1IWaxCLB8r4uG59HmBDihkkWrCGkGK2sloW/uikyQhefvhJUy/ry4xO1SqWS63a45ODjQfRNVKpVKpXpT9fDhw+/P53MzGAxMv993e/0BroI9/4LtbRaLgfN43I618rijNt+k56pX3UbJXbrBdlSuwioWwIrD1f5iag52ZifenUZVKMAWrhNgubmsQcdBFipZqGKhZQjgAmShRciBilfI6DXjPQVb6lSiqhVgiKIXsobbaaseDlvcADYXvhrexvfB8+MS4NVqtRxkFQoF0+l0zL179y6t+3dApVKpVCrVOenF10++u38wdxAAIMCME0AEYAWjPQgHlayB28tPGvNZ0geLiaskYT4Kq/1gXKeVfpiXgvfnY/fYw52pubM7cz7am5vDvQCyAFd7i3EMjlw1yz4HYGrYCdqFfCYL34viGgBb1Dqk1YY82gGQhuoXvo4MUJMVLA5XA7YlD4yWJW1KjVWOnbCSxWeyqIJFRluSgIu28sHzPnp4d2vdvxMqlUqlUqnOoOP7hy+Go45ptipRYCbNPBFgZUGWD64WFpoATAAowAzACiDDQ0EJepIgiwBLQhaBFoWK4vkAVDST1amXHSDR96LYBm7AFYEWQRqeA6BF9lWwkgCLQxYAqxvOY0nA4pCF56aqGM2C0XA9qoXYimjdvx8qlUqlUqlW0NNnD78/nQ1Mr980jWZw0gc08LypkYOsrjPAC8YsFhlD7/Acg+TMCNmEAUuAJkAUgQwlrwOweGWJQ1bkEKy4AVlkgiSYIIlXonAb5qBF81muhRiCFn9tgED6urT2oGsRMhNkURWrx1YVcrji5m1JfhyQhYF7LC442F8oaKlUKpVK9Tro7tGeg4VavWjanVowuM62kwFoOOhg+VEy74rmmnzxClRlIlACOLlcqhBkqEXoohRCE2QRaMFyRSGHKwIsCUkAJGpHEijBVD2jtiG+jipgfHsdDln4LGBepRoJsJKQRVWsvhh+D2IbSjGYotYgrVykAXmKj0ALEcdQEXz0UOezVCqVSqV65fTtN8/fuXf3wFWYqCUFsIIHDA4AF1Tt4Zsn0wbKCAclU+K6TGIn88oURSdQxUmGgvJqFn1d4vA8DdczuOKQBPOKFDefAaPH8q8lSHNgJlqAWYDFIWvAoht4FYtDFt3vgy8atqfbqGbt780NssnW/bukUqlUKpXK6qsnD79/uDt3AIDZILSvhr16AFZsGxkOIbNe2wEWmUMWgRZtdSO3vInM4MlnCVgStHzZWvEYiP4SKPG2oYQtuTE0Lum6F8xywJSELg5YPNXd1yqkypUPvtyKw0YhipAIMrqKLjbj7tHhixdfPXt33b9XKpVKpVK9tXp0fNSbDLquZUUwALga9RsuDR0g4BLS2RzTpNMMAKtfM5NB3Xk6bDjPsEFz6Dk2ZGZeTNpxi4qVhKs0+OIxCzLDKoKtBMCiY7KqxS2PJ1XAkuyqXKKyxYfdB56tc3yQJVuI1DJ0LcLybVOrbUUrDIO0+S0XYIqFB+v+3VKpVCqV6q3U3YNdC0kd065XIpACWA26tbAy1Y61BgEOc/v4hQUyGICVBVlpoCUjEeRweRZgyW1zloNM4y1CXrmiOTJuXt2SrUWf0+DKzXp5ZrQ4YCWFkRJcUQuQht1ljEOrVTLtdtldUiULW+4gBR7J8MgrOzw8fLHu3zOVSqVSqd4KYYPm2XTsYCrNw2EzcqwNGO0b2I5ZVoGyQCVrKx1abchXINLKRJju54/DcaxgxIpGGb2QFMWQ5Anbo9A5fF8EmEkVLQIsSqWnPRZp30WEqsIAWbjfqTr32hXnbqvs3E6IcqBWIZkAjEx7JfZ7HQtaTft5jMzTJ7rljkqlUqlUF6anj5+8t5hP3YmXz1D5zAErNszuASxfiy2rGnQawJJxDzuLsbMPss4KWNNwb0ICLHrdHLD48LuELA5XHLAIsgiwfJAF5wWsZMgqun0OMZeFluHdo31tG6pUKpVKdd569OjBD1DN6HZaptc9G2AF1Rn/7FJSy006a69CmZslTXDFIYtXubI3m84GrDmDLA5YO8NeDLB8kMXhikMWGbNuZAlaMAFWUiBpGmDBxcKGaxkCsrBvJIyA16+eP35v3b+LKpVKpVK9EXr48P77qGLgZIu5K2yizKHJZ4AVNm6GY1EMw/YSYHkrVElgRVWkUwCWBKqkNuEsa6Pp6SATsAjSonyv8D0Brjhg+SArcDPVsXasB7Qw/E4D8KdpFWLgvVLedkPvqGIBsDCbhaT9+8d3Dtf9O6lSqVQq1Wuth4/uXcI2NjjRYriagkGzAIvgigArimAYkk8BVWx14FkBy5cST3A1lZENCUPwaSZII8ii9wK42h35g0jjbqWaKoVJkEWA5YMsGU6aBFl8SB5D9fiMEBqLVYd37+qehiqVSqVSnUqYu0HVCifpYJaoHbWqVgEsgqskwMpsB4rYBRcsesYWYdJWPEnHl2a4sma0wtWJvKWI44ArH2Atm1f74nDlfgYZgEV7HWZVsrJACzAF43FYtUjhsZVKxezu7upclkqlUqlUq+jO4Y47keLEihM3wj4Rm4BIBXd5BsCaj5YH2WWlSh6TaewyeX0piT1jyJ3Dl691eB6AtcMgi44DrvbGg8zq3WLcdZ9T8Fm1l4fecwKWD7J4invS4DsysiqVDVOvb7soh2p10xQKN1y0w/7+xB63z93tOsh69kyDSVUqlUqlytTx8fGHODG7uALAhoUrd/LulF121SqANR63Y4BF0JAGV1mAha1uTgNYPKaBgGp3Z+L1RQEW4EoClr9q140giwArNuyeAlcwZWTlASwfZAGwAFYwQAvBpEh/73QqDrIODg7sfS0LXQXT7/cVslQqlUqlStPe7ixYJRiuVvMNWAfVlPRVgL7jaUC1lL6esMlzXucFsCzPxdfRptG8mhZV1Txb9STOaOVoj8oB+Pi2O8srC3mUA61GpHDSHkt8p42f04bfETjabLAU+Pq2g65q9bYFrltmNrOvY9o23W7VARie4+iOtgxVKpVKpVoS9qHDxr8je2L3QxV3MlxlAVYmXL0FgJU1d5YXsJIgSwJWP0x8J6g6C2CRB4Oamc/7rlJJQ/Gal6VSqVQqFROiGABWWIqPVYM+qIoPXucDrDxw9SYCVpYvErACLwOWbBOmDb4HcLUMWLXahoOrQuGauw64WiwGriVZKm44MDvYXyhkqVQqlUr14MHxh8g3QvXKhWIiHDMBrPLkWNGefaetXvmG2N80wMpTzcoLWH7I8gMWQVb26sJlwAogayMGWTg2nXbd54TnQX5WtVIwB4c7ClkqlUqlenv15Mmj780sHCCOARlXGMrmgCXBiobUk8AqSjLPAVc+sEpaJbgqYGV53YCVB7LSACsr6Z223OEbRPOB9+ycrDhgYcA9gKxNZwBWuXzTHUOoLD4nRDjgaxBQWq0Vze7eTCFLpVKpVG+fsIkvtj9BSvvYnhxhymBKq15RzELaSjjffYntQAFXLwOw5FY5vq1zLhqwJGitClgyuiEOWn7Akk6uZC0DVuCtCLKCataWW1U4RuXTwjlS39EmLJU3TaW6bWb2M1z377lKpVKpVC9N33z97N2dxcRtgULbuQQncX9y+DJo5QOsPHD1JgKW7/6kr5GARZ/baQHLbaXTbUaAFa0kzAlZQYxDMmDBrVbBARbiG1DFwnMDsjDHh1Zzo1k2xdKGqdYKrpL1zbfP31n377xKpVKpVBcuwBVOhARYmL1C7tLOpOcqINmQlZ7jdJbq1dsGWARZpwUsH2QlARb3WQALLUIAFo41m8Vo9SF+n+b28+l066bVrppyZctUqgVtF6pUKpXqzdfuztzNW9G+gtzR8ZQB9qQWIIepaIuYDMstbtKAas+CD3l/ZxIzHacBd/5Yn+X3kc/tG5T3vc5E52gL+o4lbRXkaxvGh97bMfs2g+amwXcYGVldDL43K5E5YDkDohhgNSw0NRHNYI3r9cq2aVnAwnON+i03+O5CSstbprB9yw2/A+rX/buvUqlUKtWF6NHD+++PR4NzA6xEIDgDXOUBLAlZqwJWFritsiLxVQcsH2TRXBYHLA5ZqwIW3cZz4DkR34DU95P9DAtuNuvwQFcXqlQqleoN08MHxx8OBz3T67bPBbCSYMA5YzNmn1cFLB9kpT02y/y5sqIfMt/LawRYvioWDxrNAiwOWahi4euR8I7VhRiYRxULgIUqFp53f08hS6VSqVRvkNAa7LftCbfXjsEVDblzyMoCrESwOiVg5Zm5ygIjXp2SLcSklmLW/bLaRaD1qgMW36vQD1nNpSoWr2QBhAJXvIDF4YoDVlTNso9HFQszXsXCbQdXjXrZ1GtoGxbN8f07h+v+96BSqVQq1ZmFqsFsZE/U44GZDnuvFGDlHWiX0JMEWGnglBe83gTAIvtBq5kKWe1WzTmKbcgALD6LVStvuZWFiG8AYNXs8VJx01XE8JzbWxumab/H/QdHvXX/u1CpVCqV6tS6f3x3a9htmcmga/bn4+AkLeBKQlZewEpKZj9PsEoCLDq2SmXqtFD1urUIOWD5IAuD6DBPeueQhS2TAsiqegELrUDYB1jV0qYDLEQ44Ov79ntQizBoO9ZMoXjb9PpN8/DRvUvr/vehUqlUKtXKcmGik6FrC+LkTCfr8wCs1G1vTjEYvgpg0eOTZrFOA1eJkQ6e15o1wP86ARaHLA5YAWQtAxZCRtuNsgMsPuBOkIUKFgJIAViIbkAVC+3BYmHDpby3mnUX34Aw0v6gZZ4+e/j9df87UalUKpVqJe0sZqbXqpud6cidxJGNhMuLAKwYMJwzXK0CWGeBK/560mIaXjfAWoasVmoVC1snpQGWG4RPACxUsSqVDfc1WEGIIXfMc2H+CpBVKm5HQaQArbn9/Nf970SlUqlUqtw63J0btAYxe+WS2t3cVdt5ZK/DSN/mnuBx45MYBrmpc1LlSgJD5n6DGSsDfWB11rZfnogHAqjd2djZganH9Dnw94vPx8FNrxWDHR+s8s9TAhZVGuk5JUzR90nz1P7cYb5lDrkfAhU/FoWRhjNY8X0JyzGjKtWuFUyrum2aFpBgXKfbjfKmgyyqcqGiBfCiVYpoIWLQvV6rOFcrJYPokHX/e1GpVCqVKlPPHj38/t58Ysb9TjTUjmoFKhmzcSeKY/BFNczGvaXKVdbGzT7ASk1sz1gh+DIBi0c8UKUKnx0sIQvtVhhp7nhPrt1qocdBTKdh+q2a86Bdj4zjZEpYJwjjoOWrDsrcsazKVXRfCFhJie6+9iA3T3WXG0HDWYAFqKIZLQIsaj+6NmK1yFYVbrsK192jfYUslUqlUr3a2plO3IpBABbmr7CRc7BirJYJWNQizAoTTW0ReuzbCicJtPKEi54nYEnISprFitqEYXUJ8AKg6jYqpmOBAZdwzwIDwVYSdKXBVmzBgKhm4bH8ugQsV+HqNJ3pe9BqQQIs/D4AsvjsFcEVjtH2Ob5tdBxw1dEW3LawtOWM63S7XtmMoApGxYoAyz23BTQAFuCKjNtoSd4/1vgGlUqlUr2iunvvwPTbLVe5Aly57KvoZFq1UNWKAZYXsjwne15NWRWwVt1r8DSAdB6AxVuFcs4Lt2lODcAEiAJUtWslZ4CVrFhJE/BQxUsCF0ESb0HSnoVULVvel9Azk5UTsGQFix6TCldu/moZsHCMAAstQj70Ti1CfA9comoFsEIVC9UrXGKV4dC+9hdfPfnuuv8NqVQqlUoV0+Mn998fWGAadNoulgFw1a5X3IkUJ1QAFoacfSfppBkhDlGnqWBJuHLttTUDVjZkDezl0B4bucudWd/NrqEC2GtXTLNScG6h8mLhALAFSEI1Cp8dLtNMs1oEWVThoooWQRb//HxzXjJdP7pPABbPvOqx+SvfoHtPQJVsD7oWYaMYARXBFYcuwBW1CAFbtFchJcUjGwuzXLjEdjp4TgzE4zZmANf970ilUqlUqkjffPv8nb39uWnYk9W4H1SvsIKw0wgqB8FJtR4B1tLcjge0fECVF7B8YEXOAqskUKLHnQdgJc1iwXf2p+Zwb+LgajHtudk1wCnAAhABqCKwogoUb/URSPGKFVWtYKpE8UoWr3DR8/iqWPi5ZAEWH3J3ICeG3Dlc8WqWBCwfXPFkd+RdwcEKw+A2IhoIsGilIQCLVhviGJ4bz4MVhmXkZqHaFQIX/ODB8Ydr/uekUqlUKlWgwzu7BtWrLk6eva6DKxhVLLRlcOIEXLlBd+RihZ73O8vOOXeVBFgSriRgZVWsklp35wVYaZUyHL+zj+tYfQnwwPYxRdNpFtwlLKtRElQJdHygxQGL38efjyCL2rFypWHWKkL62Ubfn8Uy9BlcyQoWVbGyWoRZgCX3KqQqFh1HyjseW61uukgHmJ4H1/v9rkKWSqVSqdavp08fvzccdU3bnhyns6FrEaI1SHsP0pJ5ABZaXRywfJAlZ644ZPHB67yAxeGKA9YqVaXzBCxePfMBFsHVoIt5I1RkNh1gjfo1+/k1l1b3yc9IrvqL8qkElMlYB6og8nZjUiQEVco4oEUVyPDnerL58wlMDfrBDB4qVxysyDiGcFCyHHiHswDLbZcTzmHxWSw6hscBpPA1eC6EkgK2Wq2Su297e9Ps6abQKpVKpVq39nZnZoSTrj0B00mwGy63dy0ZC1ioTNAJ3tcS5NUqGUAqgzSzACt6HNsWhwMNHyDnUEQr9bIqWzIUVD5HntBSeg563oPdafT1gBJADq0GxGfGoSn2WbEVfQQ8mUPoSfEK4c+DPx+1CqMFAvbz9X3PpGqa7/slbwIdmFYVArjo9wjhoM2WBc52dSkXC0abD6b5Kn6M3+fmruqbkWu1jSXjsWgfanSDSqVSqdamx48e/GBiT8A9e5LthSvAcIlWEK7TLAxOmGkzV0mA5Usqz5q/4oAl560kYBHgyCpVGmDJNp8Er1VS4Tlc4fVilSDAiuIWAC80cE7Vo6R09rS09TTgSYIi38D7ywAsnolFbUKCqyzAonmqswAWJcDjPw26qlClUqlUaxGqVgN70gRQ4UQ4COdscAnQovYgqhI4udJy/9MCFuVApQGWb1NnmSmVBDs8yT1rNosDFo9YyANYBFaHezN36SpXWIHZDSpXNMCOz4wqSDRonjRnxiEszZlJ7AyKOGBFACuG2uVM2FkBi68ojGaxOrUArlrLKe8SqLIBazuyaylKh4/DJtE7i4lWsVQqlUr1cnXv7oGrXGHbGyxvB1iNxwFsDQfBJQbcqUXIQyqzAMsLVixoM231IAcrX0VJHuPAA2cBFh7DZ62SWoxJ9j0P3iMFsvriEHgFaZW9BH1O3UeQtXD5XFbaHNZ5AxbfOofazZ1u3UEWBywfZHGfFrDwtXjuUnHT5WQ9e6obQqtUKpXqJQknHVSvAFFuD8FJxwwGDdPvB8PJ/XBJPu0vhxNm0szPUmJ7GlxNs7fCOc1GzqcFLFnRygtYfOAd7xGtQYos4APsNGQuK1W+ylVaEKuMuvANwqetTPQFv/pWLJ4HYPGUd/wuoRLa7TWiKpaMcUiCrETA8hyTxvMj4R2hpPPZSKtYKpVKpXo5OthfBBUrgMG47eCq262aRmPLnZxoBdhJRMNJBMAqgLUEV9PsMNE8UOXLvcrbIvQBFp/BypN/RXBFG2FTJpS7HsYk4LPA+9mfj6P9Bwm2llZGMtjKsgStJFBail9gG0TL4FHu8wAsvnchARZVsXxBpFlzWasAFrKx8PXNRsUlvCPp/eGD4w/X/E9OpVKpVG+6sGcbtQRxORq1TK9nYapbNu12MXbSw/wVIIsAi3KYTgtYrjJ1DoAlq1a+SIY8+Vj8OfhcVl7AQuWKgIIgi2IS+EA7BxoeyeDN+fLMZyXNbCWtROSJ7zyAFI/1JbufJ2DxpHdXBe0GcBVZZGRlzWQtA1Z8H0JpDLjjcQAsVLAAWdOJVrFUKpVKdcHCzBUZrUFUsIbDuvNk0opOdrUwRRvbk+BkiZPtKhUsL1wJwPKGinqyq3yARWDEASvvKkIfYK26TQ6+BypYwTZC9SgHisclyLwpCgv1hYESaGWBFT2GtxY5CNHz0/elBHiCJ7k/4UUAFsFmP8zFQuUKcOUqWRcMWCdfX3KD7pjFajZq5t5d3QxapVKpVBek3b2ZWyGIIXa0B6cWhGaIF7CXOOb2mrMnY2xAXLf/88el3MpFBlvKtHY5W7Q0c5UyvO5adJ7E9gVzFgBlRSvQyj8OVjG4st/7YDFxpteMY9TqwyXeH94zPhfauBnRDMi9ovBV+mxo6N+1E605IMkKFK069M1pyb0YCVxpBowCQAl8sPchmbY5ckn84dfQ5tNR/la35V73pN+MeTpoxczvG/cazqNuPTL/vtgiiIx9GOEui29I3E7H0zKMjKwsvnWOfQyM2y6QFAGl9jbiGmB8DdqGgL2vnj/63rr/DapUKpXqDdMze3KZWdiIqleIUsDJFrNE9hLA5eArBKxGOdg3zwdYScPTfLWcXDEnh9hfBmClVaC4OXBxwKLXDKjCbboP78cHV4hmAKi4NHT6bFj1Dp81notMsMVX9vFZqazNrhcCloJ5sBPAIrjhkDUTYMYBK0hwb6aaoCrJHLB8sMUBywdZZwGseghVVIGl4FIAFp776M6utgpVKpVKdX56/tXj9+YWLkZhFYXMAcvNY4VD2oCGZqXgwIHaWUkr0+R2LHIYm1df0jZrjo57VhPOmfO08fLMX8nBd8q1wms83JlGQMWBi27j/QOuWtWig1HAFbXmOGC5987ztnaD58Xz39mdOeM6VcXwedHny+e0+HwW/1w4ZAGWgtWMTQdSBDVUOSLAmYXAR8GoHLCCTZ7TAWoVwPK1EPk2OqcBLL5PoQ+wMIOFr6O2Im0MDaOKte5/iyqVSqV6g7R/sDA9VKfCtiABFrUIqU04Dk+4ACvAAyCC5nJk5YpXr3xgJatX1F47K2DlXV2YVK1Kuj9qGdrXSIBFlSaCILwXfA4AKnw+MG2HQwPjbj/GQfcEjsJ5McDb/t4sAqujvbkzhyx8RnKfQtkyTAIsCnedDFsOsoJUdWw2XY55FkZR0JB+NHtl4WrSya5S8XYgHeMVLglWNK+F1wSnAZZLfc8ArBaDLAlYDRcwuu2eiwMWrpeKQcr78fHdrXX/e1SpVCrVG6Cjo8MXAKsBZnRQ6QgBCzBFkBU7ZkEBYIXKDKWRp22R46teyUF2gqtXAbCyNnf2ARa1C/HeUd3DZ0OVK1oZSKvydkd9szceRK1FDnCoYPHKFX0fbqpU8VBRDloyiJXPYgWtwvYSYHWapcj4OdNnNQ1/3u57oD3YSW4HcrBKAywJVhyu4F64RyFvE3KfFrDoOIcqahfSTJabxep3tYqlUqlUqrPpyZNH3xuNBq56NUEbMKxUZQEWwAFVLIpl8O2Rl9QilHlOvMX1sgErtVIlACsKEg2BimCHV5YAnJhNk3DFc6n2J0Pn6GvZ69hZjGNQxQGOWod0HJ8Bno+v7nOVQU+2GK3cJMBCFSsJsPAzps+fAMsB3KDrAEsOs0vAymoRcrDKAiwfZGUBFocpH2DRdjtJm0eXy0Vz795Rb93/NlUqlUr1Gmt3d2GGw76rXBFgUTuQ2oMELgRZOJEDJGj+iqeGy1ks35B7UtRA3hmsrCH3vEGkeTKtvDAWAg9BDgEjIIeqV26YPZyTos+GBtNRvSLAcmbPvZiPlqDKV8Hiqxgp4DXK0PLkjPEWYRZgYbWoBCz3sxv2gvmxYds5CbIy57BCkPKBFhyFjyZUsbIAC7EhvIpFgEWQJUNJa2HbkFYXFovbptfraBVLpVKpVKfTw4cPvw+4ms0mBgPuaBMSYJEBVjvhiT8CrxCw0CbEiZ3vgSc3FfbFNPDVcWmr4F4GYPlAy3c81jZkKwZ53ASqeRj8J7iiqhVVmHDdfQ1rEUrAwmdNx/E9eLuQoA7fD5c4jkt8xhywkjbSTgIsF43AZrCwUpS2BHKD8eF7weuWgEWQxQErK6aBV6t8eVkXDVgAKgobbYS30RrEJWazqtWy2d7eNKjurvvfqEqlUqleM/3X10+/QyvLaLWYAxVP+CfBDT2egil5IrjccsUHVmnhoTLTyffYpW1jGIj5ACspniEt1d3dJ7apkT7cwUrCkzwswEa7VjDt+pYZ9aqxAXRfm1TOpC1tjZMQfOqDSaosoq2HFZ6oPk1Z5YqCW6kCBQ/a1Qh2ek1ESKCdWXHu1IsxwMLPnH6uLrurd1KdlD/3pONLafAJFaxoNisMP0U4K0ybQvOWoW81IbnO2oDBljjBcT4sz1uC9Bg+9A7gGtjXve5/pyqVSqV6zfT00b1LVNXAyRSXcig6DbAkXPGT66sOWFnHVgEsGBWaVnXbdBrbZtyveQGLfwZnASz38/EAFkVoEGDF2oRhJQ1w5eaownBQDliALhjX8RwXDVhJcCUBC3DVC6FKAlYSZHG44oBFkOXNzhLJ8Khwde1rePL4/vvr/reqUqlUqtdIiATAyZPAieZ1ZBXLB1i0pQsPF5WAlQRXZwGspcedEbAS24QZgHWwQGRCUOnCewOYALC6zYKZDhuJ1StfPEUaYPlePwcsmo2jjDKqYk1jA+0szsHClYOscddV3QiwYLwHVLAAWHgO+l1wsQ7hz/i8AMs3dxXLwrJg41rQIVx1PSsJkwCLqlNJgMXhiq5zsMJtah+2mlX7+eoehSqVSqXKqW++evweEr1xEsaJm6pYuJ0HsOhE6YtnoGHu01av+LYvmY9bE2ABrgiw8H4BJQCsfrtk5uOWt3K1CmClvXa5YpIAi6/ylFvd0OuhFuHOpOcqWMNOLQIswBUu0SKchNXMlwVYS2GjDLAAVz7A8rUJefsvDbBomJ3fpoF3AqwAvspuQ+jnz3QWS6VSqVQ59PD48AXaLzgJowXF98LL0yL0rRT0AdZp4GoV+DoLYC1FP/CvyQFYqGLhNaCS5+avrDF/tZjEh/v5+18FsHytTHqtfGWnhCxa+clXDtLPA0PqblA9bA9S1YrDFd7HNARt970uGLAkXLkQ0hUAi0NW3qT3LMDCikI8PwALG0HfPdrXKpZKpVKpsoWMp2Gv6U6eVMHiq86yAEuGifKYhosCLF/b8LSA5c3W4l+XA7Awh4XXABAAlABQJoO6q2DJ4M+k7YHyAhZ/rQuxwlNCFoEWXzVIPw+qYKFyRXDFW4Mw3gdtN0RJ7tH7GXSD7XLOAbB8YBVtn5PRIkzbpzDXXoUZLUJcBpUwDLtv2c9zoIClUqlUqnQ9e/bsXVmxcoPMYcuQVhVmAZaEKwlYZ4ErOcx+UYAlt5TJC1ioXgGw8FqCRPuCqwi59uCouQRY/D2sAli+17sIASoJsuBxuOcgOcrhCitQvHIF2CLAwiUG4GnD7IsCLN/+gxywsobc0wDL1zr0Va+yhtwD2ArahJjFOtbgUZVKpVKl6e7du1ujfis2ewWPw5Vjk3DAOQ2w5BC3BKykvQbfJMC6szuPAMvNLQFMJu0lwJLv4bSAxVd4SsCSQ++IWcDPEz9LONonMtxLkFevOGABEnenfZfF9TIBi8OVBCxfTINvNaEELA5ZEqCyYhpoFSHgqtOuuyrWfDbRKpZKpVKp/Pr6m2fvTsNl/WnmW6vwfe2CjYI7iYPb5DPPWnkAyLf9CwfArFZgGrTshC2xaD/AjOei0M+92cBBCVYPoj24M+2Ycb8Sm7/ybcycBaBZgEdZXgfhdj70XuhzcG24cJUnrzYCdGhrIwcwrVqUaQbjMTJAVb5+DlF8oQNP8vc9lkNWrB3o2ZeQHjvoNpYAC+GjSflXvhWFvtZhUsuQXKlsmHb75HGV8raLbHjx1ZPvrvvfsEqlUqleQT15+uAHtNdgFmD5TKvSXhXA8g6onwKw6Gt9mzv7vo62sgFgoXIFwEL+FSpYWYCV1T7NgitKuufD+rISx6tFBDwAHVc9CmEKM04wIAtVOFwSYNFr8b1+DlKnBSxfi5BXswgQfYAFXzRg1evbptEosE2hS2414fG9wxfr/jesUqlUqldQR3f3zYht3pwGWLGNlNmSf1gObq/qzIH22bLPE7DSIhryABaB0P586Fbk9VpFM+xWggH3YS2Wf8X3IswCrDxw5bK3PJ8BfUYUDCqjNGi/QtriiACL752I10SARe3M0wJWElz5htwBVdiyhxxBYLcRQVZSSzBtyP20gNVqlUytthUBFuCqVkV8RV/bhCqVSqWK66sXT75L+w3mBSy+VD8amB731gJYHCKSZqfyepWNnZMAKwCigQvsRII7IAvzV4tJMwZTSYB1WrjigMXDYX0xGhxuaK6JqlYEWoArXOK1RRUytuLxNIAlg2c5YLnX4Zm94oCF1+YDLIKkiwasZrPoAIv2KQRgoU2IyxdfPXt33f+WVSqVSvUK6cHDu1uAq1UrWLw1SKsPLxqwfBCV5pcNWAQhGAgnwMI+hMEcVisGU7yac14VLF7Rk4sQMCMX25ZGwBVMlSxUr2AAECpXmC3jrV4fXK0CWD64gmMw5ZnHWjdgUYsQX4Nhd7QIUcGqVgrmzqFmYqlUKpWKaf9gYQY4+WbAlZzBiuUpEXydEbCynNQCywtUecCJ5q18+/1lARZgJAAkVKg6DrCa1Q3XJpQVLBnCmmcOK2+Fj78m2rAbK0RpwN0HV7iO46hidRsVdxvPebQ3Dzeu7qbC1UUAVmwfwn5j7S1CVK/QJsRjCbAIsoaDngKWSqVSqQI9fvzw+1g9iArWzJ6M864ilGBFwJM15J7l0wJWntWAtCIwD1xhFR6txPNtpZMGWC64cxIYW+QAsNAmnAyqSzlhHDzkfNZpQIs+F3p9VLlCeCyAhDbj9sGVnMPCa6DqFZ5btjZ5e3MVwEqCq2B4vZY66J415O5Ldec+D8BCmxCJ7pSHRYPujXrVIEtu3f+mVSqVSvUK6N69ox61BzGHlQewKJIBVRHaFDpqG75hgEXRDPRceVYRur39LFxh0B1b5ACwUMkadkuxlXQ+wEraCDpvhY9+HpRVhZ8VKlcEIxym+NwVVa9QuYJxHS1Hgis5mC/bm/SaswDLl3/FAcu3VQ5vFWbFNFw0YKE9iDZhqbgRZmvVXPUKl9VKySBLbt3/plUqlUq1Rr149vD7x0d7J4GRISxxmMLGvrRJMDkKqGSD7byaReDB57P4Y/l1ytOKOWETZD5cnTajxGeQ5PY+vtgFaQ5WVMHytQwlvEUrEFnwKV0HXGCeqVbcXMqf8lWwZOsw3j4cOO9MhjHvTkfOACJAHn1fqkpR5AJeB18pyAfbaQaLhtpRvcJzUSwDtQeT2pu+FYJ5gkYTt83h4MWqbrxFCAOsyARavfA4n83y7VUoAUsmtvOwUb59DoWOyn0L+4O2tglVKpXqbdJXXz179+HD++8TNPBwUNoKB8cIqnxwNQofywHLZ9k6jFawhd+HgEx+Dd8bLwm08gCWL7pBglASZOWBq7S4B77SjgywANQ0K4WoesQrPBKieJWIrywMgO3EBFvzUd95NuxF3x9f6yo9IUAlmSpWBFlBe3MQ5XnxzKvXCbC6ntmsPIDl2xaHQ5Zvf0Je+WrZ7/ni66ffWfe/d5VKpVJdsABW9+/fu7S7uzCTyShW1eHVHAKKNMCS+9j5jHYUbx+SoyBSBlzYsoUcQZaYQ0oDLe9s0nwZspIysXzwlAZYvkF3Wc2ipHP++vAeAAcUfQCgAczI4E3ZPvRFN8hKkhw4p+9HyewEUlShwmsgc7jC68NrILDicOX7mSRV2d4EwOIQRZUqH3D5Noiu2cs7R3taxVKpVKo3VQ8fHH+4v7fj9kmbWrCaTcfuOq/CcLCKMq1yriLk4MRNFS63Yi10DKBC0HKRAfb4iO2NJ/cy9J3YMwfAE2avfKsJfZWpJLCSlSsfYOFz4YBFrw+XlJaOKlarWnRgQ+042qqGIMcHLrJClLTqkIBIVq9o9grfG21CAivaHgevmQbaaUscgjX5s/DBlfS6AEvCloSpLMCSVSoAljTfFJoDF56naq9jNe66//2rVCqV6px1dGfP7O/NLUyNXLr0FCddVCSw1H5/sQQJBBE0N0WbAic5aYicb5lD8ISVa2QCKQ5d3Hzz4SS4yFpl50BrBcDybYGTBlerABavNvGKE7XlKGeKqkcEGGnxB4FbzsjYghEFsRh3I0dD4GG1iqpUtOUNVdAAKXgsXhMNs9/F7wfbTDsrUJQD06sGWHJV4aqAxWeteBUrC7Aa1h37mtb9d0ClUqlU56SHj+5u7e3PzAKzOaF3Z2NzsDMzd/YW5nB3HnhvFrXAcP3O/jwybi8AWsw7WI3GnLUKTw6+UysQkIVVX3RS5NAVAy3PSdkHW4mVrIwWoa9VmJSBlRQumtYijPKoREuPm1broZoFUzVLrsjzteUIpABWACzAFvY8hMe9xtJsFVWrqC1IYEX7Qgbb+oyj6hV/3fw6VdlkS/NVAywabieQItAiiMoDWEmzVhKofC3CNjacts//6PHxh+v+m6BSqVSqM+jrb569e3R3z0xnA9OzJ1nZ4pJRA7JqE4MDAVcSsHYToIM/p4QZXtUCUPGqlqxwufktz0k3L2Q5KMgYck8DLBezkFG9yhpyj4V+eiCL2m4U6En7/dHqPj4E763gjVvO2HoH6fDYSBpREAgyHXTKEUhR+48P1HOwIqgKNqY+2UORD7VzU4szCbDkz2mdgMUrV7ySlRewfOBEKxGzhtwBWJjD2rP/YVn33waVSqVSnVLY4gYhoX20jSxgHRwu4plMArAIPOg+H2DxdqC3iiXabRKwqELGvx+HHA5aqGiRqarFNyJOOklnAVZaTINvNaEPsJJag1kxDXwezAdY1Jaj43ivFOFQ3rrlZqRoD0CKTeCfB4CKTGBFcOUczlrx70NVKhpcJ7jiMQx8NSatQpQwRTNjWRD1JgEWhyt8XVZMA1YRVux9yJVb998HlUqlUq2o//r2+Tt3Dnfc0LnLprJ/zAFC+xZu9hfTmPfmE9cq3JmOnLNmrDLDLAVUEMRFrcbdWXTippM4H5r2DblTyrgDrUHN9PtV0+tV3OVwWHfG7U6nZL8OIZQ15/Ggbp/LnvTHLXeJ+5JWH/pWHNK8EV85lxXJkARe9JlQRYjPMflW//n29QOAyHwqPkclW358exuCGP5efHsVyvfPYdA3MyZBK20eKw9AZXnQrlqQqrt2Jy6HnZo7hksco4on/b5Q2CjcZasEZbo7QRQek2YJV3IeKyuUtGVfa6NpYcvej+ryuv9WqFQqlSqnnjw+/vDozq4DKqoy0aWbkbJAJU2Ahbms8wYsWnkXzXNZwIIxz0MmwHKJ4Gz1oReyQrjqdsvOuE6whUtAFQEWQRbACoDlYCthED4rP0sCVlIrMGlVIU9ylzCTBlg+kPG14Xhlz5ebRc+Xd89CCV1JIJiU2p60kvCsgAWQkoDFj9HvCd+LkENWx2NetepkWFau5OxVHsCqN0puNSEqzOv+e6FSqVSqHHr69PF7smqFuSg4mpNilRZeXYlW+WU4czsb0fLjVSxAFjYGhrEiDZcEWAQw9Fp4NhYHrX4f1aqahSt7UmyX3ca6uMRt3Ofbnw7bqkyGqGLlbCMmQJZz1lY4KcPvFDTqA6zYdj+eLCty2gyXvN/3/KkrLH3vNwME02DqNEDFW4A+c5jikEXHOFz5LFcRLsEW2oQploAlB94zt9VpIgur6ABrYX9X1v03Q6VSqVQZOr5/5xD5OgRCvGoVDaBbyJFD5hxocjkhdyo6cXuGx/nsEsHVvYMdd0ktQ1qlxoHEB1qDQcMZkAWwwsa6MEFWr12JbQhMe9S5jYAH8XmlpFV5WUGlac5aRZnWkuPb50jA8gGRr2W3CqzxBPgkuPIBVh64SgKnswIWQIpXsLiTAIsvluhb00pCDlYReOWoYPlWFBJkZQFWUL0quEH3nv0Pw7r/bqhUKpUqRXfvHZiJhZGBBRBAFBlgJUFrMe0teT5BdELHVXhkMOiSE3KYIlARQCb3+ANQScCiVqGDLZaSzqtrBFpDVLLs+8QlTpZtNhfTDKsMmJWhEytvE7lj4co5uR1N7iwtkZ/ly9NaBbAkZJE5GMmg0CzITQVgDzzyNmhSBUtWwHyAlQeazguwknxWwMqawZJwJatYeQALFSzkYWHgfd1/O1QqlUqVoHvHhy+wImk86Zn9g3kwJxVWrGj+CkZVazIOYEqa4Cpoo6VvdZMFWBLIOGTBBFLUKoRpLsvB1t4sWmkoIQuWex/iZEkrwNwJzp7EUGnAvI1vyJkGxLP2/EtsISZEO+QJLU0CrLS2oa9yleasmbKsQf6kmays6hWvCq4KTauYz11Ra5DsBt4zWoS90LJVGK0yDH9XksxXDfpgKg9goU2ILCwA1pOnD36w7r8hKpVKpRK6/+CohxiGEYIlFyMHWA6iwqpVNDcVXgeQYEXdfNKOzFfYuWHwjC1OsuyrevEoBDqRU0twCbRYqCnP5yLIQvo8PEZWFPbwsyf5PqIMLDS1sJdfvRJzt2lPjK26s7seZkBlQVZiqGdKtAO9xlTYyglYSbNWvpmp87QPyPLMXuWJYsgHUMvRC3HX3arBfqsSrR6MrSbMGHLPSnVfFbAIqPICVtO+bpgqWPsHC61iqVQq1aukJ08efQ9wNRx1ze7e1OzsTlzeFVWwcBntDxhWssYuRb21ZAIsF2twToAVq3qNT8CEwwQgiw+8u8qWPeEkAdaOe0+DGGBxyOpaYAJIAayaVXtCqxRNq1aOQRYP2vTlSGVlasn2pwQqX4UrD2BFQ/6eYXNfTEJSBSttwD3P/b7nzopmWGVLnLMCFoEUAAsmwKJjWTENSy1BtidhO6M9SC1CX0ZWXsDCKkIAVs1dr+m+hCqVSvUq6fGje5dokB2zVtT+C0Aq8Gw6dJZAkjWjk7UabNZb9rzfiZy1So9XtAAclJEFsLp7uBPNZhFw0SpDsoyNoFWTqM4Nwq11cHLFLFa9sm1q5S3TqBaitmFXVClwAo5ty9NumEmn6TzttmLvbzHI3oonC2jS2nMuriJjlWLmkL2nCuaL0ZCLESJoFC3GpN+TtKyrNGfNXVFQKIeqOITFVw9y2Oo1g4UOaU6KaCDz3w0HZGzAHb9T8jYZremWCB71BZVSIGmzUXEVV/ynYN1/T1QqlUpl9e03z969e7TnwMJtrrwziUAjD2Cd5gTIT4SADrIPtLJabBKwKN2dICtpNovMt+mh9w24JMiiJPh+uCKMTnwwDcCT+ZwWtZQAWARZ/D0SZGVuxbMCZPmCTM8DsFLbjQnVNoKs1xGwCLJOA1gSsl4GYAXVrbIDLPir50+/s+6/KyqVSvXWCwntgAsCLLcykM1b8aF2gg8CEOeVZ178ls+T1WIjIOEtQ5zkk4JI5SA8mTK9CLDofUYO25IStJrYF65aiE6IOCarWTDNZvH5LBntkJWjlWcwPQmyzhOwvFEQKYC18OScvWzAyv5dOwEsXxUrC7B8GVjnAVjkPICFxHcCrFq1aO4fa+CoSqVSrV2AJYIr7qhNKFo+PEPKQYdv3za2/UqS6bG+CkMacMmKFl4DQRZVsWivQtcuTIErF0yaMJtF5jNS+B5o+3HIaoYrDTlkcdNsFh+CXwW0VgGu0wSZZjltKxwJWF7IegUBK/4z8AMWGfloafYNtycNuScBVloQaRZg4XsAsNAixMKMSnnb7O3qoLtKpVKtVYeHhy9olSAfZOdVKh69wOMXXMjmYHljXL6vHe1tx03HI4uWmswa8kEXhxIAD0EWbxUSVHC4olksPo/FIxx8+wDK8FR8H1SyaOg5D2Tx9qF8f2mQlQRbPuBKhKwLBiwflL5KgJUNWcuARV4VsHyQlQVYae6ISpUPsPA9grysYP6qWinYf7tDBSyVSqVapyaTSRQaSm1B3v4LYhgCqFoCq34jsIArCVbYLJg2DKZNgzlo8eFw7ghEPFUuDlpukNwDWVk5WTTsToDFIcu3LQ1Vs/hWO3DSiZJAi06miTNaOap0acCVucH0BbcI+WO9oPUKAFZ6u3A5wZ2D1qqAJSHrNIDFH5OnghVcDypYaBV2O5rorlKpVGvTvXv3LgGw+FA7meAKl1NkWYWeDOpmjE2Pe1XnYbeyVLUCPAGkCKzatZIzBy1e0fLNLcVAS7QUJWShmkQr9ibDjjcnS2ZkxQCLbRLNN4uOVuKxgFK3t6KIjKBqFt6Ha+mwihavavkgC85qGeaFrcRK1gUPuacBloOsVxSwTn6f0pPcswCLh4yeBrD478lpAIvuq9dKDrLa9t9go66D7iqVSrUWPX/+/J2dnR0znwdD3qhauRVzyJwKq1gcsABWHK4cWFkPOuWlqhXBFaCqVS1GgEWQJQGLDwT7VmT55rZiVQgBWDInC7BBGVm8kuWDLH6MWmJ8RktWsWDcxiVgyW3eWy24OAdcNtxsTHw5Pb1POhlntUCzIOtlAFZaTIN8/NsIWGmQddGAhfkr/E6hNQjICtqEJfPk8cPvr/vvjEqlUr11enR81Nudjc1s1I+vmmPtr6RhYTnIzgHJt90HIEuCVgy6WHWHW1Z9kipcfF84DloEWzykkw+/+1YZctAiU14WARft6xflfLEVhhRIideMkyZAS8Y6yPfL31Ns9iwEx6yVlGkrD1PBi1WlYqsOxbE8yfB509zzbhq9CmglrTrNu4owa3Urbe6d7HjCuwwj5bf573U0xM6qnT5ntRQxf0WzWDyAFFXpdf+dUalUqrdO9w73zM50ZObjQSx+ITZflPK/fl5VkkAkc3wIsJJAKw9gpUEWHxqPwj0ZZPGUdMrJSgIsn3koKQEH30ePWob0fWXLUJ4wfYPwaZAl4SGtVXgegMXvl4B1HnCVp6J1noB11giRswIWr17JClZS9pX8fUmLcyCgOpnFCqBrqonuKpVK9fK1v5g6wFpMTmavsgBLwhW1BX1/+PkJolkpOCeBVl7ASgKtpVWHArJ8OVkURuogKwdgyfmsGGSx6AqZmUUJ8PIzkUPwSSsNs4bgCUBkFWuVIXgJUwRFS3EPCa3CvICVt1V43oCVVtHyxYOcN2BlbZWT9e/HB+W8vdhkVSxqQ6NtOLS//+v+O6NSqVRvlR49vP8+WoOAK7QJswArCayiVYKeEwMNerswzvJ2BFkStBxkedpmviDGJNDKqmTJFYayVegLIpVtQ3kfhywJWHzvRHxf3hpKmrnxBZWuOgTvi3PIM6MlYYrfnwZWeTeIXgWsLgKw+JwWh6yk/LWLBCxfVUtWt7KAfAmyoqDRUjTfV61su7mw//r2+Tvr/nujUqlUb43uHO6byaAbAyzKvZKA5U4wrB0o4cq3WpDgiYCqXtpykMVB6zSAlQe0fDNMvhWGtGEyQIvPXS1lZLH7kKFFxm2q+PgAix/D98brwevjbUOZn5UEWWkRFb62oQQUXzXLF1AqN4FOgqdV9kZ8VQCLIMtXlb1owPL9TCVg+eazsgArgqywYhVkYVUiwML1Z08f/GDdf29UKpXqrdHOYuYFrDGDKwcm4QmGh4JysCIngRVBVa246SCLQMsHWD6QSssGypph8oFWnhgHXrWimSsCLwlYdD/lPVHlSgKWbBnSSZcgKy3OwbfVjhzSTpvN8iXDS8iSMMXvzzOsntfrahHKlYarzmOdRwVLLszgQOVrF2ZlY/HfjyCioRjNYlHwKK4f3zvQNqFKpVK9DD17+vi96SQYbgdgYQ6Lp7anAZaEK6pcdSrFyO1ywblV2o4MwCLI8laxcgJWFmhlVbJku5CqTTR/xGet+EA7T4GnJHhe4aIIB76dUNJcFq9m+VqGSYDl22pHVrPkXJZvxWFaCjyvXiVBlg+aLgK0LmIG6zRb6ZznkDv9XtJ9SRVa+bsvj9HvBz0fgRXNYqGihdu4vr83U8BSqVSql6GHD44/HI8G0YB7XsBKhCsGWBKumsUt52phwwtZ5wVYWUPislXIVxjC1B6TgEUtM9/+hbFB+P25gywKIuV7N9LehRzqcJ23DFcFLB9kJWVmScjyARZuSwCix8hZLR8oZQHVumMafNU+7pcBWPJ3kgNWnmoVh3FcEmDh98hFoYTxKNQaJNjC7gzr/pujUqlUb4UOD3YsTPXN3nwSVG/CyguBAIEI5Tm5E4UHrnhbkA+w89YgGYBFkMVbhQRajaoFsdq2c6tecKbb7j7f3BZLhufhpUv7HLZOToTDXt0Z2/vQdj/Y+idpAJ6MqtU9+7nBvHpFVS25zY5MfOcASwn5WOEFD+xnjRMihVXyqgbeE953EkDKvRpPG1LKIccHTb7heL6yME/Fyncsb9BoGmz5gGlVZ1ezlvcohOm43D+TA5dvEYYEMB9Y5VlNS8cBVVSxogoWXe/b17PuvzkqlUr1VujAAsEUyeYhYFEyOa7z/fUAWdGsiBhkl7NWWYBF1SsfYMH1yqYDKQ5adBv3+VYgynT4VMjqVJ0JsmgPRYIsvF9qF8qNomFfe5DPZRFg8S11+OfKg1wlaMFI/aYk8FgrKPy8ZVVracXkGQArrW1IYJS6z+FLBKy8Ke6vKmAlzWedFbBoBSFBFc1k4Th+r9b9N0elUqneCu1ZMOCAxWeFqGW2NCeUMcSeBVgEVUmulTccSPmM+5JWIMpqltxMOnK74swhKw5a7Qiy5EbRMIWSknlI6d3DndhxCVmuVQjYsgZo8VBXAi1Uslz1ig0+u1ZQ+L7yxjikrTBMAy3cpjZhFJ5qj+P6WQfbzwuw0uAqaVuctLbgywQsX6I7j2bImi3MAiyawaLBdto+h7bQWfffHJVKpXrj9fTp4/cW87E9yQ8dYNGeenw2iANWFCnAgMYHUquCFa9oOVuI8kFWdNzTVvRVtHglK+ZW2ZkgS4KW3GJH7mXIM7MIoFx+lgAsDlqxdqE1hywei0GQhVZOJwxNpT0N8b44YMml+nSizhPjkAZbOM4Bi0NXniT2PD4LYGVVrV4XwMqT6p7mJMBqhZDFVxISYAG2njx58t11/+1RqVSqN1oPHhx/CLiCEc+A6goBha89iD/eLkZAJLCnVaxyAVXoaDYrA7DSWowStuRsVgAoFlSaJWcfaPkCSvlQOs/MIlMS/NHBYgmwZDVLwpWsYOE6AAtVLPoZuNkcaoOmDD/DBFhZMQ5JoIXbVLGCfdB1VitgXRxg0R6ElOZOgBVFNRwff7jmPz0qlUr1Zuvu3TuHgKs55mamQQuLQILAik4QLl8H/xuu+uesuNNACgBV2b4dmaAq5tJt5wioQtNx/ti0WS4OWdwYmgdkEWjxilYAW/H5GAlbAKIZa/XBqErtYgietQyjvQ2tOWjxr0uqYNHQO0Edvjfam2mARU5aYbgKbPBZLN6a84HQugArC45edcDK2kInaRVtFmBhdo/PX8lq1uHh4Yt1/+1RqVSqN1p37hwYAiwX0WBP+Lx6RScF+uON6lW9Eq9KyTYgH2KX4ERQVdq86VzeuuUsgatcuOlcKd6KOTou4ExCli/6IVZxY6sTZTUrAK34CS9KUA8hyyXch5BFFShcB2TtLMZRtYoDFocsPAamViGfxeKwNQpbtNSixMndBbkmgJUErLQYhyzo8A2Tp6XCv2zASgOj133IPStoNAuwUPnkKwipikWwtbu7q3NYKpVKdZE6PNyPARbaXjxlnMMVVa8AWL7KFIcbH1RxFzduOHPQ4tBU3LruXNq+ETMd91XAktqGErJclU1EQCxXsuItG4IsOmFSG08CEUEWzWTJKhZBFipdcBZojcNKIn4maN8CLORm2j67KIoUwPJBVtpcVtqwuS/OYR2AtUqF6lUBrKSYhvMALFpJiHYhAAum6/P5XAFLpVKpLlLz+dRgyB2VkvkEVZJW4CFOMtjMGavuMCSOOSYACipUm6ZctnBT2YgZx4rFm86l7WumXLgeM44VNq+Y7Y3L7jLNReHS1tWY+fEyvpd1xX6PavFGYGolMtNMF6IeCMIAW3LFYRBBUXTG+4bxGcD9VsUZJzDMSCGzCp8dQIi3DfmMloQtmPK05CpDCiOVc1mUk4XvNwi31+HVRQom5WnePp9llWFWdhY3H4SX4OSDrTzb47xKM1j4twH7IAtO++yz0t19VawkJ7YQw+1y5EpC8sD+Pq37b49KpVK90SLAGrs4ggCwpqOmPWm13MkDMEFw1a5hvgqVoeUZKVynFl5QbboWgyxcL1oYIsDKciG0BC3y9u0vY48h8CLYolYibzXGXi8LOfW3Ebed8Z5hCVx0coxahmI/Q4pzkKsN5apDAi/aWifaw1BEN0jAokBRmQDu2+POB1wvC7B8APW6AZYPtJIAy1fBehUBq2d/h9b9t0elUqneaAGwdhYTdyJfTHsOrsaDujt54ISBqg3BFVWvasXl6lAcrm7EgIdXnQBEgKMsFxhk+bx164vIvq/h35deB69wVbZvOlcLt9z7ATRy433CAEp4CbhE21BCFgctngIvASspxsGXj8XT3vlWPxyyZC5W4mbXZwSsLNBapXq1DsBaBcD8j2lEMEUm6Jr0m688YLXt91333x6VSqV6ozWbTZYAa9irOrhC9YragnBUvSr4B89jc1Ki4kTgQzC0efPzVOMxHKKk5eMlcPlajARZcHkrDlnSWbDloirqQaK6hCyZmyUjHSRsyQgHPCYphJQga8wsIUtmY8lVkHxPybMCVhJorVK9etUBy982rHsBC3CF6u+rDlgNe9/X3zx7d91/f1QqleqN1XQ6di1CAqzJECeDipu9QiuM2oJwVL0CYIVwAlCBS5vX47592bl460vnws0vYt66/lmqJUBt3Pgs8u3rl9xlGqDR9yeXN66YyuZVU9265hy1EpkJvlDhwvvklS0JWXx4HvNbiE+ggXIHLhTnIJLgAVpJsMX3OuRD777tdPjG1Byy+CbAvuH8vICV10mglQRNClivBmDV7O3nXz1+b91/f1QqleqN1IsXz98Zj4OQ0bFbpXYCWLx6RXAB0OCARWBV3Li2ZIIrwNT2jc+dAU50ffPapVRLoIJvXfs0Mr/f58LNuIu3AF1fWND60jmrwsWrWRK2Ap+sUqScLb7vIQcaOZ8lYYsPw3PASoMsmbLPw2Apbd+3V2EEWecEWEmgJQHpdQasN7FFCMB6+uzh99f9N0ilUqneSAGwRqOB24eQVhESYNHsVRJgVdFis3BVdjB1ddk3LcTc+MIUrluguvaZ2bp6yRnX+e0kE1QRWN28+jfnG1c+ceawRfdxbwlv28cV7HMVLXzBsuVIbcVobmzzelSd87USG4VN52Zxy7RK26ZdLphOpWi61VJgz3wWtQ1pA2kOW3LVoS++gUOW3Ijbt19kEmDlmcHKOwSeBFo+OCLA8sU4vGzA8kcvpOeEvUlD7gCsJ08f/GDdf4NUKpXqjRQB1sSe4DDX4wMsag1mAVbx1hVnCVg+mMKxzSufpjoJrq5f/qszgRaZjpM3hDftY2CCrdvX/xZ544b9njft67r9uYWsLy1kXY5X48K2JwEXzAGLQxaZ4IZWGsqtdgi0fAPxeyFcJQHWJPxaCViUXYaTeRJg5V1FuMoqOx9kSTB6nQHrTYxpqGM/QgUslUqlujhNJ8EWOcG8kLUFrF6rGAMsAiu6hAk+Chamti1Ybd28bDZvfGk2rn/hjJbc9g20+yzEXPlr5I2rn+TytSt/Ntev/sXCU+CbX/7Z3PjiY3P90p+c+XPCty6zx3z+kbtN5o+Rx/C98Bq3rn8atRJh3lqU7cXK5mUHmLXtm6ZhP4uWhc82ht/tJdy0n1O3aSGrse2M6/12yYx6VTMZ1M1s1IxBlaxm7S2CuTiEv6J9iwoj7RcJGB6PerFhep68TzNWfH9Fvon1qN9wplkxXnXCdRzDLNlpACwJeOR8VhJMca86ZC/te90cmJLgKem9SkCjzzPYt/LE/HOm+2mPy5N9LmsuRw3b2XQETFFAbNJ+hVn7FhJg8efEbSzK4AszKtWCuf/gqLfuvz8qlUr1xmo+m5j5eBDOCXUcAAAGAFgYcKfBdm5UsGj2SgIWQRbghAALEMMBR4KRzwAsB1mXAxM43fjsowCy7HV32x4n4/a1z/7kzO8DeBF80eNwm78eAi0yXjtZglYAW9dcBY8gC1DF3a5vRQZkAVoHnbKDrHG/FlWxOFzFZrN2phFkuZT9eQBdBFwEVhKwCLL45tUSspxDwPLNG+WBjqwKVhpg5YGs1x2w+P3850A/C8AVAVYsUqMV+DwAix5HuzAAsGg2TwFLpVKpLlh7uwsLVd1wtVvXAQBAgFYQSsCiAXeepk7xC3zFH8AEVSECLKowEehI6CHwIV+9/HHgLz5yjoDqs8AEUT7I4ub38fsl0MkKG4ctvA84DlxfxlYn1ravm3rhhnOjaKGrctu5Wd0wrdpmrJIFU9uQtwljIaUsqoFvJo1Ll/LOWo2+Klbayd1VWDKgIms7naytdt4UwEpqLfrgikNW0n30c3CVqxCyYq3CZjXwOQEWj+4AZClgqVQq1UvS0Z0DM+y2wpN0OwIAGnDnbcHY6kEGWJRZxQGLAwpv4VGViUMQVZ2uXvrjiS1cXfnyI3Pl8z8509fc/PzjwKICxathBG/8MfK+pFYhf82ypRmvcAWrIbFKkmCLYiAAWy7qoXQzBllUzXKw1aq6uRyKcuAzWQsxbyU3lqYZLG5ZxRoPmq5NRSd12S70gQWfn1p1hilrNV5SXlaS1w1YWe+XQ5Rs/+E+X9WQ/ywAWARZErDcatRzBCwe3aGApVKpVC9Jjx7ef3/QaUYnZaq08G1xosF26yiaQVSvCLCiqAQGJgQ/vI0n4coHWFTBkoB164s/e+e5fC1H36wWgVZSixDVKvl1y7AVxElQ9AQHLVS1eHJ8vXwrBlkw7RtIkMUH1R0sTSwsjdvOuD6dWvCY9Zzd9QzAmgxb7ufJT+yxGSECBbYRNEDitICVBCcXBVhZ82DnBVhLYBV+XhKuJGS9KoBFz6uApVKpVC9ZXyMLq98Jl+/XHWABAGSwaNQapNmrjS+csfJu69ZnbhUeVuNFK/NC4OHVKzkHlWY+g3Xty5MWH+DK2dPWSwIiAqckEFt1AF9WtWQL0bUR2R6JAC1ZzWrYE5xvc2YKKAVYjUYtZ1wHVM3n/RPIymgRArBgGraWQ+5JcCFnqFZZfZe3inUevmjASgKrvIC17hah3DKJ3wcrYKlUKtVL0GIyDE/wNTeMDQDwVa8IsNxg++3PvXB169onzhxkfC07Phfla+fduPZX55tXA0f3McCCOeRkDabLFYI0iE/zYjQzlmUOc7zqFQO5sJJH2/4AtgBaVM2qV7ZjQ8cy1qHftyfHXsV5MKhZ0LJQNG5GzhpyJ8CiStaSBTSlzVJlwVVWtet1BqwlsGrXA3vgyregYF1D7r45LAA9WQFLpVKpXoL2F9MIsIbdiqtgUe4VD9dEexDVK6waJLgiwOJwBSAiAOFVK1ynShE/xtt0BEw3r3/iLCtigCu0CenxFK8AgAriE64417avmnrhmnOjeN2ZbuM+uo3r+DqX7s7gi4CLm0MWvWZewYpBZZjddetakOmFFiqqWWgZopJVK2+5KhYtnacBZIKsZnM7cqtVMN1uOQIuOCumgQOW1xlZUXkBK88Q/OsKWIlwJQALLT++ahP3rTumgcDdt5JQAUulUqlekh7cv3ep3QrmNRDV0GmWonYWKi400E7byOA2VYR4FYhXjgi2YB7mCSBzgZ4ixFMa4JPmatHCUcmCU+WmfZ23TKt224Lhhruk6zjuuz84thGZVvzhvZJl5W5pWyBsx3P9kgstRYCpDDZ1VbfwvfPPggJNS4Urply0cFe6Zqpl+34rN0y9etO5UbOvu1Ew9fq2qdW23PVu156cB42TluGg5TwbtmOm47QnHl3n27ngmNw7jz+WHsOP0fGT7WDSQz3TWomUv5VmOXRPc1n8vrTVimlQluf1ZbUIfSsFOUhlVbAIlPFzdY4qWoEJoGLVLdZORFgogkTbyLlixjEKE8VtABwuXbgoCxyt2usPHt7dWvffHpVKpXrjNbInJfxBx0mhXtkMIKN00w1ro8WFmSKAFa6jKiMrO3IOCq0xVG3wdXzgmyCN0uGT3CzdSjWBkG+FHl13rU5xvxswt7elJWzRps7csdeH92DfVx1VKfseK/ZzKaNKhY2m3WrKS1GFjxtwhdm1rY3PzfbmFw60OGSRAbntRtEZoaE4KaO1BwBGnIaEKZkqLuGLgxKHJR9g0THf4098ulWFSW3INMCSkJT29QRYSc+ZF64yZ7HE8HpSHlYaYKEqyQErGHwPAMtXtTorYAGuCLCwVc6jx8cfrvvvjkqlUr3x2t+bh22GkgMswBDBFcESrqPddTVcxSfnq/hqPBruBqzQykRKNwfQIMiUjMwtGNEQ5G5tK9UERJQxxb8H/14EVr5jdJ2bgIu/lug1ha8T7tU3nbu1DdOpIs39ZqztWN6+4rXbhmfzSze4T0ZSPSpdADDAF+6vA/IAhi7SoWhPsCV7Yi3bk3bVeRQaoaUwAmK5sVn3oF11sOWrSEm44sAG++a2aECehuRXXVG4CmD5KlNp0CQBa5VqWp7X74tp8IWK5gWsAK6SAStrKx0OV7QikUMW3U/3cfBysGVv62bPKpVK9RL06OG9S/hj3qhuOcgCXKEtCLiiPQFpX0Ds9Xf7CuaQMEsFyAJYfepiChC02SoH7UUACyWYY7YLdinx9hgAAOaQRSCDiIh+I9088sAHV1kmwEoyXgPZB1u9+rYzXgsuAX3tykbw3ku3llqOVBkjcEXLFGB1+bM/ms//9jvnLy/9IQhVvRxsE7Rx65JrI6Jl2G5amGvb79e1n2evFMEVhyrcxnF8zvNRJwZNvJJFcMWrVdK+uS0OW1mrDFcBqLNYQpusdJ0WsDJbnww2faC1KmARCGUBVrT9jYArCVnyPlndatljL75++p11/91RqVSqt0JIEK8Ub5lWveAqUGjvAbCwmfKVzz+2APAnV70CZCH3ibKfkPsEsOpUN82gWTTjTgBOVEXhJrDigMUrWAQ1fXs7zUnVJVkVk7fpWFLVK7KnqsYBkH+927vRWlbIqCLGK2RuwL1001W9UO3CzBqqf8j+uvy335vP//Ibc+nj/zR/+dMH5m9//rX54tPfWeD62P4cPjWVwhX7HLctsBYiaCXIwh6SHLIAUW7T4fBzR/swqd3ngy0JV26fSu4VBs7PC6LS4Mo3TJ802E5D8K8KYHU6lRhg0TxkGmD5gCoLuAiw0Cbs9ppm3X9vVCqV6q3Ro/t3DgFXgCxUWQBYiBpAxeryZx85wMJ1QBe2g0G1BtWbYavkoGpiTxa4hGkeiKCKQIfAKgm66HGDDCeBFH8e+j6+709QRKYE+2grm3CWKREQ7WMAOQQ6I9a2g+l5+PfgLdJ2BbNkN4J24saXDrTQcgVkffrRr82f//gL86ff/cz8/sMfm9/++t/NH37zE/PXj35pfwa/t8D752hwv9PYtM+9bV9H0X7fsgUs+3MYLL9nahfSsHuSCbiGw8CUxcUzuYIh+3TAOq8WYdLXpT0vH3TnMCVXOa67RdjplAK4CgErAKFaKmBFsQsJLUFfy5CbAKs/aCtgqVQq1cvUnf2pqZU3HGBh7orHDKBliBYXAGFoT9oje9Ke2hPyfNBynqEKghO1q5gEJyJa1k75PnSbACbJ43Yj1d6l8+2TTYxxnU6UNJwcu5/BEZkDUlqVx1WB5EwStc4o4JNBCwdNArV2yQKq/SwxLE+XGJbfuvo3t9fi1c9+Zz77y6/MR7/9sfnNB/9ifvWzfzC//vk/mg9/8c/u9h9+81Pzx9/+zILYB+azT37r2o2Y8QJwAbToe8nXQNDlA0gOYP3+ibF6kUzgldUiPE/A8gFS0veTFSw+mM6fY91D7gFcJQNW1pC7b6hdDr0TeNFxeixWEw5HXQUslUqlepn6P98+/Q5OAsGc0GeuHQiwQnsL4IFW1GLSjoAKgAWoIuP2rO9f3s5PVLIyJAFr1munWp585UmY2jy8VUT3u73qUobE8R6pmsOHwTHDhNkmGG0yPpdEkHWSMxVfgReBYzhwvoPvA8BrbJs+hv4xs2ahq4b0d4ST3vyLuXXlj+byp/9pPv34P8zHv/uR+f2v/9UC1j+aX/7078wvfvpP5mc/+t/mR//2v8wP/+X/dZf/8RMLYL/8ofn9hz8xn3/yJ3Pti0/M1s3LLmoCqyCplcpBT1b76HVGw9ddBJ7WnDl0ZcUY5GnBXRRg8cdICOfQvYrPO6ZBAtYJGAWAlRXTkBew+IpC3Eb1qlYtmNG4p4ClUqlU6xDmqdD+G7XLFppqZjFsmp1Ry13C837HWYLPFBtHW086zZjpODlvBcF30nXQxAa7OSQBjmajpte4jzwft2KWj5X3n4f583Ooo7kpt8k2xUuUr5pa4UtTvP2puX31Y3Pl0m/NpT//0vz1jz83f/79T83vPvhX858/+0fzwY/+zvzHD/+X88/+zYLWP/0P829//3/Zy/9ufvIv/8P8/P3/aX754//P/PYX/2T+/NsfmS//+itz84vfu5YkAlax8hHtSsyEwVgV6VZIhid0BNDiksIqcRzHsBAC8RG+PfeSWmYcQs9a4cpbKfNVsGDfa/bNVfHBftrEGaGiwdZSzejz4aZtj+Rx3u7j4aI+Jz3O1yJMq1gBpmgVIeAKAaeV8pY5PDx8se6/MSqVSvVWaj5oOJDaHbfN3qTjjOsEWQRYWaDFLStQaU5L8XbBkwyYOFjlgRsYVbizeGfaSfXurOssjyc9B14j3gNgC+3KQXPbgQ7iH5BMDyBCDAb2acRA/Gcf/9p88odfmI/RKvz1j8wffvXvFqL+zfz6p/9kfvHvf29+/M//jzOA69//8f82P/yH/+4uceyn//o/zc/e/zvzwY//0fz2gx+aj3/7czdYj+dFzIYLkEUlbfuaqWEFJOIwMKQfRkYgLgJwRenlsoqD4xxUfC20LDDKA055HpME70lQKAGLt3/pveQBrCSwukjAkvNYuEQ7kACLrgOwjo40xV2lUqleuh48ePCDg8XIkPfnQ7M3G5idSS9a/k/p2jxlO23w2QtJKV6M+/Z79VLc8Xox7rrXics04zHk3WnfGe8xr/GZpJl/fvQZZt1PnzFeH33OlMKONl6ruh1tX1RCUOnNT80tbIj9xZ/M1c/+YL78G6pcFrz+9IH5+Hc/Mx/91sLXhz82v/vVD81vPrDw9fN/Nh/85B/Mf/zo783PrH/+4//t/B/22Ac/+yfz61/8q/nNr37oBus/+ct/ms8+/Z258uVHbk/I2/Z7bd7+zIWjFrcvu4UQmNVDrAcWRlBFi6CLV4N8q+1WHTJf1WltSr5ZcxJk8aqbhMWgBZgPsFYFK19rMGnIPQ2yeEuQAxYuAVj3799/f91/Z1Qqleqt02KxiMEEAQgBSQApywDkAy4fPKWDU+CdycAZ34eb7k+DJnq9PvP3xGGJQOdwZ5zLd3Ynqb67PzNHe9Ml0/3yeXA9DmIT54PF1F3uTkf2PQ7sZ4oQzbYZd0pmiD0KaxveFYkbgKKrfzE3L38cGSB25dLvAxD75Nfmb3/5pfnrx78wH//xZ+ZPv/9J5I/+8FPz548+MH/986/Mp598aD6/9Dtz+Ys/WtiyIHf5I+crX/zVXP3yE3P9ioW865+bjZtfmq3bV0xh85opbl03zdp2BF68jRgByzkCVtrMlBxYjxZHJAyly/YmvWY5U5UFWKcFqyzQkjENWaAFE2ChXQjIgp8+1QwslUqleql69uzZu6PRyCATy+fFdLDk+aQf82zcW7J8jAQnaQKsPN6dDpe8NwOsjCMfLCaJPtwB+ACI5rl9d3+R6uPDXXPvYCdmfr/vOfEayNiAGz7YmZnD3bm7xO3d2djsWNhC+xFtRmqVok2KOS6sjAxmuTZdjEO9fMPt2Yi9GyuFqy4lHtv1bN6+5Lxx61OvUbEiI/AU1Sva3gfevHU50QCtcuGmq3JhVwDAFq9wuRabHBpfcUg+CbD46lLf80RD7zkBS953cuz1ACyKbSDAgnFs3X9nVCqV6q3T48eP3+v3+2ZvMXbe35k44/rufBRBVhZ4OYjywFj0NStCE4CJmx/jICWBCvBEAMUhisNMXmjilvAkDcDyQRaBVhZ44bOG6ecgP3+qwsWriietRYKvaKbLghdlcblw1HbJzVN1kM0VGnNWmLfC3BXmrXAb2/XQ/BUeg6+B5eo4ag1StQrVK+yjKFuH0Sq7DMDKsg+wJFxJWOPH5OyYhKms+8/aIsxsAVogosfx56LFBidb6/hBi6CKp7ijclWtbJuhZmCpVCrVyxdVsFAp2UObKqykwLiN6sliMowAgJxU8eLmj5fAlGSCJQlKaJ0d7uD63PlobxFdx3Ey3Qff3d9xvnewG11PMh5zXvY9P70m+ZrxvuCdWd95Me05Y4Nnt8nzuBM6XiGcjroxyz0ElyCh27LQ1TT9dsMZ1+Fey564G9XI7bo9mTdr7jgeh0vc9kUP4PtQ6jvPCfOuMGyne1XAkrlo/LG+Y/x1+yDK9/5OA1hpYaFnBaw0yMJ9rfBx1CqkiIa5/be47r8zKpVK9Vbq4ODAjEf2pD0Z2D/GFp4s4MALCzu4jeM7i7HzwsISN/54c8v7YXxdWssO5mBFVSZe+SFwkjBE8MLBSz7u+HAvE4ROA01pptdBptmqPQuymK+CdybDyLNZx3k6bZvJBAnqSFVvRB4PkMPVccb1Ub8VM2UxEeTwipPLYWo37Ym4YZqNmjOuw61m3Z6IAVY106pVnTsNe3JvNS1YNdztRqUcVa1QnUKVSrYA+YpCHCdHKw8vALBk3lVaEK0PnvICVgCNZ4tp8N3HnRewfJAlAYsysgBYqGLt7kwUsFQqlWpdGo8GEUzNpkOzvzdzcDRBZMPeSetQOmotprTtOEAltfJ85pCVNRN1dGAvDy0o3bFAdbTnjOs45u7LmIdKmo2KDIhL8NH+jnsM3g/eJ9qZWW1QGuinBQJ8o2YKK6VEdm6+fU8sKJQBDTcBQ7tRdidqGNeb9sQL47o7sTcDdxuVyJ16ObKcFaLnOnnOYtQiJPjirycJHujYKqvq+P0EOAQ/BDocTijPS8IOPT6P+ffiM1dyBkvCFc8T4++PV75WiXFImvECVPXtZ0DJ7TAAq1zaNA8faESDSqVSrU37ezsOrlDJAmjhf73OuyOzWAzMwe40she2UgbMAR5ZM1JJg+VUwcoDWByyOFw55wWp0PQ6ybx1igF0abxvmhUjeEpbNUlgdZLx1IhBlW9PxR7bk5Eb90nAkaADkCLIatkTrwQsDlMRVDHYSgIrAjb6/j7IChwHLA4OErB8W8YkzTQlVZHSZqDyVp8kLEkoSgMs3/e/aMBCqCjtPUgD7vCzpw9+sO6/LyqVSvXW6qvnT78DwOrZkz1ag9QSRPVqZ2cYAyyvPdUpn7MGzeXxJMBagqX9wBFQhabjeSCK7GthZs2byWgJvvlw0h5+1NIK9m082bSaNrTGVjftWiFmHOOm41i5R8bA+bJLEWRxwMJ1B13VonO7VnKWkLUMVHHz7+WDPQ5TsdYXgw8fWKUloudpvflmorLuT7IPsOC8YMffs6/SdRbA4vEMtIIQ1Su0D//r2+fvrPvvi0qlUr3VOrBA07Un/QlAYY52oYWFed9Blg+qDvdmJ04AKV/bT4KVb3XdqoAVey0+Z0CUbG/K4fukiAqyzAGTeyLy+SDaCJtacgHMxKEJIaMw9hTkxjGCKn4/AkC5OXAFDmCKwxWHLAIsCVqRYzBVWrIP8OKgVYmBAsFaWjswC0J8FS5fdcoXo5AEcGltSd/rSWsLytcpoTIvXOUFLB7ZAMAqFm6bsW7yrFKpVOvXt988fwfD7YCs0bDjAAszWIAs3g70QpYHqnztuDyA5WsFJrX2ImBKaF/KClsSSMmYCDk/tbyqL9gAmuzbT4/DlR+qygxiCqlg1ShvxiArBlf2PglYy5BVtMcKzhKwcEwCVrNSiDkOU8tfL7/nMmTFq1VUCeMgklbFSgMPut9XbUoDrDRgSfteSYDF39s6AIvnYGEGCxWsg/25ApZKpVK9Cnrx1ZPvDgcdN8+BVYHTadeMRq2lnCYJMGnVKldhytEizDMbFYMqXoFiA/e+1+qLhOBA5Qs/jc1MCahCPIHbxJj2rUsLuQyrVhyuAFVxqPFDVV4j4JPsAy1AUL2y7cwhC9dr5a0lsGqUt53rpS3nZaA6cfCc6YAlYYrPhK0CFGnwkjSflZVRlVZF44/1QZGsoKVBEm+zXgRgYf6KKli0gvDRw7tb6/6bolKpVKpQjx8dfwi4QhULcDUet2OhoRxgCLSyKlh5htyT4IkeL++LtfJYMKfM4nKglVGlStsGCJ4gPR2bMw/qziMEevaqkalCRSBFpmMSrGSFaAmYShte14q3Y46Ol+PmwBU4gCvAFAcsHKuWNiOg4ia4gn1Qxb0KYMk5Ljk0nxdSkgArrRKW9/F5AYtah1mvV1btTlM9ywIsQBWBFoxK1tcvnnx33X9PVCqVSsV0//jwhcvV6VbdKsJoyxsBWlQlSpq9InjKE9Mg4YmvSkyDKwdMLACVp8hHYacp7T/Yt4ci36yaoIrAaoC09C5iEMrOsvXHh8RxH8EVVYdi8FLeTgQobmz6XNm+GTOOuftKy44DVwBXMK5LwKoVA8vXFTkBrOg50+HqZJieD8rT4D0HjzTQ8t2fF1LSAEsCz6qAhdu+eTIOVS8TsOgSsQ3r/juiUqlUKo/u37//PrbRaTQaZjoZueF3zGjhcjLuRTlZADCCLdcuDFfuYTaL5qL27CVM8Q+0SpHCS2Op72y7GJ+T0uTlIDqHLNn2kxAlV/7xmSoco4RyHlCJfKkgAqEYm6miChUHFGr5EUQRGBFYVYqBy4XbzqXtWzFjrz9p7P1HIOUDLG45u8VhDq9Lvh5ZSeOvn5tmwwjIZIvRzW9Vi7FsJqqwxAazPYCVtGrRB1o8dZ5S6XkifRao8Aqkz3kBKAmKfLf54/j7kkBJgJYHNuvlgum066ZmP/PBoKeApVKpVK+qAFm9Xi9M/C67nCwCrJkFGLQQMadFICOH4Gk2akdYJsHn2XYnDaZ8G0/HjgugkvEJvlV/fK6KJ5VTgCcusULOVWs8YMWrQRysZAUKDiDqdsw4Vty6aQqbN+z1wMWt6864zkEryxyGcCnbjARYHLIkSCUBVnA8HbD4KkYeGSEhKguukkAMMJXqDBg6D8DKA15Jj8sCrDwVL1TXWjWAa9X9W93dXShgqVQq1aus4+PjD7udlqnakyVWGAKysIEszWi5lYasYuSrNvm21QGgkZPiD3g1SoIU34uPtpGRe/TRcQlUckPg5VyquOU2MWTAlWuPCbCillu1sOFMQFXeuuFc2rzuTLc5OHGYKmxeM9sbV6P7cZssH59mAjnebuRVK3m/bFlKoFoGrnTA8kU7SCdBF78vE7RSKj1pc1JnBayzehXASpshA0yieoUq1qNHGjCqUqlUr7we3L93aWABpQ3YsDCCAVqsNMQAPAyYoaqRN4gzrDglWW5mnGYJT7Q3Hy59e/ZhGxUJVHy/Ot+AeizFvFEJ54gKsTkjXGKA3M04xapVWxFcVbZvW4C6tQRW0hycCKpgDlMSsPjxLHOYk9UzAJSc6fKBGIEWh6uTx24uARZBF1WwfKbZLh9oZYFYFmytAmB8YYLXGTNavpmwtO/Hq1lyBi1PizCxTdiqm7L93EdDzb9SqVSq10aHBzuu/dBsVKINZofDpun1ahHYcNDiAMUrUXkAS1aifFDFNz2mzXj5Bsh8c96koM8koJI5VahSRTDFVudhvgktOD4kTtcJrkqbN71QVdy4duItANVls3X7S7N56wtnXC9sXnH38fagD66yKlj8exFs8VYlhy+CKrKEMV7dOjl+0ibk7VEOXcsrJ9mMWm25jSgT59NAC9VEHwRT0GlWC1L+/JecowLlAywOUzL7ix4nX5sPsPK0Tt1CgkbVVOznubszVcBSqVSq10WIb0CLEPMdgCvnbtU0GoVow12CHN6uS6pE+WankkCKwxSHJ5996d8SpJaDPpfNZ6poWFwOluM2AAYwRe1AXrkqbtwwhdsWim5fjQOVNY7B27euOJACYBFc5QGslapY7PvhOsEUr6zJCleSOXidHNuIrUKkCh5VtpZWJUqnhKDK4z7YIsAKMr9OVjVKwPK1IM8DsPC6XKuRBaNGz80Ai8DwIgDLfT7Vkvv3+eC+bvCsUqlUr5WwXyHahAMLOahiNZtFB1jyf+uuasQqSjLlXG4t46tMEbDxSlRWqKOc3YmqHSLY01dF8bW4olZf8dbSCj46FgDMjbBSdTOqWgGstm5eNZs3rtjLyw6kHEyFUIVjmze+DBwCFRmwxc3BCq3DrdtXnKmVmGUCLPr+HKh4VS2pssUt58cC34qAikMmLh1cFTYjN4tbzq3SdmQKQJUhqBQN4WsvxiFry7lZ24yZjie1Fun3JAuwslqPaYBFsQxJgMXjKtJmsLLmy/A8NftZopX/zdfP3l333wqVSqVSrSC0Cfu9lhtyd6GGFrDa7XLspMdPKrRliUw6p2HzaPhctPtkNSoJoqLWSHiMTsw8tdzZE6ApB9Flmy82Q2VBitptHLCosrR965ozoIqqVoCrjeuXza2rX9jLLxxIAarIuI3jt699bm7f/NRs3v7MbG9+YYrbl50LW1+621sbn8fAavPW5SUTcCXZzXl5AIu3KpehyQ9X/sffilXxcJ1uu890eyMyQZYErNjPS+Ru+apb8VbiMlTFj/nnt6IKmMgvk06CMzJeHwcsDlNJgEW/13kAK2vfRBzH4yr2s8V/gtb9d0KlUqlUK+rp82ffmUxGFqqaDrQw8F5HS61eCZaIR3MzNAcTnOwa4n/uNA81agWm+AOs1OOm1Xq+9h03NrclVxGeyVxxYZho7QGMbjjjOt0uF65HLm1fc0ZbDu05at3x6hKfkyIXb30Zc+HmFzHT4zZuWpi68ZkzrvN2YJrl91vVWc9fKllQLF53LhQszG1bmNuyMLd52bmENqV12X42Ffs5kXG7HH5eQSvzWswnn+1y9Y8HovLWK9/yJ7rO9mKUm1/DsgUZ7aHIKpbeTaxzOgZb7DYFyfJQ1fgm12R/OCo/TjAl58wkmNFtfn/THm/Yy82tm+bu3TuH6/47oVKpVKpTaG9vxwEW4ArtCMx8AK4w/yE3/21UN5xrrP1DFQOcnPr1wPHU78KSk4ajo1ZemCiOVHLukwDP6xE4cRAgkKLjaVCVBjsSqODtG59HlnAlIQuXab5owKL3Te+dv3/3/uxtuGjvJ9iCcbsYfh19hn7YupEKWRywfFv98GgIH2glDdLHNqwOYSsL1n32PZaDFk+w9yXZ+1YyJh3zzYvJKpcPsGrYf9DefvLk0ffW/TdCpVKpVKfQw4f33+922y5rB4DlVhYCrjBgG7Z1TrZpuWVv3zZlBj1uu5aw4tAuF5x5tYIc21/Ps20MNz95L62gw4wUIADggPkmAEUIC7i+FQIE3UfHNgE2oXFbmt/PYYq8df2zyHjMBoDK47T7+GPS7Ht9qzgL8Ohx9NmRo8+MzYtxWDsBr/hKRxmQKpPpfV6Crv+fvffMbiQ7vn3vEHoIGoKG0EPQEDQEDUFD0Pd37339l+nu6q5i0XuQoCfovS2WZXkr6X3Pl/skIhEZGcckDEGyTqy1F4hEAgRAIvOHiDg72EBrDj/qKkUGWVXhSj6u9lh8VBAXwZatOT23iRAZLdnYLscKaYC1nH6uzs6PYnkwRowYMe5ynJ4eG7sGQBZWFlKJkObbtQBp1miZjYKBQzn16FBPjhztUnIjV1az8d4guWpOrrQjGOCgwEHKBU8AHLmN32ZunypqfnKwINqvNjVYkA+sQuUDKB+gzabPhSQzbHMC5CSI1pUMmWzSlyseOWgRFHPIcs1V1GDLBUK2smFVuQDLBVcEWJq3F+/Rcnlcyf4x2VO2ln7ultIvL2/extWDMWLEiHGnA30eWE0IyEIvFs2AazWaU0aqZgBrpVmuI8DKzDdT+KpnkCWBqjR3T/T8kGSpiotnWpZrY3nZDpe8V4q2aaU9V1bKBlM5VE08Lsm2j/a4Ib+D5HrOtufNpUGfLVOmAZavLMlXNNrsJbTMliwl2oBLQpSEKVdvVpXyolY6DC0REhhpC0J8RqJabxbftoKFAOl+//5PXD0YI0aMGHc+sFoJgIVeLBq2S9+2yY8IgMVLhARZlMECYEESqGSZTwJVqQeIwVSpfIUmbgFYBFm4BGBUARQf7GhgVRsfULfTbZ0CVqf31zJqrlKkBCx/v1hrpaMELTn6Rxtsvbw8m2tlpVbQ6upcwdhUAyntNldfn5TMZEnAcsFVJt2dnpcKXZYjHM4kYGHb6tpicn5xHMuDMWLEiHEf4s3rF89NeRC+WDubBrBo2XnL+Xw2z2AVGtDJJ2l+Nlmdmyn3TEk5slOmn8qxgg+AtDyT3jadXp8aNsLPdH1hcsir+sRgSfPjj1vyAdboo2RubKB4n1TYhtvk9huXB9YkdMnSo68pf25mtGQpIb26nPMVGWBpoMXHFGmAZHOW94GV5o+mZsIc5cFMbh8uDbJ45kpmvyRgoQfr0+d3f+n3MSFGjBgxYnQhYGaImWemTCgyWACszO08s0OwARbgaqU27eyfMiffOWRNhkuqzw4ZLUwPllSfepxLwhSBFsETIEODKEgDLBeg2ABLQhbBFW136SYBS9Ps5ONS+bDQBxYAWCTp26WVDksLFZZmjGyg5fI54w7zNmAKkZw3yR9HNt3Lpne5ClCW/mQmS2tmzz5Xiypg7e5txuxVjBgxYtyn+Pjx44+bm5tmJSF6sTbRcJsCFLx/4GO1sVpL1pamC03uRk23cwAWpJX4uDSLBH5C571T7ZTI5icHcs1NPKos131r4w9NGdCth0azY78XRNtpv9mxRwX5H7c7qlKCVPchOGWrKucZiPHVndIOIvPZKs9d5CVEuTiC92rRzEiXuA0EH2ZN4k70qhz9X1kpcdEjtw9XY2U2Odhp9XoBquDxhs/dQvpZur6+Huz3sSBGjBgxYnQ5nj171hwAvW7c3Wn4Lk4EACyoKmDx/qkFxXtKZky6CVjtQpYOVkVAahewOFTNjD40krDViXzPz9Y/ZmveL8GWB7DqHsjyrUJUF0ZYViRq4jCVQxX33mqO97HJ1tvVLcDaghu9caRfzDNiMO9dw+9JP3tfvnz5od/HgRgxYsSI0YNAozsMRzebYz3Q2GvKJilc4cSwUjD9LAOWBKqST5PHC8oHWH5A6B5gFcGKoMkHORlQzYz+VlBrewZV0yO/F0TbfeoUsKoAmApaVGptLiigPi4OWLKBvgDcyupDrVfLBWCuVYnaCsWCFYQoD2rlQhdkdQpY2426WUVrvrTA92sj+6ytpL/7yeVpLA/GiBEjxn2Nly+uTAYLZYts0G0GWICrzbW50ipCDljowSot+xdeU75VbhKuZAal0wyWhCafZCYqBLAIqqZHHhhxyCKgmhr+rSAJXDZ1CmBVAE0DLQ5YWgbLZpqa/19YerVc0kqJmou89F2TI3syJ/nwXi0NtHyA5fXgSj9DKLVTbxcyWBgBBR+6b18//tjvz3+MGDFixOhhXJwfs5E4Wa8IvnmvY+YfG2VjMlkLtRJglVamMXNOedKWGSqCK95o7oeqImC5oKoMTG7JTJQ/y9QCq6nhX404aBFQTQ49KEgCl00+AOsUsDikaaCVLw5o/u3yRnmCLI8RakhjvAuwbBktAiytrFiErAWnfIBFMxPtcgMWPkPms5Q+pyyLtWjK7s+eXsTsVYwYMWLc9/j08e1fjw53mm7u85n/TxOw1sz4nDJgAa5kBkvNXAX2/HBvqZDeoZZc5b32oIoAKZMvy1SEKwlZPsCS26uCWKcZML6PClm0crL5t8vhmeYxesRtHuYVqwdtBSqHLGlmKmFKrlKUPls069Immz1EKGD5jE5RHtzbWspMVdey37m9tZZgJW+/P/cxYsSIEeMG4t3bl3sHuxv5t3+UNlAmXGt+08eJQQMsOcpGApbPZoCDlVa68gGCDahkL1QIXBXBKgywCKgmh34pqAVbvQWsTgGM78MhKwdYspygv1Pz70qjeWwjiFo2EEWbB1tGy+atJXu3JGBp9g9cIYDlhixtQHX4sGp8SaEmdzxv/M6XL57E7FWMGDFifE9xfrKfr+pCk7v55p0PgXYDFs9iccCS/lMlrygBV7KvyAcQ/hKfXxpYSUCyq7eA1SmAhd7fBljk9ZXbTTR9tWj+oQ+watMjRi7IgmSWy+axVQWwkNlCD6FLLqPTzG+rbANRWKXoG9eTflEBZMH6BK8Dn6P/xrE4MWLEiPH9xdHxXrKMk8fmSrLeWEpBaylprCzmZUJqLF6qTxh/K3Jn14YUG8ASzeqyFFjMXDUBaSyFnNFfMykZlwJAjD4wmhj5taDx4V+MXLdBY0M/OzXy+J9Go4P/MsI2ui8ei99Gt/N9+G2axod/Nhob+pfR6OA/c408/kd+u010P7vcr08CoWzSJ/gqZbbo78gGTEN8+DQ0kwKZNpCabDpmZ1uq1UYKmpsbTaFkvCD83xU1Y2ZkmjmZTSsRWvUKUQnRZnbqW4XoA6x8P2ZUStvwWPgsQSur9aQ2N5Wcnh3G7FWMGDFifI/x7d+f/nh4tJPUF2YMYAGu1pbqbOAz9cZMZCe8QMAiyJKz/DTAyuEqldYzxOUDKNv2bgAWZAMsUlXAkpDlU7cAiyBLroSUKxZ5j5aZhWgBKwlUtn18sxAXYPcgIKsIWjNOyPI5yXutHhSfLa6SLQSDK9N3lX5R2dltJItLtWR7p5H857/R9ypGjBgxvtv48PHN3wBX+OZtslfLCzlgtRqSx9MTWjbEWTUYbZaLbAOX9d6rcgaLG3RqkCXhygZSNqDyAZAGWByy5O1yP9/ja1Aks1gudRuwOGRloFV8z7O+NwZYU24VyoXUv4WsVlPSeFaC1oLx0iqqCFpuewcbYFEjvMtPq6o4WFGmF5mr1bWFZD6FwJevnsbsVYwYMWJ87/Hm7cu99cZyDlgoD2Z9WLNNyGoBFrJYmuEoAZbN68qcoAtZrBZgEWS5slcaYHULrGyAJbNUdLsNtEIBy5ah8gGWP8vl/v323jGCrfKqRPytCJBnJgYKwCQlgat0O8twabBFo5a4irA1aTUy1Ty0QgxLOxV3pwdYzc1PJ4dHux3D1bevn//w8cO7v7y+frl39eQiOTs9To4O95Pjo4Pk5PgwOT87SS4vzhLc9uzpk+T5s6vk/YfXP339Fv22YsSIEeNWxbPnlwawVhbmTPklg6y5LDOAUSgpYJl5c80yYWEGYbNMCKd2kubYXiwXNlcDjjPI8vRgueDKlrWpAkA+aJKAVRW4qgNTVVUDrLIelJrgQw1LXbYbeSZTrjoUKxO10qEGW7J0aOAf/58Ws9Jeiby7CPbGJ4aTldWF5MuXT38M/dx9+/blhzdvrgefP3+awtNeQtMWVlcWkuWleTPDcHZmIpmcSL/E1KaM5uemjerzM+Z2ErJnW9tryenZgcmgffr87i+9PGbEiBEjRozAONrbNpC1OD/dhKzsG3p28poygEVlQjmTECfIpdlRIwlZmsFo7mc1kUEWFAJYLrDqJHtVJcNFGh74R0E+ABse+HtJVYDLl+Hy/f6JwZ89+tVAlgZYmqO8BC2XiaksMWqwpWW2NNiyg1ZxJE8IcGklRpvk4xFcIaOGVZBTUxPJ1dWlM3v17/98/sPbd6/qV0/PEywy2dxaS5bSLzPIfMGUdDH93NXTnxfQb4b+MmSSA1VfSAFsfiKpzY0n8/Vp01d5fnGcfP7y/s83dAiJESNGjBha/Pvzhz9dnh6Z7BUAi05CBFgwUqQyIReVCZdrYzlkEWhpZcMMtprjbiYfGhnQspzQqWToKwf6yoRVMlB+WMqgaujR33NJ4JIafPiT0dCj/8mlQZdNvQYsbucgTUnN32T4d6PZkYdGZOsQKueg6amh0ipFVwlR69Fanp8qaCWFDC4bXOWLOQIBixujAq7IfuLk5EiFq48fP//45cu3H46Od5PtnXXT7ziXPr/a3KS5BAzhEr9jcTGFqxSU6vXJZD6FJWguBaZa+tnCNgi3Yz+oYLy6lmlpZTqHLSxgQWZrc2s1ef8+glaMGDFi9C2+fnz3FwyCRqM7z2BBIYDFIUvLZLVAqzm8eepRC7KUAcUcunxlQd/tvQYsnx7//v8aSdAigOLgpalXgDX++F9G0k8LP/MVhdNDvxUgC4DFIatgKtvcRvuY/RR3fw5Y2mpEDlrztSGj+tyw0cL8iNFifdRoKQUWyAZaLriCCFpskgOrKXNF3l5fvxY9r968efe3g4OjZGNjK5memksWFmdzmAL4LC1n1g5YdYjtBE4EdPiZgxYBlk1z9RQ6lyYNYC2m988gKwM487vn55P9/f3kw4cPf+rT4SVGjBgxYmxtbSQzs+PJCkaQbNSS2vxwsl6fS1bnZpO1+dmksZBuT08Sy7UJA1Wr6QlgoTZsVJ8dKmh+ZtBIgpbMamlgpWWyCAJQ0qKylrnOSoh6T5a+ai/PEg3+o6Chx38vaHDgf5x6/Ognp0LvL7fL34+f+XOU+9nkX6XYAlVtQcHEyG9Gk6Pp32DsodH0+CPT/G7Esls8y5VLwHM+A1H06NkgzGXzgKzW/PxYrno9Bf+FiRRSJnNRKdFmA0FfJKCyB1dWgiRDVPoZhqpYUXh2vJP8+9un5PX182/opVpfW0oWF2qFHimU/SCUAbloO7zAXCLQsmpuKheVGQu/LwU5ZM0AWyen+wlsWvp9nIkRI0aM7y4+fnz/5/2DLdPPUZsfTVbWplOwqiUrtczZHZAFwFpFlqCZtVqcG8lFsMVlz2bZvbO0gcUcsrhDOYGA3aqguIrvrgEW3aY9L9zWK8Bq+Yy1AIsgC4BFkiXEEmQpgMUhy1dCdPVnyR4tDZ5089IWdNm25yVIBljIYFFpEJneg91105SOxnM0pc9Mj5uGdFyHssb0Fvxw0XYfYFHpkLJaKB1S+RCSgEUi0FpYnM5Lk4Ctre315MnVWbSTiBEjRoybDqxCamwsJzMpPOHgvLY4n6zUa8lSerKATNkFWaz6hCkTLs0XxYHLSFll6LJ2sDnBu2wcOGCVzUDvPmBpt4c+fhXA4pAlAUtCVg5anuHT/G+oZbFsYJUDlrLyEMpNbz09WnRdgyibyalmE0FlQQjXUXJEFstAUm3SCGBDmSNcn5nOIIigiPdXtSBpxCmeraL7ccDi27QMV9b8PmlKh7O1iWRyasQ01x8c7iRovO/38SZGjBgxvquAtw4ac6emR5P1pXoTsmYNYKG/BYBFvVkk2aNFqw1lA7wELpdJqc0Rnp/AQzNYVsjqMWCFygdYfJ8qAOf32Sq71xf1QIWsHLYsQ6dlszxfbegrCxZKyMrqwwJseSweeHZLwpX03KJtXDQ7EZeYuYifaXWiga9muU9mkXLwUuYz0nXcJnvPyqOJhkuzHvksRznnUWp2dtTAl+n1Sp8rnhfAD9k12EJcv37+LbrPx4gRI8YNxtu3r39qNNaShdp0Ckx8TMlMs2F4KjcidUEWNcHLZniSK4ulScIWz7joze/2LJaBrFsOWK7f4XtuVQDLtmAAgEXioGWTBDBtyDfPYvkgy7ePzGwVslsMuni2ikCKA5kEtXyW4tRwDjcAHUANLQQxoJOCCzJFAJmZ9EsDAQ01qPOypvxd2ePrI4hasx6HjDhocWDj5VMV0mojyfT0YKph85zMikX0fjWzbjBKhUlq7M2KESNGjBuMT58+/XF1cT4FpRnjkwUrB5RFcILJjR6FOHBBaIQnraQnHi4Al82kVDuxEnxxwOLDoCUgZNv0Yct3CbC03xMCV6GApWWxWtD1IEg20JIlQy2T5cpo+fbRvLUKagJOOTM1Uurv0kBlemKwADUALFqRaHqzmhYL3FoBAmhBhRWRAt5wG4ZluwSw4iLggvDcfICG14rHmZ4YMK8jy3oB/MaNUDKcnhlLNjZXE0x36PcxJ0aMGDG+m7h+fpXsb2+YgbvIYG2s1XPAQhZrbXG2JFNCbGot/RYvxaFLZrdkCdEHWVNjvxlpQ6Gx7a4DlpbJ0m5vt8ndNoNRAtbY0K+6cBvTeApXXBKwuAUE/R1dEKXZQUD1FC4gG4jn97dAlCvzU4SU4RysSHxsz9TU42aGaDCZmRkqaHZ22GqyStvz1ZgW1SZTsJoYMpoZT3/P2GOjqdEBI7m/HGE0N5u+hukB87oywBszrwlwNjM5YqwjxtPHHkkfC+anmO7Q72NOjBgxYnw38erlU+M4jd6S1dU5M0R3eXk6WVurJY3luZLWl2otpd/uuVywRVktDlz8hMtXHVImZHr89xywCLLoZxdgEWTddsCStgz8du35VgUs8gKzO+PrYDU6+ItRCGBpsw41/zO1LMxNSwVkGSnwXSgpe3qc7GBF/lxZ3xXNQKS+J1xiG1lEoBQHoAJYEWyZ6xMPjWYnHxVE2/mKTE0EUgRWUvjfx2cA4r+rNjVgBLiannxoMlgZZGW9ZPS6kL2iVYbTM+PJYvo5v7w8j5AVI0aMGDcVGCxbn4Wz+3yygZlp8zPJTmMl2VldSrZXFpOt5QWjzaW6ucQ2aGNlviACMJ7lgrA6EQ30ZBy5WJvIpDTE8xOpXJ2GS5zEydJBGmmSj9b441+MZFZLGoD6xuL4nNh9RqJ8H82M1HYfm9N7VSd4bcg1lVd56ZWPIOL7yBWc8nFkE3zJKZ4BF1/AQAOnbfMQXZmvkB4uKkkj24O+LTLOpYHVuDQ9XcxnS7NRsMEZlfhsQ7Ap4zQx8SgZH3+Ya2zs92R09Ldc8jYu3E4/8/0gPC5EzwOARcpKj83nOjFiND+L7NyUyWqhCf70ZD9CVowYMWLcVGCkDhresaJwa20phaV624AlS4nkvE2QJQGLQ5YsFfKTLZ2otbmGErIgpwnpwN+98wa7AVjaftr2UHhqF7BkL5Y0cfX1a7UDWJrfGdk74O/pWo0oIUtrhNcyWwUj0+khA1Y0XxPXAUC0XQOrgpWCB7BsYEXSAIrgamTkgQpVXPJ2CVocrKaQFZOQlcLVzDj6u0ZNT9bU+FAyOjJgstX7e5sRsmLEiBHjpgLDoVcW5gxgba4u5kJWi6t1W70gCVm8b4sAi2eytBE88sSp9WfJ0pQNsvzDlqsPc25HriyVC5a0gdCdApZN2j6+EUY+wKIsla2MaOvh4vd3NcFrMF4AsyZIUQaL+qOQvQJ0qVDVLAeaHisPYMnsEYEOSYMngBVJ2wYND/9q5AMu+j2TYw+N6Do9F/R2mXLjxGBeOpxM3y8IqyJ3U8iKNg4xYsSIcUNBkLWzsVaALClA2NbaQkESsjhoSchabjrGy1mH0j9Lc4aXnlk20HIBBYcK28zCTsFKK+v5gMoOg2XQqtrkLl+nD7C0UUU8A+YDLPy9zGIFtp9rALjMZLksPXwTAszjozdJaULPTHTHSyv/ZGO8C6wIrjhQcdiBOBxJeLJpaOiXXLgu4UuWGG1ZLpQQ0USP5vnJMTzPx5kVRHM1JKwdsMoQnnifv8Sh0TFixIjR8/j44d1fthurydpSCktri7k215dK2l5fLMgGWbxsyMuF3NJBrjTUXOFltsIFWZDdYLOcmdEhy9dEHi4bWEmQ0sxTbZBVFbDoddLr8wGodH6XjvChgEV/F+kGr0GR1iDvk5wGQI9PzvQctKgnC4DlW2moWSvwbBWHKdJE+jtJWlaKA5TU4ODPBUnY4rJlwHimC68bzfR4LliUYLJczZWRk5MDpgF+LAWwre21mMmKESNGjJuI61cvni/U5wpwtdVYTrY3VgraaSwVpEGWzGZxyJIeWjKbJT20ZM+Nlg0pjtpxG2e6eo26AVg2MHJlqlyAJR8rpAQq+6o4ZLlMSCFujyHhCrf5AMs1Cgn388GW1selSYI1/Q4JWGRUCsCCfJkqV/lPlgC1PiotMyUBSkIV9Pjxv4xcwGWU/h2khtO/CzQy9lvuYVaAwBSsAFkQRu1gogMyWRubK8mHj2/+1u9jT4wYMWLc+zg9OSrA1c7makm7G8sFaZCl9WVJHy1p5eDqzQoZs5OfxJtz9SAyxyxC1q/WZu8QwPIBjg+wfBksXxbL93upid+2MlAbBM334fYY0oMsBLC0VYRycYJrFI+EKC1LycvCpefT9I7ivVgQQIv7VdlWArrKf5DWmC7LgRKsCJ40gJK3S5X2T/9OpMdDresEWrDcMJAFU9hm4ztlsNBjNoIFB3OZIenQ8MNkLf3sYl5pv489MWLEiHHvo5HC1UYKV5vIWG2tlQSo2ku/+YYAlrbCkHtnSa+sKoBlhSzyG2KQ1cpelbMz3QYszfyU3xZSJnRBVhXA0qwZeFZKc83vFLCo50qz2LCJQ5NvMYPt/rQ/Bysa8cRXE2riqwB9JUAbWJFk+Y/D0sDAP71whX0gK2g1wYqLQxb8s8zfeiT9W46n790EsmwPjCYn09eSfp4AWRj+jkwWIGs9/bx//fbxx34fe2LEiBHjXseL50+TpcW5FLJWksPdrSxrBbhKIepwZz3Z32ppbxPAtWr8s7bXl00TPF95CNsH0vrSfCYDWZnW6tNGqxg4bfqzJlvjT5orwAiyyOl7cWo4WZgcMjLO3+Mt88ra6CO1/EQnapyMR5tu5dw8E9exfQRGm4r5Jmnk8c+535ZN3DIi9+Ya+DmXbKqXVgm+Hqmx9OQ7np5wJ9KTLRe24Tb8XgkutMoSzwWv0yVpLApxwPCV9FBWw370HtNKNwMnAU7xkymYSNHrM6+bwTL9TfC3AkzXmqNk5HxAX0mQZ6q0DJWEKK2/Spb0OEARND169I8SSNF20sOHfy9ch/i+BF8S4uh3y54t3reVvbaHRhMotwOy0s/XSPr5WFubTz5+fFXv9/EnRowYMe5tfP704U87241kPYWlva1GsredwtROIwWq1aZ0yAJgEWS57B4ai7NOyKLhvbTMnvqxAFYkG2BBLj8m0wSvAASd7Eeb5RUpDl0+wJLZFQ5cmY1EsbE+xE6hUN4j0FAAC9KyQvy5aK/fJg5WVQALoEKPQaU2Dl0uTadAAE0N/2rEIcu8zubfQ4OrBTGbUAMsbUUgz1SFwFU3AYuDFZcNsugxtAyYD7CyVYgDBq5wCesGrCwcw6rPFLQw1eHduw+xXBgjRowYvYqnV+fJWgpHsG042N0wOj3YMiVBQNVBCmCQlsWiS4KtEnAt1QxkkThkQZiJuFSfMKUd+BZRb9byTCZbA3zoajO9L6s81Ni6nwAmKa1XiJewZFky1LMqb0IXwEGi7RpYFbaJ1+cT72mDvE3pgBbW/4ZyLW3T3l+p2bFMM6O/5aDFXy+yjMMpWEEAYoARAApQjv8bOfxZNrXz5nUOVgR4Pp8qXxO7Vv6zARaHq99//x8jH2gRbMksmJbF0gBrePg3A1TIWkGALMAVtuG2RqORfP78+Q/9PgbFiBEjxr2MTx/f/hUlQgDW4d6myWBdHO+a3iuCKxtk0SUvGxYga3nOCKDFYYsyWhg4DchabkIW9WYRYLkMSjWvJNmrxXu0CKBsMMFBIZejF0jCjNbETeUtrQyZbXMDliz7UUlQ9jDJ50G/X3uNLslZet6Vf9Qs3rwv9Tbh55D3mAMWQRYAi0qgACwIcGUyashcpXCFzOei4nNFcEVZKz7KhsqBviwVByobXGkN6loZUMtcAax+++0nIx9ouaAL0mweOGgNIos6+jCHLPxMkIXLiYmxZHOzkXz58umP/T4OxYgRI8a9jIP9bVMiBGChBwuAhRLh4c5GQRKySByweLlwa2U+l4QtSAMsaGU2E60KQ/nQjD5prg6jFWIadEnHb+mnxXu2fIBly1D5Mlfcp4n3ERXKj6Yk6fbx0gBK85uq4qTusk6o6k/lG3kkoVf+HQBUACsOWgAsA1cpXFAfFzJPHK541kpmrrj9ghxhI8t9NgNQl4eVDaq0HitZEuRwxQHLBVoy48UhS7N44K8JpUESZa0glA3h9D4+MZSMjj02ju/9PgbFiBEjxr2Mi/Pj5GBnMzna3zJ9WGeH26bJ/Wh3syCCLAAWlw2ydtYWku3VupEELWh1adpA1koTsmiVIeBqtTaerwyjWXMEW2aQ74xuUurKbknJjI0ELh+gSPsBCT52+4jfmtt+dcr2e1zAxGHHl4HyDWD2yZdR9GYYGWDVxh+aS5QJKYMFMDJDj2eGzMiben3czBeEBQGsCGS/lfSzGh3/3QieUbA1IC+pfCVeoBGoqwzokgQoDlchoEWAxfeTkKWtPqTnDbBCFmto6IH5GRksZLIAW2aczuxoMozr44PJcRwQHSNGjBjdjxfPnxjAOj7YNpCFHiwXYFEWS5YOZalwdz2DLA20oLXlmUwArYWWncPaXKa8RysVNcTzvhutfFjQ+ON8RSI1yfNGedcgX+OxFGCO6TLNnBodMJoceZQL1838uFRkh2DTzOiA0ezY44JouwSrEgCNVxd/v2wjjUi0AIEWIfD3ufA4ygpQo/GHudR+rMmBDKRqrcHN+BnAhe3eJvYmXHHA4t5SNrDSfKm0rJWthEd68OD/NbIBlQ+06HfQ42Cbq2RYBq0H6f2x/Zd8RSHgKm98n36UjE08NJA1W5tILi7OImTFiBEjRjfj+tWzZH97Izk53EnOjveSk/1NA1jHe1u5CLIIqCANung2C4BF4pBFoNVYrSXrK7PJehOy4JsFNeqZTPmwKQ5ZBFp8viEHq3y2YfNEL0EgP9kLM0ppSBlaIrNlaQiwuABWmB8HTaUnfpc4YNXS/SEOWJTNIriSGSX+ujVZwaoNwJKQxd93CbcEWPUpPOeBAmBRNmtu4lFumElDm/Ez4AoyP4usFfexMk3sHsDyGYH6mth9Deq//vp/jThouTJaVQFL/m4JWshWAbIAVRBACyVCZK9Mdmv4XylgpUCbfoaGR9CvNpq8ePHieb+PRzFixIhxb+L69bNkZ7eRnJzsJMfHyGKtp7C1kZwd7ianBzspcG2XslkEV1p/FoGWHBYttZECVqMJWLik6zyjpbnBk2T5kGRWJLLbeFmRO37LWYi2AdSQsY9gMEez+CRc8fJZbQpZskcFzUw8zEUwQUAB8YwO3w4BRiCACUSPg98zN53+zpkUbGaHcuE6hNsg/nxwP7rdpsUUZFxamB50ivbBc+avgW6rzTw2mp1OgXHqUUHYJvuseMYKZUGUD0m8kV02s7tWAtr6qbBN86bifVH8umxq56U9EoGSLbMlxQGNlwhdmTO+ylCWDWUT/PDwz2YbMoWAVmS2MCj62dPzmMmKESNGjG7Es+cXyd7+ZnJ6upscHW0lxweNEmDxLJYGWRpgacOiuTbX5nKoIsCCAFyri1N5RssGWQAogiku2s6BS1VzlaJtADWBF8EVZcywDTDFwUxmz3AbgQ0XIIekZt20UqfYhx7fZNmaQ44L4CikLRKg+7gk35/y++UGLP5+8ddA76VmrUDCNultZQMs30rBdgBLWw3oAiwOWdqKQQ2y2gEs2YflAyxu6VCGrF/Ne2bKrSlgkV/WzvZ68u7ty71+H5dixIgR407Hf/775Yez88Pk8GDbANbJ4ZaBKwhwZQMsfp0AqwxZxRE7fMyOUROwSHSdSoaNxUw20CK4Mg3yC5N5szzPXtE+dPuKsmqRj++xyTTfN5vwCRrkTEUSbV+oDefimSXKLuXGqhbQAwRR5o2LAxNd12CT7Ax4WZUbc9qALFzDTrkyiLhNs1mA6LoLsIyLvCd75fOxsjWth64I5CAl7RV8De5VAcuWxZJlSl4ilL5Z0jsLgIX3joZDo4yIPq3a7ESyvrYYs1gxYsSI0Um8Sb+pAq6Oj3aT85MMsM6ONpNTAVgEWVJaA3wLslbyWYZ8jiFB1tb6vBHAisTLhhtLLWmwxcEKGa/V5orEAkQ198FtgLaCBLBpZUhI3k4wRrdLUJMZNi4OKBzeNNDzAQ6HFXqtXEtMiwpwycxfVVkzgwz2bNnEJfZcJPhJA1GbKzvPXMnslQuuNKsFG0xp7us8k0TwJG0WQlcQtgNYNlsHCVlaVotns4YwL3PkQf7+Ua/WxPhQMjkxnH7hOo6QFSNGjBjtxtWTs2Rvd8M0t58d7xiLBgIsAispDbJkqTBTNnJHQlYOWilcbTfquQi2KKO1tVJLNpdnjSRoGdhqZrogAiy6TrfRdrqt0O+1WM6S+eTrC+NA5oOS5dqEmckI8RmNEG5bqk8ZLc5P6kr3gZawP+5bnzbCz0YL00b0OFK0v010f5uWBMSVpf9eEj032+sDZAGweDM7wZVpZPfAVaiPla1h3QVMGjhp0OUqE7YDWLaGeJ5F01Y56pD1rwKIkn0D4Gp8DDYO48mLl08iZMWIESNG1fj65cOfjo/2jDUDAAv2DOdHOwawzg+KgCWzWRK2tFIhBywOWSRA1c7GQrK7uWgucZ1ns7ZXMwG0NNji2S4OVrxhnt9Ot+GxDczxx1KyZZDcnq90VEqXJNouy5JSBFV8fFBhIPbiTEElyGFQtbowU9LSkltri7NOyd9ffj6TTvnuv7o0a39tqQBYKA8SVBFg0fxDDlfcSNRnEqr1WWnZoBCDUAlMfFs3mtzlffj9fJDlA6yRkV8KQEqDoQFY0CgWcqT/z+8/XA/2+1gVI0aMGHcqXlxdJEd7KTwd7ZqG9uO9DQNYF4cZYAGcOFy5IEvvx1pVIYsEoAJc7W0tmUvKYlFma2dt3sgKWs1MF4GUbJb3ST5eCeBS4TrtQ1CFS1tmjd9PgxYOQI2FOaONxfmCaPva8nyu1aU5o5XFWq71pXmjxnK9JGxfWda1ulI3ovvbRL/TrlmP3Pfnr42/LrrdBVhmaLfDpT2kmV3rq9JKbxo08W28EV1uk6KsFOQDLO3+XLYMmq/5vdWL9XPe9J5BauaVhewVAGti6qGxt9jeWU3++/99+aHfx6sYMWLEuDNxerhnDEYvTg8MOMH76snxroErDbD4qsKwLFYRrqQoe7W/vWwgC9c1wNIgCyKY4lkvbWWi7Tb+WBpoEVxxwCKIwjYN+ug6bmssl7W+VMu1uVQ32lpeKIi2EwhBBEfLKXiQMI4IIud8OapobVUXGpghDcy4bICWP5f09ToFcLLdN71tHZCXigMkhy/0ZwGwyJmdAMuYiA796s1ehTS0a03pNrhyARaHLA2wOFhBv/zyfzoGLM1HSwMsbUg0NDDw96Zf1oNmufWR8c0aHUmBdnLEGJFOzQwYnywshOn38SpGjBgx7kRcnZ+YkqBb/syVbHbnOtheK0n2ZPGMFi8harYOJR+tlXkjWpVI26nPi7bx1Yu0f8EuormdS9um7eOS3F9CFt9XPvfs+ZdFUAVR9srMfWy65xeGbbch/vg++QCt0/uvppCKmXk03oWGFFOmhUa/wDwTYECz9jAeBqaaIUOZtWyVbGKXvVQccFwZKh9g+TNU+B3/1+jBg/9Tkla25K9Fs56QkCXFM1rZ6sIh8z7X56eT19fPv/X7uBUjRowYtzreXb94fnKw21XA0iDLB1iaOGD5JIGE93fhseTt+epFBdY0QPIBXlXAkqDlgqvs+erAxAGFMljtAFanUFYFxtoBrLW1+aRen8yhio95IejCdgIrDlsZZNnhygZYtlKhazWgDbJcgBUiCVe//vq/jVqQVe7HcrnL21YT2nyyIJiQGuf3scFkc2M1+fb18x/6ffyKESNGjFsZH99eDwKubhNg8bKhbIR3yfYYEH6PXLkos2M2aCP5fn/VDJsL4PTnsuSEIFkerCqMMyK1c38fQHUKaOvrGWTNz08YmAI84VICFn7mIsgKASwXZNlu960OdKkqYEm44rI1vYf6ZGnDramPjUquKMMiizUy/CgZGx1MTk+OYqkwRowYMbS4ODlMdjZXk8uzw44BywdZACr0dZE4YEkY0hrhbb1b8n4ucWDjj0/A5cqe2bJspCoZLhdI2RUOQNq+fJsmzIwkydtC7t9JKTIEsBqNTOjnQqmQlwZliZAyWHQ9NIOlmYj6xtGQqtgwtANbEq5++eX/MQoFLJ9PFu9P00bqTE4+zPuzAFljo4+T+vxM8uplLBXGiBEjRiGePb1IDnY3jC3D+cm+GersUghgub2xMrA62m2okIVLW4YrBKBof9/t/PGwjSBL+z2u/jCpkBImhyqZffNn6dwApG23AVSofFB104CFDNbKSs3YSszOjuYlQWSveLaK92BRidA2xJlgqx3A4oDWjploLwDLB1kyq8WzWNpwa4KsDLAyKwe897Mz48n42FAsFcaIESMGDzSobm+tGbh6cn6U7O+sdRWwdMhqGOsHEoEWwRQHMAlhMvulyVaCJIXux38XhyxfBs0HYLZypm/f1n1WjWwQxG9vB6xcj30bAAslQsAVBNBaXJzO+7FQJuRwRYBVhK7yakK5otA1DscFV+Qz5XJt98GXf5Wgu0SomZBWcXrn74OcW2hWZA7/MwXZB/lInenpzIB0dmYiOUg/7/0+psWIESNG3+Ptu1f1o8OdBIB12hyJc7C73nPAko/HIQvi8MUhjPahn0OkwZR8DLpd7iv3IcjSwIzLB2A+KJPbbIBlAy0aScQhq52slQ2wfGXJjjNUPpuIJlxBWFGIS/RjoVwFwJIlwnLpsOzozoErZOZgCGD53N7bH5njbnK3Ob3bAEs2u/tWGD4e/HsyOvZLE7J+y8foTE+NJbXZyeTVq1f1fh/bYsSIEaNv8e799eDO7oaBqzP4XR1tG7gycwe7DFgSslqPs6VCFn7WIIz20QDMJglaHOLocTlgYV/+M38cynD5oC6kB0zzArM190vIIniyQZYLsLCtSg+Wlr3qeQnQA1goCwKsIPLWAmTNzY3nc/MIpmiVIcCrtbrw10SbSdjygQrrx7JBlg+wOp1J6LNpaAewtGHQNsgCXA0O/cMAFoZqA2KzDNZ4ClrD6d9jOXn79u1f+32MixEjRowbj+tnl8mT00Nj/okTMS7JOJRMRLVxOJ2Ig9bJwVqu4/3VkszcQybZZO+DOdvvdXlzcdH8RBJtp/trtxWb+BsFtWYwhisbil0UwZS28pL3jO1spiC0sZRrd2slF26TcFZWC+q4jUXLZqIz64WNpVouuNjD+2ttuZasr8wFiaBKjvhBqRCanh40mpx+nExMpWA1mYLVRApc478ng+O/5Zkt3pvFlXlllZX1b/2aDAymUPX470YPB/6nLE+JUMKNNC8NAS/tsauO2uEGpNoqSWlGSpLWDVhRiFIhYAuamh5NGun/z6fP7/7S72NdjBgxYtxYvHv7qn5xvG/gg4CAYATwACDoFLBsY3TyDNZBo6Tj/fVcErAkZIUAVpWSpc9WQgOwEEDrFWhp/WKFFZJNkAJcGaBKr+9tr/YNsEpGo024Wu8QsDTIgmq1kWR2djiZmRlKpmYy0BrnoCWsG2ygRUDVMijNNDD4rxSu/mn0cOAfBZntjgZ5zZPKBVg2yLLtEwJYIasLqwBWViZsQRaGQc/WJpKrp+exHytGjBjfR7x/dz24JzI0AAqCIMABTur9ACwuzD0k6bAVli2zPf/qTflu4ArNhEngcskFWrber7zsyGCqW4DFIatTwNpkrvVmDuPSrAEs6qnCzy5p43c4YNXr40Zzc6PJ7NxIMj07lEymoDVBoNUsI1LJkHtmSVuHokFpC7AIskpw9bi65UNVwHL1cIUAllay5FDlgywXYEEArKHhhwlaEPp9zIsRI0aMnseL50+Sw73N9ES7bi2DaeXBXgDW6eFGQWdHmwVdHO8acdAqAteuU9pz57dXBTQJWr6slwZl7YKWBltypSVf6Wi0s9aCqSZcVQEs2VQvRwp1AlfZGJ8WYNEAaOqjMpDlHRZd1sriTK7lhclkqT5RgqypJmRNjbc0OYYZho+S8ZGHuTTo4hmux0M/G/FMlgGrJniF+Gpp20J7tCQYtdcob59R6AMszeGdIMsYkE4PJ8Pp+7aS/r+8//D6p34f+2LEiBGjJ/Hf/3z54cnlabKxtphsri8lZ8d7BXDQslnd6sGSQEOPJzNSHKAAVpcnezlkcbUgyw9Y2vOAzo/2vBksG2y1mvTdcxd9GTAJtz6Vocu+EtLYS+yu50DVL8DSwIpEgIVsFMGVyUI1xWFJkwuuIMAVtDifARZKhgRY0MzkkNH0xGAOWQRakGZcyjUEw1KAFrJa6MlCZqv5s7nugCtbY7xvPA+HKNfw6VDPLXocDfJ8pULbCB0asD0+kb6nU0Mmk3VwuBOzWDFixLh/8fbNy73jFCi2N3CiXctNPgkSZBM4AUCngCWBhoMWBywOVQRWNhVBa88pF3zh9naBUcvOaVmubpUYbWVGn/fX4V7DZLEIrPBzIatVEbBo/E9rXqJ7lZ8LroyavVRU7jMN6kwhgCW3LS9M51pKwWpxbixZSFWvjRZ6sgBaten0+tRwCbJcgMXLisjOQARaJFyHXC7xcmWe5r0VYvMQOqYnpMldexwbYEFyKLScUzg6nmWxRtL3Db1Y16+jw3uMGDHuUTx/dpnspCdjZK0wAgeN7YATZCM4BHCQohN6p4DlAh95O57X5cmBEVY2ZtrPpcPWvlNVgEuTCxi1/aoCVjtN9kXQcpuqArCQxSLIqgpYclxQrwAL5UAA1qIALA5LmlYXZnKt1KcLWp6fMnBFAmARZJHmpjLVJoeT2YmhZGY8hazRAaPJkUcFmJK9WkZjj1N4GDAaHnlUks1fSxtBw7dVsXnoBLA0M1Na3chH/dggSw6FlrYXI2O/ZQsLJh6b92prez1msWLEiHE/4uL8OGnAryg9WcJAFGNwUDpq+UltFewE5Em/G4ClQQ/PIvF9OFxdnR0VAEuDLB9gSdCSUOTLgLmycTIj5wMsDZZ8gOUDLVkS5M7zxiB1fyMHLK5+AFYJriyAtbA4nWnZD1gSqgisSBywFppCqZA0Pz3qBKyJFAzgm8W9s3hP1li6P4esklg2R8IHJAGFIIyyWb5SoXZ7lTIh9sXlL7/8n+Tnn/+3uQRkYTsf9RMKWCXIGn1gAGtufiKFrKFkcmo0efrsIkJWjBgx7m58/fLhT8cpUKGRfX+nYQS4gtDgTnI1bofAlQYdWkaK5MsyccjKAOuwI9mAjkMRbdee7/nxVi7ZgG8a8wMa40MtIbT3OSQDBjDGikI0vfNtACQ5S1G62LvG/fBh1XJ2Iq0i9EEVmYCSy7omvvKPrwSEjxUgbG1xzmSoDDTVJ4xWFiZTjScri1NG1MyOXqsFVhKcnx9zqjY9lMxODeaamXxsND0xYESr4ahpm0Q9RqMjA05hBR0yWYAtgBjBmMluDT9UVyZyr62BgZ9zPXr0r5J8g5s1c1HKWkkT0ipO7yTbjEKCSlNGbTroz9Umjcv7Qn02+fL5/Z/7fYyMESNGjMrx9Oo82U2BCs7sBFc2wPI1ZtsAS+tnkqAEAXIktEjQ6gSwsI9L/HfR4xpwYtmpUMDSIMtWSmzHe6tdwEImi1YV0irQFnSVh1vbAEs6ytOwaluje5bJcje0c8CyQZYErDyblQIW4ArKM1NNwMoga9wAlUsaVPEMFgCLQ5YNsLgKoFUBsJDt4hkvs10Mo+Z+W5rvlrGGYNDlgivKTmmGpQRYWnkw1BfLBVgSsqCZmZFkemrU6Dz9bPb7OBkjRowYwfHl64c/nV8cJ1ubq8nmRnqSRDnQAlcY6AyF9AbxE78NqCRYccDi8mW0eA9WCGA9PT92Sj4etuESv4u/Fg2usuen20S0Vj66e7aqgJfLp8sFWq7VhhpYcWsHH2C5hk5noNWaOcghi0qAPsCiETccrjh0rS6l91msZQ3r9al8VaDRQquvirJWgCq6HVktCVS0kjCXB7AmJwdyV3IShy3fKkM0wI+YXq0UMlBqnHhsLnEd4kanmt+Wy/B0kK1StPlr+ZzeNbiqksVyWTbQ6KHsvRow5VaM0BkbfZws1GeSz5+iu3uMGDHuQLy6fpbspcC00Vg2masMpFpgpcEVByyXtYAELA5SNrAiQOHZJA2QNKgp9mB1BljyMXhmy9X/1Xo+ZZuIImxVa6BvZ6WiK/vFfcvkaJ4MtHSwIkm4CoEsDlh86DNBVsHnanW+5L7OjUIJuvgcQQ5YgCsNsEyGqj6azM+OFCCLMle0nw2ssJIQIsCyQZYELtLU+CMjWm1oE/VvAS64eE+X1kTvG+HTym65Vx92Okza1e/l8sXigEXGowBIZLEwqxCQdXqyH7NYMWLEuN1xcXmSbGyumrIg+q5oaf7xwaY9c3WwbWQ7cWuZFQlXrgyUBlgaMBVXDFYvAfoEyKLfo0GUvnJRBz9XH5ltxWLVVYxVQYs8y7iXGcEVWXG45AMsgikdrhYLQ6C1TBYAi6SBVihgtewXJguAtcCa13kWi5cIJWARXMGqYW5m2ApYkLwuYWty7KFTU1OPcyEbRhkxKjVKAOPgpRmbljNZPxea4l3ZLA22qo7hcY3RkaXCDLR+NsLrBXBNTqbv8eyoeZ2LC7PJx48ff+z38TNGjBgxSvH27eufdlNowgpBKgmeHG4ZsDIrBPfXC/1WEq4g2wnc1sxuAyxXFsqXxXLt1ylgPbs4yUuC9NxDAU+7LRS6bJm9UL+uUNDirvuaWSw3IOVO7xywZBmRQ5YELD42RwIWhywSBywNsjTAom2mLyuFK6N8/M1Usrg4mSwswJ19tJjRaorDluy74j5YBFguyNIa4G1ZLU38cfn98gyYktnikOXPZP1cgixu86C5w7tc4m1O8TbIspmPEmSNjAC0/pW+liyjBdCq1cZMJguwdXh4GLNYMWLEuD3x5cunP15dXSb7+7vJRnpyQ9YK6XYYiG41FrOT6d5ast2o2zNXhztGrpO5rYndlbGygZMNVHhvlFbWC8lQufT88jTPYoWCHH+OV2fHRk9Ojwq6PDlsKqynLGQFpWYj4Wui5xlHbUxPZsWRSYMsH2Bpqwx5JosAS0IWKXN7bymzdmhpbW0+ByyCqwJ0Lc1lymcNTjPIGiv0ZGlN7hiRwyGrKmDV0p9JswCuqmKApgmQAXG44uL9XFq/lvTQkuLO8CHmpCHzDn1ZrAJkDf+zAFnI3iGLR4A1NzeXXF9fD/b7mBojRowY/+vduzd/29vbSdbXV5Pt7c3kIIWmfcwVNGXAhvE9QuaKFAJY8iTuWh1YFbB8fVcaKBHkaCVGLUPlEgALl/TYtJ3/Hht0ccDSICuTG7JCS4w+wLJBls8zywdY2gpDWS509WdJuJKSgCUhC4DFm99tgNUqHdoBSxMNe5aAxUuEGmARZLkAawYZqim3ZqYe5ZqdHjCamx1M5mtDRlNTQwXAQuaKA5bP6NQFV8ggaYClDZf2GZSGQJYGWI8H/56MTzxIt/0jfe4PTKk0KxUOmEzW0NBQzGLFiBGjvwFfq6snZ8aRHcahuMTom/39RkkHBxu5ZLZDrgbUVga6MiyuDE1o/5Qv6yRhS7uPD6y4bI/tui1UvtWRruyd3Fd7rzstI0rokqsMbSN4SPK+NHAaFhDZKJ2V3IMLl4AqKg9m5cJ6QRK2eM+WZvXQylzNsjLhTO6TVRiLY5rgU/ianzRamJsoqF4bN5qfHcuFUTkkjMyRAkTNCtAi2DKAZbkvzTiUkvtNT2ciyCJRZksDLC7bEOrWKsOfnV5avlmHIasKNchq9WE9yJ+bMWYde5S/PsBlbXosmRh9nLy4iuajMWLE6EO8ef3i+UF6skQ5cBfNy+nJ9TA9kQKy9vbWnZDlsgKweVm5PKpuEq4IsDqBKw20QuCrKgDa+sxCV0+2A1g+4JIzJrUyomvOIQGYBlcEWCQOXMUy4YITsgjGbJDFAUuDLAlYBFcEWBK0XIClwhLLWGmZLB9gYb4hSQMuAizAhiatP4tntmTpUPZpScCS8o3i8cGVba6iC7Dw/AmwZuGLNTGc7G01ImDFiBHj5uLr189/OD87NGVA2C9QI/vR4Y4pC8LvCoClQZYELF+flWZZYCtntQNW7QKWLfMUKpQIXer2c7EBmKuJXmaxfE3xEopdoGWbl8ib5F2gJbNeZGiqQVZxSDSB1kLJ/b2oxYIkaPFVhRpo+TJYErhkJmtuZrSgMmyVm9t5A3wVwNIgiwALPUmaOGzxLJdWQpS9WlmPltustJOh0pAcYl22a/itAFh4fhKw5mbGk7npieTli6sIWTFixOh9vHz1NMEKwa0UrDDuhvqn0E9VNA9dN0L/FRd6sUw/llIW5CdbLUNVpZ/IBlZahqcbJbqqWSsCqRdPzgqi7e1mw+Tj20ArdBWlrUE+ZAWiK8vlmpmolRB95qUSsHjmCpd0ezbHsAhYGmhxo1INtKRvlrF2WJrN1bJvKAMWZCsbauVCHbiGVMjK4GrInf2aKmamCKakAFKwLkBP0tzcuLmEsA0i2KJMlywnasBFsGX3zyLQKto6aLDlkrwvzSdseWHpgEVlQrxHeN/HRwbSL4xrEbBixIjRu8AKwSdXZ8lOCk/rKVwBkjLD0GxgL4cpuk0DK5LmY6UNO9ac1H1GoC6wCi3xdQJXvuwUh6uXV+cFEWR1Cli+1+IDLN7QL325Qlcehnpt+dzhQ8qHLYf49QJsUZmQbsfPWRZrsTTHsKilgiRoSVsHCVwALJIELcjXn0WgZQeu4RJkEVxlDfL27BfEs1EETFwSrubnJ8wlBy2CLQlZUhps2cqH0gmeS0KTS7J8GAJYVCY0zu5NwEKZcGZ6PLl+9SxCVowYMbof19cv9/YPtpOt7fUUsNKT1P5mDlc2sJJAZTywmFzzAyHbmBoNsFz+VTYYqlpS6yZYScB69fTCqBeAZQMrX58Wv66BbDuwVQWuQkbxhGa1INkEzwFLAy3N2oGDls9Hi2e0JGhBvgyXrRGexFccctF2XwZsZjbTLCCJqQaAmhvP4YoAS4MrDbK03i2Z2bL1anHQ4t5ZstwXAl6yhOgDLN6HBc00+9jw3sHdfS/9P+v3cThGjBj3KL59+/LD5eW5yVptbq0ZuNo/2DLa2VhIDnZWktPDDTNc+OQgBavd1VwnKYRxnab34bL15PgyV3Ti9/VZVQWoqoDVTl+VJglY3SoRtpvJIqii22zmpj6bBx9YucqDoYOoNdgikWs8SfZnySHRErSkrUMZtPTVh2TzUBq9w0BLSma3OGhpsAWZcTp8dqEYt+PLgBFgaZA1aykJcujSbuNZMQ5ZMpOlGZfKVYeaSSkHLZtxqTQY1RrcJWBpWSyYrSIjiPducmI4WajPJi9exCxWjBgxuhBoZD85OUpWV5dN5uroeM9krra218wlwAqmoYAsABW8rQBZuMR2O1gVhxFLyLL5WfkMQn0lQRdshMJIN7NXdB8NsLoBU9rvs72+EMAKXXHo8s/if29tnyqzDn2SsxCp/4pKhhywNMgKBSwNsiCtdCh7tFwlRAlZErQIsOChpRmWurJf0DQgCDDEQIvDFmWsJDhp5URNWhbL1qOljeCxOcFr0iCL5g1CckyObHLXAAvjhGixwFxtMpmaHDVfNPt9XI4RI8Ydj/fv3vwNKwHhwE5N63TiOt3NJFd0ydIOtmmrBAmgXONtsP3y7DC5OD1Izk/2c+E6tj85PzKXJFyXenp54lQoiLQLMj7A4lBFpUGuqr/XBnFWsErfg6uL41z0vtF7qt0mxf8G9PfKZZmLSPJZOZzvF3W2t12QC75cmS0SLxfyZviWlksQVpx9WJ51qEn6Z8lViHwlYsHqYW4yE4OuhYWW0BNFfVE8o0RgVK9PFkT7c8myH103t89NlQTQgGqzKeDNjBvhZy7armW0+HU+/5DPQBwZeWDgiMMWlQ5bcw6hf5YE01CStkKR7ovHkj1g9DNB1uzESFKbHDV+WEZT48nS4lzy4vnTCFkxYsRoL55eXSY725vJdgpXWCVIA5k1wCqPP/EDFvVXuXysjPjJuikOVBpYcSjoNWBpqwCrAJbW3N5twHJmsCyApb2XNsiSgFWArIqAJSHr4mDXCVm+7JbWlyVLhhKyeIaLHOElaHHAss051FYdSsDizvAaZK3Up4143xYMTEmALBs4QSGAxSGrAFe4//x0AawATwRY2MbhioNXDllK0zzv0yLAkkOmR0d/M5AlAUg2wsvslMx22QCLHsMHWNNjj5P56fHcrmGhNp2+tsnk6HA/AlaMGDGqxZfPH3+8OD81cIUhzXvGamEjH2fDAetkZzOoTGMDLM2ssuRzJYDKJQkDEh40uSAlBGAIhGyr/yQw+SSBq1PA0qwf+Osj0LSBVAhgeSHLoU6MSm39WlUAy2btQJJzD6tmsPg26aEFYRQPjePRQGt9qWbES4rcKV6CFokyXBKwQmCMb1uozxjI4hkrXAKusF3ClYQsrRm+uNpwwAlZ2qzDImj9UlB5JE8r2yWzVxyobIA1OfIoBaxRs5oQgLW8MJtMTowkKykkf/v68cd+H69jxIhxR+Ltm+vB/fSklIHVphl1c9CcEZjPCiRoSuHKKKBHBtt9fVYSsqjfipcDQwBAZqiqAJbmQVUVkArwcn4cvL8Ga7zZvV35fqfv/XLBV+VyoaaKqw1DR/CQfIBls3YgYR4izT/k2SwbYBFQaasOOVjl0LVWN5KrEKlfyzTKLxV7tzhc8Z956VCTDbY4kPF9OWDJDBYBFs9mqWVEZu9AmTLqzcrMPB8XxCErAy27UWkGRb/mkrBFTu3FkmILrkIAa2p0IKlNDueAtZi+ZjS7z89NJ+dnRzGLFSNGDH/A3wVQhXE3OygJpjAFHTaHL0vAohKha8WX9LiSA5tNj5Uy644DFs9e+QBLKwH6AMsGIi5AkSU8NTPU7HHqFLCq3N9VgrTdz1dCdb2X3QAs73Dp45ZOj3bL8oBWSB+WNuOwtfqwDFlcZWf4FlTJxni1dNgELA2yjJoZLL4CsQpg8SyXtg/BlbafgbAUKKQkTGn75FDWhCsOdJTFysxNBwuSoOUzKtVKiLKUWCwpPlCzVzbAwjzH6fFHxtU+9xObzcBzabEWAStGjBj2+M+/P/8BQ5rhUoyGdgNWBxtmvA0uOWCZMmHzpGQDLF8pkA9wtvVdFXyWRHlQnuD7DVh8JaHW61QVkKpmzEJKjq7fW+pJe3JaUMj76QKtsxSiXPLZPHDA0kDLl9kKKWG7xvAc7TYKgCUl3eIJqnhmS4Msul4VsCiDpQ2W5gBF121DqDWppccUJKDFhVkjus5BirZJGchSyo98VSKBFffwKoJW0ahUzjvUQEtrjOfS4Mra5D6ZPofR33M/LIAWXhfgampyJHn58uVev4/hMWLEuIXx/v37Px+nJymAFWYJYkbg0dFWClfpyWN/LTk93c5LhIArCViyyVgzDOUZKQ5ZNhuGkpmlZaWgC5qqZGVcUBOawSK40nqofLpp4JKPr8HV86uzXKHAaoOsc498nlp89agGWr4SYkiG1bXikGewpLLtDedKRA2yfDYP5KGVe2ktFUfx8JWHvGerNGg63aatUuSN9Nr9+P0BEhABFkGWBC5+O9/ua6iX5qgcsjLQcntojY4UNTL8qCAJWtKOwdvkPv67UQZYWRaLgBEl0I2NaNkQI0YMEa9evao3Gg2zSnAXswNTeKLBzAcH6UnlsGEuD5pwdUDN7s1v9gRYfMWgzFpxuMpPmKLXSpYE5cmWAxZveK/aixUCWBJ6Qlfl0WPAbuH62WVB7QIWgVvV+1ctJ1YFrCqQVRWwNMg6TcGK6yQFKy7fMOkQwLJBVtYkX4Yrgi5kt3j/llyJ2BrHowMWtknAkmDFDUspw0WN8bxBXkIUXZfN89p+BFk8k5U/xvJ8srw0V4IpQBe2c7iSMGayWI6mekg6z5chy21UCnd1F2TJsmFVwJocfZDMTqagNTFgACvzHstWROL9mZqaSj58+PCnfh/PY8SIcUvi4vw4Bav0BHG4o55UXKsBbeVA2xBfW2Yql+jZ8a0UlEJmg4ALQPDi6bm5pPJWaBM4hxqt4V0rvVUFHB8kuVYm2gCs2xmtEKCUNg9VG+ELEOb7/7CMQeLlxNDmeK2MqK1y5cBV7Mcqe71pjfF8FeLO5qrR9saKEYajQ5vrS5kcVg7rS62SIS8REmyhrEgApUEUxFco6vsCpqZbma0UmjJQmjPCdZds5UEOY1rpkOTz1KJSIgCLgxXBltabJcuEHJhKZqbYF9eZRrFPU1NjD00fVmt4dgaDZOw6l0LibvqltN/H9BgxYtyCQL/VTnrCQCM7AIv7WHUbrm4CsHgGS+shamfFXchqvHYASwOtToAoApZ9FWIoYGn/zxywNNPSkBWIErA0yIK0/qyClUOzN4uXCG2ApUGW73YAVqZaDliZ5o0oK2WTLA26pAEYX52oQRafbyiHR8v5hq7eLA2wRjxwNWpKhI+8gLXeWEi+fH3/534f22PEiNGn+Pb18x8u0xPibnpSQEkQ/la45N/KNbuFkCZ2F2C5BjWbWYIewPLaLLBGbF4eDAUsrX+KZ7Q6Baxu91N1u0er14Dl+/tp/lnaKsRQI1PN7sFXRrRBF/3/u5rh5cpDCVqYggDZIMuW2dpYW2yqXshitQtY9hJhC7B4STAUsNoBsFIjPIOs3AG+KdtcQ02yhGh6tJqgxe0eCgBmAasxgNr4QBBgQU+uTmMWK0aM7zE+vHn90/H+TrK/vZFZLRxsN/uq1nPA4vAkTzChYCXhygZYfN6dD7C8PVTNcqC24i2kRChLghw8ug1Y2mP5esC6AWX3GbC0lYfdAC3N5kHL6LpgC8IUBMgGWlyl8qHRQgGyeC+W3C49tLSGeNnovrpKmssBK1O9K4Dlgi0JWT7Aki7wmc2DPuuQJMHKJb5CEQKkAbCwklADrHp9PJmvTyaT6e/d3FqNgBUjxvcWb189/3Z2tJ/sbq4buMLKK4AVdH6yW8he+UonLrBywZVsYueDmDsFLN6UzUFL2jD0qwcrAtbNAJYNtKqUEENtHmw+W6pL/I4dsly9WZTBAmARZHErB00aaPUasHw9WlUAS8tiaYAlIUsDK9mjFSI5gJoDVraCcNiIhmsDsOoLUwaw6gszyafP7/7S7+N9jBgxbihev37909Fe+i17dyvPXJ0c4hJjb5DNWrcag/rAip+ofGAly4PdzGDJVW8SsnzAoI234SXD21Yi7GQV4W0ELN8qQ/LLsm23rT4MBS0JXPL/nXu38d4sgijbYOl81uFOI5cELWgzhSsSrFKgRgpY0HoKWFuNFmTxbFYoZHVaIvQBlE8hvVgSsLg0qCoOi9bBSisXajA1NV7U9MRgQaY8qAAWyoMEWDX4etVQJjyLWawYMb6HeP78+be9vb30IF9s1D092EpPQHvJ6WF68N9eLp08uPO69k3fdoKyAZZsTpaQ1WkPlgZWVXqwXJDRjQyWD5I6uS9sIW47YPnkMyINBSyXl5arhMi92bgJrvxf558TDlE201IS2ZvYIAs2KfChI0nYAmCRNMgi7yybh1anTe6tjJauKoBlNSMV43W4tGwVQRYa4F09WbIvi8NV3ihvA6vJoUwewEL/1VL6vs3Mjieb6d/y27cvP/T72B8jRowextOnTxPA1e7ubqG/6mQfsJWeFPbXDWCdHW2akwcHLDMGJ71OJ5+qgCVPZDxbBZVOiB0C1stnF7lfE29yzy0b+tyD5co+hdg0yN/N4SoCVjhg2SCL/yynDNBnw+ep5YIsAiwbZGE1L0mDLQ5YBFm890oCloSsTm0augFYLpsGF1xhe3EwdAZFHLAIvqQow8VXGkrAMrAmwKoAVx7AWliYSGZrY8lq+h4jgzWfvrb379/+td/H/xgxYvQonl2eJXtbaLDdKJ0gQgbkukqDGkxxp20SnzUnT4wX6Um1INZfY7NfcK4iFCd8qaoAUbWU5wOwkBJlJ+o2YJXeQ8+4HF8J1zZCJ3SUjqtsCPkAvvC/qPyv+hrgZQZLfi6ktYPs1eImvRK0oF0hDlwQLyHK7JYpJ64usBWHReE2lBnX0kvS6kq9EjQBtnAflCzpd+NxsB9uk48re6+0fiye0YKbO2YTQtySgaCKIEnLPpkS39TjfNQOms8BP1zkCN+abfjI/AzhvtxJnmYgQrgP7i97v8hklESZLMAqgPAw/V/o9zkgRowYPYgXV08S9FxB1KBbBbCqwJUNsOQwX9uJkgBLglToDMFeAFa7gNJJCfC2AVYJsiyrM0P/PrYROt0GLKtPljJg2gZYGmjZAIs+H3LVrQZYLsjyAZarfGiUN8MvFUTb15k4DEnZIIuu436ALHou+FkDMrpOIOWCKxdgUYmP+qy0RnRcp5mFHLK45ABpuT+fg0ggRoCVucrrkEXP2Vg1zI0a93tk5DDTtd/ngRgxYnQ5nj19khzsbBorBqwUxEkh67lyA1aVhnatFBgKWLYTpuZdpa0G7BVg+aCn0/v3Wp2WAL1ZLIcFRruQxQHL1+TuAyyrP5ay+lCDrZAm+Cq+WVIEWDbQ2mvKBlrbzT4tKh9KyAJMuTy1GkwStDTYkqBF2SoI96XRWnguuC5hivbFNgCUDaxyJ/fmTELAilYOJAd32aBOP8ueLClp4yD3tQ2abm0vN9jjfnjO2bifMZPpwoBtKq2+evn8W7/PBzFixOhC/Pvblx+unlykB+nNBF5XgJyTwyx7dXaorwgMBSvfCkEJWNrJDfPjXJkJH2B5VxF2EbA0gKkKWDcJV90CLGe50PM3CYUsG2h1C7BsmSqX9UOoj5YsBYYClmmIF8PSJWjtCbkyWhpkEVRx6wdu/1AqKTLQ8sEWxLdjf9MX1sxiyXIhxLNaLluGEMCyrf7jqwRlRokPkqbHtK1AzLYXAYsPms5uK98/y1xlA59RHiTAwuuenZlIjg73YxYrRoz7EJgruJ8ezAFYBDWwYMAw2vOj7kCVD7BcWQMfYMlRN5oru29YcyfywVGVcpu8LzWiu9TvEqG3J6uLgKVBVqknT+imAMtm7aBZOIRksXKfrCZg2UBrv6kQ0NpWVh0SUHHrB+615bKBcMEW76ui8iDtQ7BlVjk2y4XYJsuE2ipC2eDOYYhnnLhRKIGVzEAZ0Ekfgx5Pa6SXI3hmpseS6alRo6nJkRJcSdCylQcJsNDojiwWhmTjPZiZHk/fl1gmjBHjzsfl5aWZK3iMk0B6skBpMPO32jArBk8OGk5j0E7AijyuXHCl9djIkyVvcNdOxjcJWO30UPnAqt8ZrI4hi1lgVM0u2gCsm4Dluk2WEDUIC7FycPlk8e1aPyO85yAbaO0LSdCSPVkyo8XhSjM0tfVvNSzlQwlbgCSCKexH0MRLhnhcCVkEWq4MlnFvb2aeeA8WzxgRWFHmiEpzgBtADR7X5RxPqxSlkSlBVtZnNcQyVkP5Nl4ipJKizJIhgwXIQg8WXnNtdjJ93YvJ6+uXe/0+P8SIEaPNgBUDbBgO0oM5nUzMAXtnzZiJnh9vGTuGdsDKtpRdMxANBSxbkztfPaidjHsNWL3op7pNgNXOY0jAckGWtt3XR1coE6bXXfIBlg3E8ts9Te4+sNIyWdpnxrbKkADLBloHTdlAS0KVzGxJuJKQFQpYNtCSGSyCKGznmSyI9uflQlf/lckwCcCSAtxkIJMBFUpxuDRAY2wl5pOWZ1edzVDMbCYW6rNGiws1I/w8PzedwtaUgSGU96gZXjbKc8DSyo9ZL9Zo+nwmzfMBxGW/az6WCWPEuKtxdXVlfK4gnEyOj3bNQflwr2Fc2k+PNo3HlVEHcGUDrMK3fgdcaT02MkNhKxHSifkmASu0bBgKV3cFsJyQpbjkVwUsF2R1C7BsoOWzafA1uROAuTK7NpuHKoBlgywqC3K4KpQSOwQsXzaLlwxxnYMWt2qgx8Z2btHga3LngKUJ2SoAVeY6n5mhAmZCAQtQRT/z2wi2AEiAKVpdKFciIotWbGqfMD+3sm1D6XPJoA+ZsQzqkPVbiYAVI8Zdi/OzI1MWPEoP3keH7tmArpKGq/RX7LHaLunidCcXeqy0PisJVK4Mli2LxZvYQxuzqzajdwtQ+g1I7Yq/N/I5UaO79v7x21zyAbLv7+/z0fI1xNvKg6pnmwXA+GeFvlgQULnKiCG+c1TS399vGO3urefa3kvBKb2EdndTyNpZNcLPtB1jsCCsIKZVxPDBgzB/VK5A5A3v5vpG3ajRmC9ofX0uk8PmgRraqRme9iPIAkhReY56pEqgVR93CiaoLbf5mXx24tpazcjn48X7srSxPQSJeI4oGU6MDxnhZyonorRY6BtrmqDS9dzTK92O94Gg8u2bF8/7fb6IESNGYLx4/rQJVrsma3WYfiMOASxX1uomAMs2V84FWHKVYASs/gCW9h5WyQaGAJbLWNbnoxUKWDbIcnpkOQCLphxoGax2AOvgIIOsvaYIssy2JmBx7TVvcwEWpK0+LDS+NwHLClmBPlpaczwAh68y5JkrAh5kkNAkToad6GdCyS0ru0054QpyWUzwcqVtMDXv4aKeLTTCA7LGRh+bSzTDS9Di4Eb3x3aCSzzW1ZPTmMWKEeMuxPWrF8+xUhA9VwRXJ8d6WaJSWVBzty5ot6SL071cPsCyNR9rTe4aYPlgKQJWbwHL9R6HvP9Vnd677aPl9cHyABZ0hs/Z8V4ByPAzFpXI0qIPskpjdvLB6xlkQXsMtCizRRkrEm2X1g9yuLQcwVMGrMVcjcZCST7AkisPeSbLDKtu2jnw/ixpNNpakTeVl/7kaB+M/OFaX68b+WwmfAIUkYcXQRq2AaoAWKMjA+ZycmLYgFfWZ9XKhhG4EVhxXzCUc/t93ogRI4YnPrx5/RPc2fGNFB5XdEC9PCvPCqy8UvAGAIu2yX3PPXDl67G6D4DVb/levywJypJhp4DVax+tECPSUMiSgIVtnQKWWe2LGaEHmQiy9psi+DLWK3sNo+I23cSUO8VrkJV7WTHA0iBLOsNj/I4ZwYMGdwZZ1J9FfV2yFEmi1YaU0ZJN6+iz4gBlkwaAmtWEJg5YvFzIs1xU8gNYjY8NGuFnZLK4NQQHLJ4xo4UA79+//3O/zx8xYsSwxOf3b/52fnxgUv+AqwywGtlKwZPO4Mo2S9AnfjLqFLC07EVeHnxSDaIiYN1vwGrHR0vr2wp1eqf/9cKqQ8qcCcAKhSwbYHHIOjxsicOUJoIuqYPddSPpCs89tLS+LNn07gMsvsqQwI0ekxri6TbeaM89tXgmjEDJBmtak36VRn0ti8X9uqRZKiAKUAW4onIhMlnozwKAUYmQetE4cOE2LEjq9zkkRowYSnz58uWHi5NDM1sQYIUDOg6eZ8c76YnjID3Adm7DQNBjUzcAy1UidMEVAVY7vT8RsKpDlnyv6LZelgjbAa6qgGVrkNdWvmqjnvj/OP9/Rome2zxoqwm9w9X3NpLjpjTIIpCi7SQfYJHItFQaldLPtiHSBC3afEOCrEazvwrgQqaj9Pj5/QVQcYNS2zBrLmtpU8mOaSDma9LnoCd7twBcBE0AKjInNf5ZKXRhGzW5U8M87z3D/bDSu9/nkRgxYoj49OnTH8/Pz9MDb2ZaiAN3doDeTA/mu8nl6U5bNgyVAev4oCRAH6nTJvd2AavqMOcIWO0BlvYeVgFbH1BJ01LNB61XgOVzeQ8FLBdkeTNYuw0jDbIMSDVv45kus0+6Dbcd7q3lwhcuKQ5YcrZhBliruTYaKyVtrS3l2lxdNNpYWcjFoUnLYPEeLD5yhwALK6K5trfWrcIgZYg/Z20Yts2SgoPWqlLepNt4qY/2NQ35tcncDZ7gCqJViASb/H6rq6sJvij3+3wSI0YMFi9evHi+vr6eQ1I2fmMzeXKaHuwPN4yJ6NMLfw+Wz+fqJgDLZdOgLc2PgHV7AKvXNg0uvyzu5G+DrCqA1Q5k3RRgcciSgCUhi+CKA5YGVwRYWhZLAywNsrbXl52AxctyWgaJwIcDDC8D7u5sOCWhS0KWLHlaV0sK0KJsFkGRzGTJOYzkSq/ZNOA2bCPXe5QGcR/8rnq9HvuwYsS4TXGZnri2G6tZ/4fFwJAO3tSXRcLKJilq0MWl3IYViRBOFlIctHx9VbK3ypahkifIp+fHJVii67itKjhVhSXfrEAXZIX8zk5nEVa5vwZBtsep8ho6KdFqUIa/K6ldo1JfaZH+v7xN8Om+/EuA/L/2rzrcTj9LW0bnTV0cbuZylQslcMlh0Ue7RcA6FuVECJ9lM9xdmJiSseluui9pJ30caHtnPZdtBE9ucMoGR28hS2UpF9J13Ib9tpqDqCXAESDl2k5haWvVCD/jOeG57h9sJQeH2+ZyL32d2MafN3/+mg0FlSttvWWaa73WJM97qjhoUTaLVhXyxvaCdUT6GPvp36Hf55QYMWL8L9gxPEvhJlsCfhzgc+UDKx9guaCqCmBpvVchgGXLRIVmqG4SsDQ46SYgdev+2mvuFLA6/fto8HwbAEu6wLcDWLkYZF0eZbIZ/4YAVgZZdrjKyokth3g5SBrbOGBpkBUCWARZBE4SsmxwZe7DYIqyULwkCKgisMLzwnMEUEm5AFEbgp2vknQ08PvmMFKGizfhU1O8NFHlDfK8/AjA2o52DTFi9D8+fnjzt4P97GCJUkUIYGlQxcVhikMWBywNpjSAsgGWLA3KEo08KfKTID9Jayfj+w5YPl0/u3QqFNjaBSwbWIXqrgIW/W/7AOv0dNcotzA5Rll+x+jySB8K7V5VKEFrwwlYHKY4ZJFdgwQsDioGaFh/lg+wNMjiUEVgRffZYc30fJYilS0xDoiDFbJVlLEiqJKQRc8/hyzx+BK2XA38oRkteZ0bqUqXep7tIsBaTe/3+UssE8aI0bf4+uXDn05PDlrp/fTgeq4coEsSQMVhiswQpZ8PBywbWIUClqvv6jLghGgDpXZ7q7oNWD5A6TVAhcoHWv0CLO/9bwlg2f63fYB1draXi0NWC7TKJf5wj6xtJ1wRYPGyIEEWAdaeR3xwtAuwNMiC+O0QzUDUZiTClwvPiUMhzV08sMxlJBCTMxp5T5kcgu01V20DtGweW9KdnrJYecYrvd9iCl0vXz2NWawYMfoV6LvCQcdAT/ot7jD9doaDND8Aa43rLriSBoncldp4+ATYLIQAlgZWJK1xnZ8UZVO11nQdAas9yAp5/u30Xd0nwLIpFLBOzzLRlxFtxI5tGHQIaLngCscJ3m9F7QIctCScaLDCQcsFWByySHLINHeSz9zkV432d9Zyby5uI4F5qphKwcGKgxYHLL4Phyw5BFuDLFsTfChs2dzq5QggCVhr6WMAsE7T/6l+n2NixPgu43l6csQ3O5NtOtoxB86zw+3kbL/RM8Ciba7sVQhgyWwAh6snymoxeeK8C4AlYUi77TYCVjcyWJ1mtHx/v14DlvZ/7fJrK2W4PIB1crqfK/+s8M+jB7J8wGUDK5IGV7zhXfZl8YzXEYMV20pDCVhS3D1e17oKViRq0ufPlaCRT63QyqCH7LlrWTlt1aSvR0uClg+w8DMZknLAysuE6WPEPqwYMfoUH99eD2YGoptNr6vMjgENsqd765kZoQWwLprN8FrvlW/EhwQsG2iFABbvY+Fw9UTA1fOrMyN+8rwLJcJ+AlbI/X3lwU4Ay7VfyN/Hm9HqM2D5QMsPWC0dm57GTGdHmaoAlgZaEq5sgMWhicsGV3Q/W9mNYMRXAvT9zpODRkGwlymo+Tz4a9C2uQBRy8TRdZv/ly+bZctoyRIi9iPXdglYxngUMJbug8svXz79sd/nmxgxvqvAtzw0tAN6sGKIMlfHO6tmmXfu+CwAK/excjS424bUugCrapO7VhokuLoPgKXBUKdQ1Ut1u8ndtUIx5O90VwDLBlk+wDpughUJcHWML0qHmTSjX+lTVwWwOFwRYMm+K97n5IKr42ZpLhSwJFxBGgxxYUWlMUROBf8+iMOWzFjJMqcNsGzPXzbR25r3NSd7mxu85qfFh1kji4UGdw2wltPLjXSfenr7u3dv/tbv802MGN9NPLk8L/lYSflc2X0lQp9CAKtKWUUaPbbT49MuQIVCVTdX+b18Vtar55e5tNur7Pv6+ZNcNwF4PqBqF4S1UjAUel/pn0X+aVWNSKv0X1WR7TOklewLq3wtfVihsvVoEYBpoFUUeqNWTQkPfVJZ39S6GSxvxPqq8DOBFTWs48tfyZuPfSEkqLJJ8+7ixz9bZo50crBrQBaXGCl2sLNp5rYe7qaPt79jLX/yVY0Q99KScOUqIwKyyEiVHN1pbE42ZmfOGLYuLy2kMLgby4QxYtxEvE+/zRwfHdw6wOqonCJOZshmfW+AxYGpKmBp9+m0hNhvwOoGoElrh4IiYKllRJIPUDhgZZDVhCkBWICpHL6a2wBoPLPeD8ACRHHIwnWAFgALktk5Kd6vpQ3ADpl1SLdRLxYHrDU436eAtbKMjNdK8vL5i2/9PvfEiHGv49vXz384PztJP/y6QahNthLgTQFWCFTJRvcqGY6q2Q8AwW0HrFBdv3iSvH55ZS4Jsl48Pf/uAUvC1dXZkdF9Aawq/Vi6tpyAxUt4mlqzDBsFwEIWCIBFcEWi26lURyBFpU65KOfkcMsp+XzkF0zf86f78OMjfjb9WXiuSo+ZBlc2a4cQmwfaRi7vErAa68vmcnFhPt13Pfn88dOP/T4HxYhxb+PVy+ffDg+wPPl2AVY7mSo+502e5K56BFghPUeh6iZgadBUBa7evHqaQxYBFv9dBFW8bHjbAUt7rCp/dw5YBFcRsDjEbBd6svi8wmyuoRtOjkwfVAuwcohKAQuSPV103ZTnDnesgEXbTo+2nfJl8H3Pn1YhyokVpj8Lz1WxdtC8v2yQ5ZtzyOctIpuFLBYfr4NL9GhhTNDKct2UCtEa0u9zUIwY9zLevX39ExphAVemGfYWAFa7JcALC1Tx5uNuApaEIsBGrwEqBLA0YCJFwOoMsAiyeAbrPpUIuwFYHLIK2SuUDz0A0xoMvdG0TmhCVLOXydYwT3DDYYpDVguwwo9vBEtVBGPXDNS2zOXZ8Y4RbSOPLbnaUK4ylMBFQOWzeeAQRisKJWC1yogrzZLhWvLyxbMIWTFidDvO0xMEpsTDYO/IMkOQ65hJG8jcKWD54MpXAnSt7AoBrHb6qapksDoFDm+JzgFXoYB1l0uEvZYGWXxA+H0HLD+AbVkVUiI8PmjkgJVBVguwDGQJ93UJWCVfPgFY2jFLO361C1oALABVVm7cLIEWNzLVjFblCB9pUupahchBi66T+ShkvLBW5/JeraykuJws1GdNe0i/z0UxYtyrePniKsGsQXyw6YPvy0jdJsDiYEXiJzttKX6vmtTvCmD5dNeb3G8asuT/2V0HLG3hShXfLBdgIbMVAlgZZLUAy2h3ywlYeVmO2cZoFhTkC2ZTqelfQJY/q79ldHqE57RhXgsuse3idCf/IqtBFq7TikJpVMrH8LhmNUoQQ08WlQlND9bafLKxUfTNWl6aN9ksGEz3+5wUI8a9iM+fPvzpKD3o7O9tmQMwgAkf/NsEWL6yoIQr+Fz5fI46Pbn6AOA2AVZVuJKAdRdtGqqUEDVobhey6Pr3DliaPxaVDasAFrI/GWRtFQCLrxik7JaWwdIA68IDV5B8X6oCFmAKcEWQRa+HAIuOs3wcDxcHLF5GJJCy9WqVHO+bWTBaTUiAtbw8mzQaC0boxcpWJiLTtWSyWf0+L8WIcefj29cPfwKM0IeagAkffF8Kvao0XyufXFksmKBSA7trWLMryxAKXRoctQtStN0GJbTdZ6OAMh1EvVYSkF6k21x6iX4qh9pddZirQ4DqFLq0v0Uvsle2/x9uSMrBSpNWyuZfGDiEETSF9Ce6gIubkqqQ1fEqQrd8q/goc9XKYBVH2Rxsr+XCfFSYIRPQGYATbQxS9F6cWL4s+o5NtJ98XMpM+W6nvyEucZ0PkD5gBqZ8hSRfOembc8jhCpfotQJIGZPRZoM7MlfIbPGVhzRm5yL9H+z3+SlGjDsd796+3MOHHt+i6GCAD7stK3WTgOU7ebhOTrZVgu1ktGzQFAGru4Al39N2AItDVK8By/d/1A5gcRFcSVDyZbkIxnyZrN7bNNwMYAGuIPLdCgUsGyhVBSwbRPlu54+FbXyAtAQsDll0XTbBaysQOXxRHxbNIiS4koBFkLWV3v/Dx+jwHiNGW/Hf/3z+w1V6AsCHDx94HJxxMCDY6jVg+Uobvqb2bq8SrAJXoYDlAgMfYPkAxgVXtwGwuj0Euipk3RRg+UbtaIBlKxtyUeaKwxF9LnhWyyYbWOWfR98K4D4DFkqDrfKgAlpNsKLsFQEWlSDb+cLHgagTwJJfUG2388fCMZiXCI8UyOLSjEn5KB5ZWkRGi5raZeZK+miZfq0UwjBiqd/nqRgx7mTgJIoPNj58pucqPRjzg8ttASzbSkFeDuSlwny+oAemXHBVJRMVAljaMOZOAYvbMPQCsNppgq8KWC7Q6rTE6AOsKvu2A1g021Lrw3IB1mWz/C1LgvSZoc+AryToAgKj5mo3q93KLQEsG2gBqrgAWLzPK/R4JN+zdgBLgyjf7RyyePWAerL4rENtliP3zuKZLA5V9DNlsHiWSvpmSTVwmULZ5y/v/9zvc1WMGHcu8EHW0tqhJbxeA5bPhkFrIibAMic3z6rBULCqmlGxAZOEiU4BS8IVWSncRcDqRoN8PwFLBXkPYMntErJ85UBfCTAUsDhk3SbA8oEWn3Uoy4PnRztBxzD+ZU5CVjvHQFmCrAphlMk6FEOqNb8vm0kpLwtyTy2aS0iyGZTS9p30fmvpfmfp/2O/z1UxYtypePv27V/xoaNmT+rD4geGfgOWK3vFAUuKMljy5CdPrKFwZYOmfgMWhx3A1V0HLPletAtlNwVYvhIzAMsFWbZVhiSb15sNtOTnMrREaDUOviWAZQOtgmkpW7EYClgyUy7fryqrMzWQ8t3OgUuWC812C2TRdekEL+UCLHJ5dwEWslcrWF2Y/vzt25cf+n3OihHjTsTHjx9/PD09zYFKg6F2UuRVAStkWbqrTMhPUjlUcSmAxaGpnbKgC4xC4Irf1wdYoXYKBFccsF554OomAIvbONjUKWBVhaxuA5arb88FWPy67YvCE7aS0JbNlasLXYBQAozjYs9VCbL6DFitkTU6aGmzDjlghWTIu2V/4Tve2W6njBUdb3kGjY/j0YZJa+akErZ4hkvOMbQNkKbtKBGup9uQxXry5CJmsWLECInr6+vBra0tc4ChdDQBD33g5SqXfgOWq8m9UBZkjcUcsPjJj07C7WSvqpa0aF/NL6obgMXh6i4ClguyOu3h6jVg+QBdAhZBlcxc2b4kPE3vi0Uost+K4OqJAmEcGHw2DS6fp9sEWDbIkiN4uNdWKGDZrC9CoMt3PPTdTj2v3NahUKZ0ABa2UYaKVh0eiKwWv05N7nzEjg+wkMHCSkJksDY21pMPH979pd/nrhgxbnVg2e1BegA6OnYvYW53FY3rACO/VfsAijf8kgqrsOTsN+Hc7mtg10qH/OTecQ9WQJO6SxKepGygZNv+Kr0PlwZVGoDZwEyDO3pdZlZhYA9ZJzYQGmi5/l4cnnx/Pxs8hfZ8+XzYbJmrXAKwZOmcA5atIT60P0vbzztb1GI4GgpYR3K8zP620dleJm/ZsLn/8d5WLjxuPmtQHKPodUoIleVW/gXQlhXspBfOVzok8S+8+BIsnd+1lYVUQiQo4z5aMGYl7TY9sqTzOwcvKiUC5OCLhefb7/NXjBi3Ol6kJ8L99Fve8Ym+qqUKYPEDRIiHjK3PygZZNsDKv/lbwKobgKWdQLsNWN4MUASs4B4vmR28DYBl69WqAlgEUBIIZD+iLBO6eov459YGWCceuLorgCVfa5WFA64sVqcLDlxVgFDAkhYOvD8LgFVoiGeQBbjaVUbtSNCirBZug60Dfud//v3pj/0+h8WIcSvj0+d3fzlJP/zIYJ2c7t8KwHKBlly2LgErxJndB1hy+20CLF+Jrt+ApfV/8cxcpyXGEMDSyo2uv0k3ACtUvqZ4n3UDslcALNnYbvO9sn1Z0bIz9xWwzP0FYMljUOjiARs8hexTpYfLBlm0D3d/55DFS4YSrvB+llYdNiGLAEszJuWwpTXA4/Pf7/NYjBi3Mp6mJ7299AMIuDKq2DMV+i0sBK5s37a5JGBJk0afk7YPsKpmKLoNWJ0CyG0ALLmCkZc/ew1Yrp6ubgFWO2Dl6+MKBSxe/uMAEApYthE7NsiS2+8CYBFYHe1uVgYsbQyRDUx9x6p2IMt3HM17sdgXWA5YskeLfqb3U646PGqWFZHF2knhyeUAzyGLZ7Hwe/t9HosR49bF128ffzxKP6j76Qfk4vLY9GDdBGC5Dk6+MqFrrIjNqV07kfkAK/RkGQFLByzb877rgOUDp14DlmsFYZUMlm2V4X0BLMAVBywqE/qyVxrA2t5TeazyWWZ0C7D4vgRa+SKko938veNDsjlgcfDigIUMFrdz0CCLerGoD4u8sz7F8TkxYhTj5aunJnuF0QeXT06SwyP/MGcfWIWUHEK++blWCdrgilYJdgJYVSVPwN6VbR0CxG0HLBtI3RRg9bpE6AOmXpcIQ8HKV+Kynfi1kn6hRHXLAYtnr0gcsLQGdRtgyeOQtt11rGoXtFxfWPlzxqUGWARZHLAIsjhc8ab3vOFdgSsOWCgJIouFSwIuwNazp+cxixUjBsXnzx9/RO/VIQ6a6cHg9OygKxmsTgHL59SuOVxLwHKVCdsFLNt+EbDCAKsb8BQKWL1sctdAq53/o3ab3G2fC9s2eWL39T/eR8Dije62YxC3ueDzHuXtIZnBELj1Qa8NsnBJvw+X1I+V98g6AOtYKSGWerEc5UGISoNUKgSQYRsuv8bxOTFiZHF9/XJvN/1gAbLO0wMHmtyxirCbgBXSc+U6UPGTBR38qgBWO03uVTMU3QYsn03DbW9yl4AlneR7DlnK34ADUb8Bq1ObBv4Z0QDLZ9OgWRTwz6LNZPguARaB1eHORtuAJcG0HcBqB7J85cJuABbdpg2OdsEVBywI5UGsIkQ2a2V5Pnnz+vm3fp/XYsToe/z728cf8eHEtw46wNCSX1/PVAhghaS/bbDlXUWljBUpjMTxAFYoQNlOqNrJ1uc6XihXBQJSiOmnJglMPoDy7S+F54XL61dPjQi26LG68fzo9T9PgRLi74c3gyVAjuwhIBh8VjWF7VSu/zXX4HGb4PMG8S8YISd6X5M2fS61TAoHrEI/kAJWnQIW7ZuDVbM5HZd0XT4u77vio3JI3GhU69/UPPVcvZ62NoWri7K5q1ZiDF2lqEGxvE3+nWwGsbIvS5qU8mHRsg/LZdvAPbKgfp/bYsToe7x/96qODyOgir4FmRUoAU3p3QAsVyarH4CllQBDAStkrMt9Aiy6DwGWBmAuVQEsLUvWCWBBNwlYPphvB7DI442f5F0N2d0ErFLDtQWwOnF359CUZ53EtpL7O1s56AMsF0iVVmx2AFi2VofQLJfteNstwLJBFh+r0w5gffn64U/9Pr/FiNHXQFaARuFQ34VrDE43AcvXh9UvwHKV/fgJMxSw5HYCrNAeqtsMWByyXl8/MyLg6gZghZQgqwAWh6x+ApavwT1Epox43n7jewhgye1VAKvT8TkuwOKZLQ2yMoUBFvfP48cPH2T5tmutDbyMWzWLJY+5vQQsPsvQBlk+wLqKze4xvuf48P56kEqCfBUK/dxuf1W7gCUPKr0GrJBeGQlJNsDSIKrTHqzbDlgSst68fp68ffMih6zbBliyr+0mAMsHVp0CFu/VulJO4p0Alu3LVLuAVQWuOGDZtnHbBR2y3IB1gX6qVARYfN4jSsgabLUDWKZfNH1MMoa9VOCrnXJhNwFLg6xOAQt9vf0+x8WI0bfAqA1+wKRMFj7w3Cm4XXUCVxdKmr5XgGUzEq1S+lNLgBGwOgIsDbIKzzUAsEJXGfYTrroFWE/ZYOduApbt810FsDQA6hS0OgUsDLLWAIsP4aZB3BKmLtkXQFeJ0AZYtqxWyN+sW4DlgywCLBtk+QBrbX0p+RA9sWJ8r0EfSloxRJksfJA1I7teAJZrBU6vAUuDLO1EWbX0p3kvqSfzWw5YVOqzyVci7PT5ac+xCmB5AewGAcsFV7cVsHwKASx7+a4aYGnlwk5LhBKw6DhCkEWAxSGrXcDisgGW7W/Gb+dQ1Q3AcoHWgSOLBfkAa3VtMcF0kH6f52LEuPF4/fr1T+i1ooOsbGrHB9tXIugUsHzWDDcBWLJU6IMrfkIOBSzpwZSfgD02DHcBsPh+7WTA2oGs/LYqMPVCWUjQR8CScN8pYMmTei8Bi/bzAZY9sxQGWK7mdlvJsUqTOwGWC7IItNoBLBdM2WDLBljSk6vXgHXcHBjtgiwfYDU2VpKD9LH//Z/Pf+j3+S5GjBuN8/PzhACLPpj48NIcK6Szbxqw5IGln4AlIUoDpVC4uq+A5bNpiIDlbmjvFmDxz0E7o3OqABbfrypgcbgKBSxpzSChqxObBhtg0fHEBljUGF8FsGQ2ypXR0uCK1CvA0iCrU8DaTK9vpJcfP739a7/PdzFi3Fi8e389eKQAUsjMQNsBV1vt4jto+wDL50PTzknJVqIhuOInXR8AkYJO5oqwkk27P61067RHqtSzJHqafPenkh8v+8nb+bZug1XJ94rBHH639jeoYmTqA6zXV26FuPtXMaqV4l8KOISRPQNO/Pykz79ohKwo9I178X2B4qaWNjNSflIncDrfz+QDLtovBy4GA3wUzCkzPS1ARBOujnYbubAtb3JXIBM/E+hw+M1XbJL32GmAvYPSd8V/p68cGALIHKiorYMeWx7b+d+rZOJqyWJxE1IyIIVwXRqPStiC6Sh0lMJvv895MWLcWLxIT1QHzEjUNsamSp/VXQAsF1xpKwY7BazQ7Irt8ToFLNv9Qh+Pg5WEK9y/14Dlff097sHyAZaWpeL/S50ClrMseH5cKlsRYFW1bJBZrKqA5XJ7DwUsLYMVAlhnSqaGYKEqYEkjUPU955AVAFgyS8Xfcxf49gOwbJBlAyzfKB2aTbi/txUBK8b3Ef/575cfMA5nHx8ecYAkKJJLgvmHk+9XBbB6USKUJcAqqwZvA2DRPtybiR7vus2mcAko9LOEpJDHs/VW0fPpNWBJuOOrCV9YslWuv0svmtw7AawQyZM8Fy9RyezVE8/JWcveVP2C5Rul1QlgoeR3cZApLwGyx9NG9XC4AhT4AMvVA3rpOfZopUEJWFoZMBR6q5R4bV9cfYCllQurAJbm9M5FgLWz3UiPFXF0TozvIN5/eP0TyoOH4punlpHqFLB8kHWTgBUyb7B08uwQsEJmCUow4I/RDRsFCSqdNqPz53NbAMuWEbypVYS2/6NuABbEMyj8f1tmr3iv0KUjQ6JlrkKy1aGAZZuHpwGWbcVgCGChh4rUbcDSMujdBqxOoUvzxrIBsg2wbH1ZoYDlymKhTAjA2t5aT5/DQcxixbj/8TI9WQGwTgIbWjsFLAlZtn6PXgFWCFj1C7C03qECJHQBsHjPkq2XKgSmtNt9gNUNmwbn43WaQfQAlvdv1yFghZa0ew1Y/CTcKWjxk7gPsFxwddOApZbqzspzCasAlsuOwdXY7npOIRlI29/IBVguyArtwdL6sJDFAmDt7mxEwIpx/+MyPQgDrk6V1UOub0KyjNgOYMkDR68BywdX3sxEj0uEvBz4GsACIGJlw9sCWK7H7CVg+fbvdZO7NwMpnP1lmbkbgNXrEmG72auQE3gVwNJWBfa6RKgdk7hsxy3KPnUKWHIFoTwm+u7P9/VBVghg2UxIQwDLtqIw68VCw/tq8uljXE0Y4x7H+/dv/2pWD6YfyCMBS+2oHcDSvoHZDnKa9QJX1aZ2b8ZKnhBvqMldri7sVpO7VmqrUiKUv5M/Bge2fgFWr5vcew1Y7ZiPdrPJ3VZi4hnqdgDrqNmE3glgwZrh8jBTblzKYOqkCVSdNLnLY5JsQrdl3G0lxHYAy7bCsCpgaQ3vPsAKdXn3NbnbslgALJQRNxoryfraUvL0Ks4mjHGP49WrF88xHwqAhSZ3LSvFDyC2sl43AEs7QPQSsIJKgl0GLJ94xkre/3UIYPQYsFyZsJsALB9w9brJHTYRLrl6t7oBWL22aajSw+NqIegUsDS4CgWsTmwa6HVq/VCuVgaSD7D449rgygZYeF43AVghswrbaXKnVYTwzwJcra4sJIfp37rf58AYMXoWl+kBG//k+DBqje02WAppUq/aexXyDZBOJLz3xGcayuUDKm0FoauRmZ88YR5aNTMl5QOQbgGWD1hcMOaSBl+YR0gzCTsFKG1+IffD8s069C0iKJRjmys5Q6FarvzUoK5TwKL9ZYmQgMv3BYSbZxKEcVPNkMyUlrXm/VZ0HEEfFJ2cTXnveD8HI5u0smAVnVj6iPIGbQZXhzvr5pKbjWrHKFki1FoaCJzaMT/WWhx8o45C3N7l8dr8TZRthYVNjv4rrR+LzymkDBbPWPEMFsFVtpJwxawkBGR9+xpd3WPcw/jPvz//4ez00ADWhTi4tgtYobKl2X2rdGxw1S5gSZCKgNU7wIJ6CVhQvwHLl83s1ipC2/+3D7D454o7kJO6BVgnIhPiA6ubBCyZwbpJwPLBlgQsWVa87YBFmSsCKzkIGrdnru5rptEdmay3b64H+30ujBGj6/H+3fUgHHUhfEh5tqmXgFWlh0EDrHbhir7lR8DqrJxYFbA4ZHUKWBpk3SbAkgsWSupCD5a2Tct82LIlWpaYAKtKj6XtJM39rvioHF7qu02AhRLhTQGWPK4V4OpJ+e9o69uyDYu+jYCFbQRYrYzWumlyRybr/Owklglj3L94+eLKZK+O0wNbtzJYrpWCLrDSAEv7xtcuWIX0YEXA6hy0tH15f1Y3AEtCFn8vbitg5aXDLjW5a4BFTe4hWSw5Z8+sMAz4cuQDLPzMV6Tltgm3BLBkDxZ+rgJYHKZ4jxRBjw+wNHuHHK6euId18997WwFrX3hh8X4s6sHKfm4YuEIma2uzEQErxv2Lq/TgjOwVDN/wYetGD1Y3AMuVSu8mYGmQ9b0Dlq/hPQSwQgCsXcDi2zTIioAVlsXSAKsbGay7AlgEWQRY1OTeDmDlFg2BgKUNkeYZLDN6h91HWkHcF8BCBguAtbwU+7Bi3LP48vnjjxfpB/nkGAeUQ6t7e7dLhDawsqXYbT0KPo+gUMCSkBUByw1DVcqFvQIs2q6VCm8rYN2WEqFm49BNwPKVCHutEMDikNUPwNKy9Pnfh2Yb8sziPQIslAmzkTlreZlwabGevL5+udfvc2KMGF2LD+/f/jXLXB0aGRdk1uTaS8CywVUoYLnAqdMsVgQs+yBnY4PQQ5jqFLBC9L03uWvmo/xk77Mh6LTJ/TYCFpUHbwKwQldJ2wDrtje5///svWd3G8e2rnt/gn+Cf4I/nhvO3t7r7LVXdM5ZztmWc7bknC3ZcpCzbDkp5ywGiTlnilROlEQxSLbXPuOO+6VuvQXM5kShQje6QZBSzTHeAaDRCASBrqfnfGuWD7DIl4XyIBZ8xmVTY718v3tCmTDEuROYuQHv1fBQvwIspPTxQy13mwYTYPEDRZxZNi5gSlsqDIA1swGLnnemAtZMb9OAAZvKUSY/VlaAZWvTcC4AFu+4XpB9z/cgiysTbHHAom2zDbAIpjhk4ZJmEeI+zB6E/7eluV5CVpMcf3oCYIU4d2Lf3iHlvUIfLIAWfmxkdLdBFf1AfZ4qU7M7ksmDYDrg2DJZPlhKY3KPA1VelRmwfEBi8iXpj9XbJ+jNQU2d2ZPcHxfiTI/n1/n7tr2Gzfxu2+7qqA8YMv1PfP/TAsX4jmSRwTJ91xVs5c3Shw8MRSKY0ts0mBT3BMoEWerYoS1VY1q6xqUsIMvl7SLvVW9Hk+hpb1SXuA3IAmDxJsumY5htjUC6vwCCWDmQZj/7Fon29jFzAJUps6a/P7puaiDrWj+SGsX6AIsLzUd7JFiRuvPQ1ZNfUqeluS5a/LlXPr7SY2KIEJkFUrLwXwGwcj6s3mgasutgWgpgFRygDLNobFOYTZmsAFjxAMv12LgAFbcFQ6mAZTPIux7ngqskgGWDp5LBKgVgJYEsfd8CuGKARZBF13lJ0JVVme2A5YIrdIjngEUiwKJZhKYsnQmgXJN2hof6igALSgtYNu+VLaM10wCL1iIEWLW1NijgwiWeu9JjYogQmQRmbAztGYgAi2YR6j9EEyDFASwXZLkAy6YkgJW03HIuAlacx/nKea770wKW6/ldf6N+nw2iXIDFF9COC1O2cl+pgJUGsvR9Cwzuw9qUfw2u4sj3+57pgIUyJIkDFuBqsGeqkzu6uAOuqJs7Gd1djVXjHPd0wKLjHQcs/bjGIcv7P0IZ0qGZDliAKUAW9cRCNgsZrD75XJUeF0OEyCTGTp+aOzjQFwEWfFh6fT4tYNlAyzZ7Jg5cBcDKYDHklAA0HYBlKgvy7S6wigtYcUCrJEN7wu9LUsiyAVa0hBSf8s9Kg6YB3OQBqjRg8cWeTUoKWIVw1V4AWKSCZqPsb9HXZbVl823HvAI7xFB/JoClZ7CUsX4WARZ5sbjhHaVCXP7xe2jVEOIcCEyJHejvjQAL7Ro4YNmyUVkDlj67yQdXquwRACsTwHLNztMhSL8vDWD5nl/vzG66zwdX5yNg6W0akgIWwcC5Clg5uGovWouQr0eoIEuDKx2wbOupmo53fAkiDlhJ7BG6bEZ3W7uGmQZY5L/i6xUSYE2Mn5xf6bExRIjUcfjQAQHAQmkQcIUMFn5U+gHCVe6zyTWjhQDLBlAusIp8JQGwYgGWLWuUBLBscJQVYCWBPpffqhTAKrVEmBawMNvUBVppTO7UpiFuiVCHqzid3Gc6YJn8V3oGS18qhwBLzSg0wJXLk2U76VR+LTapB4AFmSwS/P/gAywT1M0mDxY1GyVzO10HeOFYUumxMUSI1LF/37ACLLRnAFwRYO1jHgxfJsoFWC7IcgGWTUkAywRNtgzBuQpYvpKcDcZwn+11TKW7UgHL9fwmKIoLWIfRJqHMJvcsAMsFWT6o8rUp8ZncdcDicLV3T2FLFZNmOmCZRIBFHiwTYEXrEhrgKs7fbwLQvQyyOGDpzUb5/8FUtuXir2NqPjrTASu30HPO6E6ARW0c8H4rPTaGCJE6MIOQAIs3GsUPNCvAMkEWB6xS4CoAVmmAZZuxZ4KmSgMWLweaFnR2wVUSwCq1TUNWgGWCrLiApfe+4t9lX5sGE2DtZTAw2wHLtB9tiwNYvI8XAQgvG5rKpPrnE804NAAWz2qZMog+wNIrDHpX99kAWGRuJ8M7rhNoVXpsDBEiVfz+2/hF9IOixqJJPFWuHjBDMQ4QkRnXolLWGvRBE7+/FGhyDYpFg6Rltlncqf++RplpAcwnHbRsniib9J5aHMJc5T6SqZEo/9tMUMXl/fwSdF7X/2dJPFb8O+ODqiQeLG+bEkvWin5/5NnCNt13ZftN6xBhazZqU8HyOX3dOUXL6HTm1Z6To9Tna8NA99uyV1Bfd4tT6Mek1lHU4EOHLfq7+H365xbnhFQ/prrM86XI553TpQMm/Z0EWbaGowRb9Dlz6OKd3Um6D4syWx3yvtHTI0sqPU6GCFFSTE5gBmF3BFj8wJAEsGw/2pkIWHzgCoAVT/pzUsYqKWDR49IAFv+7bZmrcgCWKcOVBq7070/aru5FTUb3Fpvb9awVX0yYsidJTOxZAdZUVisdYJk8WFkClulvdrVxSApY+jH2fAesVqlD8rdW6XEyRIiSYvTUsVr6EWUFWPzHO1MBK00J8HwCLNPzAXqo63scwNIzYjp0xX0Pvs+iXIBl+v+VUgJMClhJJmboswj1Ng1WGda647/fcgPWUH9PTrMYsEzbTZ+b7Rg5kwFL96Dx/910AFZzS73okc915uzYxZUeK0OESBwYwNDUDT8e/gO0lQqT/HjJY+WSDlA+lbKuoAu0AmAlLxlSmS8OYPEMFC85UtkxLVzFyWK5NJ2AZf2OpMha+do0+CaQkBdIByyChkoB1p7+NqUkgGXyX2UFWCaTu9FzpsFUHMCy3T8dgOUTByyTH6vcgNXS2qAg66g8XlR6rAwRInEcPDBkBCzdwGn7kfvga6YAlg5ZpYDV+QhYrsWb42ShbIDFt8XNoJkgyjeLMC1g8YWadbjCfaV+V+JMuii1NQPXTAes4YFeJQ5Ye/o7EgGWzdgeB7B6u5qdguFaByyb6b3UDJZrn0oDls/sXm7AapPXG5t2i6HhMKMwxCwMzDRRBzrDmYvpB2n7wZp+zPss3aGnE7BMJcM0cBUAK94yNibA4pBVCmDpIKUDVimQlQSwTPeV8l3hMJUGruKY3H0lQgIsPoONQ9J0AdbwYE9+VmFHBFiDfa2xS4EmuMoKsHACqpfITL4kX5+sOICl7zcTAIv7rgrgCn/zNJjcm5rrRHdY/DnEbAxAEIcp+kHjB8T7YCUBrIKOwjMAsPTp6wGwknuwdNhKAlgmD5cNnuL8HQRS0wVYJsii7Um/KzpMuQArSdNc22/BZ3JX/quhKbjSm4tWCrAAV7MBsEwlNNtnYgOY2QhY0d87DRms1rwXa2TkWG2lx8sQIRIFGdvpks8eSQJY/L7ZAlhxAOl8BywyitsgKwmklQpYpmyY6++f6YDl8lDZvreleLAAT742DQRYBFfD2oBfbsDaO9iXGWCZ+mRlBVhqxqMDsHT4MH0uLoCxQValAYv+l9zYPp2ABbACZNU31IqDB/eHLFaI2RPj4+MX0YFDP5DSD5qvnxWns7Au29paUeNQvm7a8NQZNYlmEvLBhs+UKtWDFdf07vLjqEagCYzSJvkajfqUBLaSgFhcQEvr0YoDeKbZgNH78wCqD7DiAG4BGOdh6cTBnJLCeZzvIJfeWNe07I2vMa+pazvdR80o+eBr8wK5TN02qHLdnxu0u9UaqOoYpNSVM7rDg6UgKzdo6w1II8+WB7B0cbjKAVZrQQNMXAcERA0zu5vEQE+zfA/t6n0NR++/N3rfLpn+dhtsuZTEmlFYTRiM1pelZdAgaigd53V10DKZ3vUZhfR5E2zxJqS8+agOWgRbBFktrQCsXLuGPvk6lR4zQ4SIHWNjYxcnAaykcOUDLN6JPWnmypXROpcAK0mGqxKAVW6dK4BlM7OXG7Bsi6fT9ukCLHsmqycvrU0DDO7KhzW9gEWQBRBQUHAOABbBFQcsgqysAEs3vOuAZYKrXkMmywRYrW0NajZh8GGFmFUxOjo6Jw1g+RYidUkHLBskneuA5RvgvSWsAFgzGrDSzhJMC1i+hdSnA7BcZUKASg5WaNmcXIkQcDU80F52wOJLuGDpFp7F0gEL72s4ev89swKwOFzpgJVTvNfV/VhxAAv/ExtgEdgSVKFsSKVDXioEXBFgwfA+MTk6p9LjZogQseLkyZPz4wBWGrBynT2rQcKQpSoYYAJgzWjAmg4PWBrASvv56z4t+l6MHMgpLmDZjOnlBizbWp9RVrnMgGUDKxKyKCbAAlxNB2Bh0OeARZBFZcK+rsYcZPW25cAveu/nB2Dx74Yvi8UBi/4nLrjqzUMVlw5YKA+2d+SM7vBijZw4crjS42aIELFiZGRkiQ+w0matjDOX2KLNpq7txtlQCczu5xJgzXQP1vkOWHG9VJUELB2yeMn+fAcsPYOlZ7FmO2DpQFUMXMkBy/T/HMj/X0yA5YIsHbCKIKuzWald3g7L5oSYVXHsWG6ZnLiAVWop0FSqUOXBA0PWJXF0kAqAVRpgxZ2FGACrvIBVaokwqbdKl+23O92AZct6VLpEyLMp3IdFcgEWDPrnO2AVlHv5/yf/P9FnFeo+LB9gdXa15NWqyoTD8v1UetwMESJWHDly5HAawIprsLXNbgJgWfv3nCeAlRYAAmC5Px+vAb3MgOXzYvlajqQFrCKg0iefTANgOY3RFTa5U7ZKBy1ksrrkAM8BK2d0p/ffPSsAK2dkNwMWDPBxAIu+H67ZoCbAQosMW/sG3rIBQjuMHtbCIWrbkM9gAbDQsiHMJAwxayIJYGUNVwRYvkFHb8ugt2041wHLpwBYswOwbKDlA6w0E0l0wOKTVSoJWIUdwSvbpkFvz0CABbjqbGsUvZ0NBYC1J98DajYBFocsDldZARb9j02ARbdtkMXhygRY5MECYGHJnDCTMMSsibiAxQ/M/MwZ20zNCwsgzOCxSto4tJRsVRKocg2I5VaWGaxSlDUQ6aLX4ItEU3f3OO8vbgkwaWlQB6ZS+1Tp3zP+XJht6Hu87/vt82DxRqLck+WaZMJ/q3EbUdoAC/fRAMubbOpdzW2A1b9H3h6cEvfzQNQolAMSByZTA1F9uwuwaNAnuCIfFgAL6m5rEr0dLaK/q03tX7QGony/wxEc5oSGrST9c3MpDlzppTrb4/3md3OjaP7/xvPbyoP0mr7FoOMAFi8NcriCaHtba6PoaJf/l85W8dvZyQsqPXaGCOGNw4cPnw2AFQArAFbpgOX7Dvm+n2kBK24vLL1MSL/RNHCVBWBxuFLSBuY4gGXLVmUBWD1yUOeAxeHNBlgcspIAVhzI4v8PDjqlwNVMAKweViY0ARZta29rUoDVKf8XZ89MXFjpsTNECG8cPHhQJPVg6QfsAFgzG7DSziZMK/68+jqGsUqYMT8fW4PWcgOW73HlBqy4pXubD8sFWDYISAJYvgHYlb2KA1i2bFbcEiEN9qbZhGpGYR6w+jpbxUB3ezFk5UuVNsjKCrBsAKQ/TrXWyZf1UP5NC1j67XIAVhzIIrjC5ZnJ8YsqPXaGCOGNAwcOpAKsWLMIA2AFwDoPAIs/NglApQUsU1bKZ4Kn/fdpg6oPrEz+m1IAq2AgtsAVgZIPsIxZJVYyzBKwkMXikKVeNzLnm0HLB1R6mU+HLBt0mR6jw1XWgGVSuQEL3dxzt1tUeRCZrInx05dXeuwMEcIbSQCrFLgKgBUAy2eiP1cAqxxwlQVgcVM7740VLe6cAq4wmPoAq2BhYE9GK8pcMSAqN2DxGW1keC/oh9UxJRNkZQFYJj8VHYNdmS1baTBLwPK976wAywZZOmDBizU+Frq5h5gFEadEiAOx6axY7xRtAjBVQgyAdU4DVtLnTzzLcYYDVpJyYCVKhC7AGma/+7glQX1QjQNYUy0ZEsJVjx+w0pYI9eyVLg5YHLIiQz2f0WgArSSAZQIafdahzSuXxHdVCmDp35OsAKvXkcXKea+mAAsKgBVi1kQckzsBFjfU0sGazqADYM1cwCq3yb3cgDXTTe6+712lTe6694qvLbovgZk9a8CKns9QFozgKgZgpTW5887icQCLDO9RFktvG6FBVlaAxY/JtjYNpgxXOQErjscuDmC5IIsAizxYAKxQIgwxKyJOm4YAWAGwfLME4z6/a9tsBSzTd7HUx5cCWHHbNEQZq7z5mn63aeAqa8AqgquYgJWmTYMLsFTjUQZWRsO7qTdXCsDSIUvvnaXDkQmW+OPOBcDKlQpzswiDByvErIlSPVg+8yxXuQHLpzQln+kArrSAZduPSmXUqNOmOOVEE1iRYd2XoTKV6/h7TAuIvs/H9/nzz6DgfcbMWqUGKM9i5r7u7b779QGS+3T2sfuTAEABDBgyN/oswLgyQZHurTJ5rVzS94nM7RKQIGSjIEATByn0v4JUL6y8H4sLcJCDhlalaIkf+gz68vJ8fj7A0j1ZtpKgLROZtEyoP57DHX1nTLMKbQBu+l7w7u4+wCLIIrjCZaXHzRAhYkVcD5be/dnUkqFSgJV1But8Bqw4nq2kJcLZAFj0OcQBrKTfr6wBy+e50u93DcwzAbB84JQWsGwZLBNgEWQlAayB3paKApbLBB/Xm2Uz0OuAxfefbsCiFg0BsELMmjh06JAXsKhhHkGW7ueY6bMI0wLYbAestCVDXznR93yzDbCizz6h56pkj1WZAcs34JYbsJIAkm/ftIBV1KKBARbPYgGwCLJsgIWyYq7cVQhY0d9eZsAi6fuXani3QValAWuqF1ZrZHSv9LgZIkSsiGNyt8GVaxHo6QSsUk3IswWwYnuJSgQsXxYrrq8qrYeqXIoLWPqag/TdcX2X4gB+loBlKsn77p/pgMV9UzpkqbXsEmaofFDlgiwdsBRkdRSKAxayWARYuXUKCwFrsLcrE8CyZaf0cl4WMwttz28CLNN3RPdiZQFYuOyW/x/AFS4rPW6GCBErjh492h2nROgzsuuQVXBWHQBrxgOWq1zoKyXOdsA6dHC4CLDUot4MsFzQNB2A5fI6+u5P4repJGDZICstYFEpkEzpJsAiyNJ9WEp641Eyv+cFwMpBViFgAa6ULEbwIrO/BbB8cOX7n2YBWHHgTgcsMrlnAVi57W0qi9Ur/2eVHjdDhIgVx48fX1uqyV2fAq7DVTSrKZQIZw1gmUDKtC0JYOklwSQ9qqYLsAiyOGDFBaZyA5ZvIonv/tkCWGlBKg5gmUDLZnbXAStam5ABVs6L1RwBVg6yyg9YNoAyQY8PqODDi1sy9IEWAVa0kHdfZyYerF61KHQugzXQ3x0AK8TsiJGRkSVxM1i2UqAJsAqmjVcYsNJmwGY7YPlM6D7A8nm0fCZ6H2CV+/NLClgKrhIAVlqVG7D0ATQJXGUBWGnLemkBi8DJB1i2LBYtAK0DFoGXDlgRPGQEWL7/mw964gBWXMjyQR8HLMBVFoCF6329HZEHa89gbwCsELMj4gAWebBsJncXYKFHT6XbNATASgZYLsiK+/jZCFiQDlg6wJfj+5cEsHz+R9P9+gCaBK6mA7D0UqAOP1kBFoesJGXCuIA10NtWEcCywVbckiB9P0yQNRMAC9sAWDSLcHioPwBWiNkRY2NjF+PLTT8Q/DiwftVBCUb0A+MHcoImBU6GZXL0ZqQmXxZ/Dgxk5c5gmQYwn59mOoFr5EBOHBgIQKjEliV46SKgSPKYJB6qtI8/fmifU9HnVkILhaSzAksFKP37het00kH38bI7H/CSDIC+cpIPoHym5YImmp42C1NGdUAUMlHtkXAb23P32b1WPoN6EullQoIu3exeNJOQwRX3YBFgUaPSnOG9Q0EDbzrKG6yaZtzZQDYuAMc1ttv3G3Cq1O8UgRb/LHTAwnXeeJQavpJwu72jSXR2SbiSn3dj024xuCdksELMkhgfH79IByxaKJR+TLoHywZRtunivhLiTAYsGrgDYM0OwOLAFLfP2XQDFt/uAqxSSjilDIZ84LcZlrMALA5ZdDu3rXxQFRew9AwWz2L5AItAwAVYvMP9+QhYungGywZYBK4csJqa68Re+Rup9LgZIkTsQPqVH2zpx8cByzR7MG5/HlM5gz+uHGWXJFDmgqvzAbBKecxMAiwTZCVRuQHLBl1JACuNCbnSgEUgpYPWYE+bkq0/lWvmX5aAZdrGQSsOYLkgywZY0Wd6jgNWUclYAyyCLAIsXR2dzRFgtbY1ikPymFHpMTNEiNhBHizTj1sHLJ6RokyUbUahb1mPrDJYaUErAJb7sWlfP/X793x+sxmwKLult2NIMo3eJ5+HylW+yhqweLlwoLtVgkyLE4KmE7A4XHGlAaw9hnUYz1fA4mVBuk2flQ+wuuR3pV1+1oCsk6eO1VZ6zAwRInboB2E6CNCPl7q1myCKlwpN5lu9HKgvUquUYTaq1IHRBlfnA2DNBIjKArA4MM1UwDJN8jD1u+KD4vkCWD6PVLkAyycfYPGFoXXIGswbvfWFrgs+0/MAsDhMccCaWs/RDlnIXhFg9ch9zpwdu7jSY2aIELHjgIQd/CAok0UHW/ohmdYh5Bkp3/TxCKRsygCg0gyQJlM0H7zPB8CayaAV5zO0wVJSgCoHYOm+K5v474gPiC6wMg2wSQHLlV0ZYBkY3U8TfzmbDlHouZoqDwKyXNmrSgAWlQbJh+UDLL7NBlg2yFIAcp4AFn0ucQEL1yEOWP0DoQdWiFkWGMTxg8BBgBsv8ePDbX2xZ1NJ0NWPh0DKmslKCVhJMhSmbIILrs5nwDKZ32ciYPH/c7nAPAvA4r4rvTzoAyzXIDfTAYvPHiSwynmvaJsbhKajRKg3GU0yi9AHWTbAijqdn4eARdvwWfFyIUEVFwesMIMwxKwLLNjLAYuyVzpgUamQwEgNBI4MF/XJKmg6qhnj45jcA2AFwPIBVtwMZaUACyK4MgEWtiUBLNcAmwawTBmWrABrKmM1BVjIaPlgqBKARQs9K6UALAUNAbAimMLnEpn/5WcTB7AAVwRYQ8OhB1aIWRZnJscvwjIEaOA2tKcvOgDs2yevD3YW/SCpjQN0QIMmU7nQ1cqh1FmEpkEvKXjZlDVAxc3AVOr10yruDL9SH1/q/zGuUvuqtIys6TtuUnQS4ulzFXegdQ12tgEwjoZxwsVU1Fg04bqBOviYGoByCLI9zrUUTqFaneKDObUJIF8VQRMAqrOtMRJgC5cdrQ3RbRtk6YCl+9w4wBo/fw9A66ClNxH1wTgdyyFXSxBf81ETJOq+PVebBlO7BnyeXapVQ7NokZ/1xETwX4WYhdGHg9VgrwIs+mEAsPbs6So666EfIf0ok/S/SjuL0JVVCIAVAKvSgGX6LdjgSgcs20CWBWDpkFUqYJm6tpcbsExZKN/MwziABYO9kgGwOGSlBay+PGTZAKqcgAX5Ml06XLkAy/X6tgkULsDS4coGWGjPAMiq9DgZIkRJAbjqx0Fyz1TD0eHhHiXbD5h+jK4BxAVWaTxYpgEyANbsBCyfyuGlSlv24/J9/31NeNPOEnQNdEl6XJUCWHqpsFyAZWutQI93iRvqC8BKqq+zuQiwdMiKC1gEWbxJpnpOBlg2o7sLsNKWCX0lRA5WSQHLB1eDCeHKBljNLfWiVz6m0uNkiBAlxUE5sPci7T6Y+7GqH8ZQt9i71/xD5j+6uCWRLADLlYEIgHVuajYBlmmmrQmyeIbXN3iVAlh8gHa1Z8CgrpcATXKtNVhuwLLN+ovbbsEGWIArG2DpS7YkASyexbL1xuKfYVrASgriLsDKqixoau0RN3sF8Qxip7yODu775FhR6XEyRIiS4sTIkcMcsNSPZU+XFbC4fGfrPsgKgHVuA1a5S3hpAcvVOiGOTDDlWr1A38dnIE4CWKZZgK4eV2RCTiK9K/d0AJYNnuIAlrEsGAOwOGj5AIuXCTlkQdzwziGrnIDlu9/lsUoCV3EBq9TsVXe+uWib/GxPnDzaXelxMkSIkmJyYnQOfFiDA1P9r5T/arjHe2B3tWqIUy4JJcIAWOcKYOm94Gz94+i+fTEGrlL8VqaB2mauTgNXsyGDxaHKKMPMNa4kgKVDFmTqjVUAGxkCVinlRF92y/f8ru+cPvPUtP6gLh2wAFd98rG//T5xYaXHyRAhSg7AFUQ/QgCWKhN6fCG8T5ZpUHENNElnEQaT++yT7/OudIkvC8DSoWqf9rtwAZYvI1CqbIBV1CbA12rBAVgYLCsNWD71djQpRRmrPFhRVos3tUwDWCbIgui96rMfo1mQHsDy/Z/jlu7iwpZeOoyTvXKZ95PAlQmwYHAP5cEQsz5yLRpyPxjVA0sClioTelLG1AtLBy1fh/eo03sJg2IArNmjcx2wXHDl6xGXBWD5BmT9Pj4Aqt53HiBywdV0AJbP5O4DrJ72xgLIIrgib5beOTwLwOKQxd/zdAGWa38faNkAy/U9dRn3swCsw0f2B8AKMbvj+LEjh3vkQQA+LDSYUwbYvB9LN7ibSoQmI69vmnoSwIqbubIpzsA+HQA2XUCV1Sy+tABl+7zp/5cFgBEo8Uae9N3wAZXvflOZmwNVXPO5q6xn2uYaZPm+3lmA/W4VwFQelPj98ZfEcTUb7YxgSM/o+ABJL+lRJipSd4tT/T2tkfj23q7mSLTfQG+bEq5je09nYTaK4ImACoDV3lJf1K6B74+mpWhe6oIs02dPt3UfHf9OJCkb26AKLRr4MZ0b3vl+tufFCTafDFEEVHnQon5gffnWFb2AV5RO5X0d+FwlUOF6jwSsbgAW+l/Jz7StrS3AVYjZH6dHT87PZbBygEU/ynIAFr8/AFbls0yzGbBMcJQkW+Xbx2dizwKw9AEwzkzArAArC4DywZUJsOJmoEwG9QLQigFYrvtNgEXbfYAFxQUsdIk3ARbdnimARdkrDliu7JU+2zQpYEEEVByucNkqP9uhoaEAWCFmf/x2dvKCfXJAyc0k7C/6cWYNWEk7uQfAmplKC1hZlgh9ZcOi7NTwgLcTu8/EHmeQSzIAxi390WN8gFWKx4p32s4qexUPpvyNQotN6q1OEUDFASye6SLAIrO6DbJ0wNLFAUvP3nFflu3zKzdgEUzpJULXyUEcwIqWwPHAFTJX2Aao6sTni887f71Nfq6nT5++vNJjY4gQmcQhOWCi4SiZ3fkPuVTA8oFWAKzyQs9sB6w4Hirb90NfUJmDVVRO9ICVCaq4xyruAFeKt8rky/F5sEoFLJvHKo6vKo7nqjS4mlrD0N6J3Q1YgCS9HMiBSt/GwYsDlgmyIMCVaTZh5MVqM5cJTcv+mOCUmpTy74St/UYS75UJqOJkX4s8YIPFvdJM3yOT/6ovD1IALGSscB2XKBmiPIjtlR4TQ4TILI4fO6QajqJlQ9aApd+fdKmcAFjJnz/u3zQdKjdgmTJYppIghyslz3fWZWDPArB8farKDVi8dUBB+wUaLFMClt1bFW82YBaAxSErTvmQ9s09rnDpHFe5UJcOWDyLpRv7dcCiz09fZidrwEpS0jZ993wtPVxw1ZcvBSJrBaii8mBLc52CLSx2X+kxMUSIzOL06MgSwBXM7lkBlmnB5ySNRgNgJX/upH/TbAesOF4qI1wNu7tYDxuAal9+5iwpC8By9anyzS7j+5nkAywq39iWcykHYBFckS+p3CVCm2ymdxNgmSCLzy6kTFZRRqu1MYIsE2DpvqzpBiwdtkyPcUG9r3eaD7DIzE4ZK8BWU+Mu9dy/nQ2LO4c4h+L33yYuhP8qa8DSO1oHwMru+fhMQf63xTWRVxqw0soGT3EA68CQv2O1DaxIpZYAbYBlmurugiwfYHkBKOXjfTKZ2gmukgBWqSZ3F2ABoExZK571Mq1PqGey+IxC7snSAYvKhHo/L9vMwukALH585xMsaLvrOzvIMlXWTJahTMz/fmSt4LUiLxaM7chghexViHMysC5hliVCF2AdPhB/oA2AFQ+w9M+n0mA1nYAFYIJMgGWCK8hXHnEB1nBKuCoarAaL+1S5ICsLwDL1L+JZrSwAi4MEBywAR7nbNJhAi0NUsecqG8CKjO8aYFEWS/9cbJAF6NABi/uysgYs3UTvK0mbysoFGSzmNTMBFpnZkcmC6b2xoTZnbh89vrbSY2GIEJnHiRPH13bhzLK/W1DjUdcP1LRwKKb+RvIsH5LVQJsU0Gjg990fFxzibi8VTMr9/KXK91lz8DPtE+d/xmFKByTXAssHLKU/U+PcOH4TU4nO54FKq6H+HrfK0FLBZFI3DZTkkdLFS3qmxZYJjtD8k/ee4jP4CHhsfaz4DMAkKi4TFq8/aFv0WQcsNUuQXTdBFmAB5S94jGiWHLI25DcyLQbNvUvDPTlF/yMGM67SsQ3gTcdy13ee3+ZmdlObD9N3h88gBEDxdgzKfyW/Ex3yu9COcqu83di0WwwPh87tIc7RGBsbnUNGd7RsiHMWlASwsujkHgBr5gCWDbYoc8RfJylgmZ5Pz0b5AMvXpyoOXAXAKh2wePbJZFbngGUq19ngKi5g2cAsLmDxhZvjABZvPkqAZYMsAizIB1jkzyrYJwZkmbbF9QoWPY5lpnTAsn139PYMOmC1tTeK1rYGBVfNgFP5+YyPh9YMIc7hwLI53V1tXsCKBVkBsM5pwNKfR8806XClG9JtPaji9FGztVFI2wh0RgGWTzMcsPgagDyrtae3XcmUoeIA5JvpV2on9ylA8wOWCbL4os56qZALniJXFsu0GDSXC7BcpWMXYOnH8zjeQBNgxfne6L2vCrJX8nMAXEFdcjuyV2HdwRDnfBw5vN8IWCVlsRxwlXSx5wBYswewSLbMViQNrnRo8rX78AGWb5Zf3Fl/sxWwfB6pSmSwaD8CLHcJz1fiKx2wcooHWByyTLMJdcCiUqFufKdu7/w5+XqIOmhxwFLSAMvlgRq2lAjjegLpMfp3cU+//Tujf1f07BWHK9WeQcJ3LovVqCBr8kzIXoU4xwPtGlAmhAfL9MO09VMxQpYFrJI2Gg2ANTMBK+n/oajUZ8lI6YuH24DL1EaBK4n511UiqRxgdbo1wwHL2cOqyz/jL8msQJNc2as4GSwdhjhg2fpiccBqa65Tsi2pw5/XBFlD3R0FgMVLiTpgmSDLBU+mY7sP9qPXiQlYPHNFgAWwQiZPqSuXxapvqBVHjh4I2asQ50egTJgzutt/jL4s1j5P9mE2AFbSTM50A1al5fus9XX/9Fl/pj5UJmi3lfiyAKw4xmDbwOSbxXe+A5bN5A6Du5IHkPx9quI93v48rU6ZQIhDlt65nQMWwKq1abeSDbL0DJkOWQAsiGYZFnRGNwCWDlkucOIzEW33F3zn+Wto3xnb98QEVxywAFfNLXXKe1XpMS9EiGmLqWVz3ClmH2QFwDq3AcuXyTL1pbK1SUjil6Lvn6k3Vdo+VTMLsNrdmkWAxeGqp71RKQ4g2eAqDmC5Hqs3EjXJVNLjkBUticOyWAWA1bBLtDXuFu1NdaKjuV50tjRErRuUWJmRnj8uYFEbDf1/zhfzNn1/C9p4OODKB1hxviNFswYZXMGT1tS8W0HWseOHAmCFOH8Cy+b0aX1ySsli+dYjDIA1uwFLfz96lsoFWPv3FHeS9gGWPiBkDVhxS4EBsOKXCPUeVhywfKBkAiy9V1UpYAV1dzQWZJBMcgEWARgv+dkAywpZDLDodZDFMgGWkgGwXJBl+m77AMv0/S3Kljm+I/z7YQMswBWE7BXKhJUe70KEmPYYHBws6Bqs//hMg6PeZ8g1CyyOknh6TEumxAEEPQtjui8pWGUFWFkpbsbJ9fmZPvuClhxSvDy8L2abhKRZqyRK0ufHNNh4TeYeubIDcZay0RcHtg2ovsfbHuMDMJ+fipY/4X2jXP2kdO+SDi78MXheE4DwcppvKRtq8MkfRy0SepiJnWeg+OtEXqH87D+u7jhrFEqYAljxTBa2kYoWh2aZLPx9tiakJuAylQppiRqjP8vRgV3fT5/dSI+lNhM2TZUGW0W7BMpW/N0dWB6nRdTX7RJNTU1ifHz8okqPdSFCTHscOHBA1dBpoIq6O+dvY7AwDYqzCbCyzuDoQFJpsEoDV/zzs33uswWwbNkqn8E3a8BKulagCa6SAJYJzHwZqsJsRDzA4pAVp3GnLSOkg5buU6LHxDGeuwAravZpeIwNsEyglQSwIB2wihaH1vxepvUKC/5HDsBSRnhmmC/yZ1k8XDqkEWARrPHn04FK/1+jRQVmEWJWeg6usLBzq2huahBNjfXi8OHDZys9zoUIUZEYHR2dg4OQGmjygIUfC64DnuJksc51wPLBS6VLeN73iOWKHOJ9qvReVQcdYOUzp7v6UCVtoZDUxM5hygVYAzHO8H0DVBaAlbSspwOUbbueHcsasGzbfb4nHZj0jJUpA+YCLCVe9mN9qGzPQc9DpSySDlulABaVCXXAMkEW/xwJcPjCyabeWaaGpab740KWvmAzBy0drvT/HwALJ+kd7VgSp1GBFsAK2auB/t5QGgxxfgcGBb4mGmWwMHgSeJlaNhBo+TptVxqw9JKgXjJMClT6e6o0TPnerw5QNpmafB7QoEqfDTgTACuOx8pZwksJWK59B1Os9RcXsGylJVoTLulagLp8Gaw4MOUq89FtvTcV7gOQ2MBKByz+fAVlPkcbBtyHBqHUJNQEWkkBC2VCAFYkrTGpLZPFZxfyz1wHHhtM6RmouIClw5WtFKjDb1Ty7GpVn1+z/AxQIoRqa6okbDWLyYmxiys9voUIUdE4emS/giqchdAgR+ZIV2d3UlrAKmpM6VGlAUt/P5UGKu97LRGsdMBKClakNB6qLADLm2HKALBsg1YawIpb4rOZ1PmCu265AcuUvdBLfC65/FP67Do+iBPE+J5fB6xuLQNlasPA3wcBlgmyOvJL5SQFLNyOpDUjhfQ+WaZsli2rpYOWDbDoPhOUFbSC0MBKB2d+W+9qrwBY3ocsVouESUBW3e5qlcE6eiTMGgwR4v/47ezYxRjccCZCAyKAS89e2SDL12nbB2DlBqyyQMsMAyzXe9Q9VDb5MlU2sEqblcoKsGww5YKrLADLBVelAFYpMKWXArMELH2A1bNBlJHRjdw6QNgAyQQbfBC3PW+0vwZYXRog+d6LC7DiZrCQqTIBlppdmG9EauuTZVq/kDfv9MGWq8xnKvuZypCmTJXtMyv426UAV53qc2xScFVfVyMOHtgX4CpECIpDB4fVD5oPQuTJMmWyzifA8kFMEkP5dIl/Xjo4+ZQVWJWirOHKB1j4fntN7J4MQNJZe3FKe0nU19lqLQVmAVi+0p4NrvT7bYDFvUlxVOTNYoBF+3Bo0sFIfx5XeTAOYKEdAwcs3rZBBywTZPE1DAtmP+ZlKtf5yoYcnnyAZSr56hlEvdEqV3PTbvXekcFqlH/78FB/gKsQIXiMHD8UzSCEyZ08WPiBmzINHLJmOmClbdPggqyZKP3zsgGTqSu/DbCmA66yBCxbnx8drrIGrLQlQBMYxQGsdJDlByxXFsoGPrYMl76f7k/i+xOApQUsExjwDFIak7sPsKjTu63bu2mRaA5YvrKhrVRI2ahSACvKBLYWm/RNgNUi/67du6rUDMLff5u4sNLjWYgQMy6wyjl6mWBA3dOPH1+LvGwTWK8wtyj0lIZUA8mcCL5oIOYAZhvQD8D7gxlsB4cLYIyvTRfHv6VM8oYZcaU2OjWClOO54wBiWmBK6rHSPx8fYJXTpG7qQ5XUM+UTFrzlKloQt9+tuO0QSm306W/k6S4BEjiZSoAAK98sQN/yMr1djQXq6WwokAmmkkgv9+nPRwM6DdhxyorTqaJZi6yEaVqTECDV0rgrkl465I1IoZbWerUYMhZFJqExZ5f83/X0thet9UclRJwI0wkxF+2vP45u6/vYOrAToLa07BIdHRK0OhtFW5v8+1rl39Fer643N9eqPlfV1dWiq6srZK5ChLDF6dOn5mLpHPxo9+5Bg7nmCLBckEWApQ/IBFjG7u95wIL4AsB61mu6AcsoQzuDJCb9rADLmq3yGNenC7Bs8DSdgGXKQM00wNIzTHE9VqasVKmAVSg3YPlm8aUBLJolyL1Yug/LB0C+1/dlYEoBLCqhxQEsns0ibxafZUiA1d7RVABZAKzunraitf50yLKBFT2Ot6zgkMZ7hfH1AzlcQQRWAC0SwAqXgK2amhoJYB3i5MmT8ys9hoUIMaMD6xMqs/tgl1qhPgdY/qV09DIiH5x5SwfAFZmqAVlKeZjSAStuHy1fBicrwLL1jJoOwHKVAn29rHyAVa7SXlpwygKw+KK15dJ0ABYHKl1+k3rxIsimpWhMy8xAtr5VaQHLZmLXAcYHQD6A0tsk6IoDWPT38iao9No6ZBVlsJp2OwXAwlp9ACwSZbEAWCYg4hkpU7aKy9ShngOVDa5gXoeohNnaAo9VrWgCNLY2qMvamu0StprFyMjIkkqPXSFCzPiYnBidg/UJc7X7NlUqNPX7GWIDGw2wBF8EVbSdZ7M4YOlrGZaSvcqikanNu+TKYBWozIDle59pM1hZ+6J8bRGyXsvPBlZ80do0gJTlrD9TJiouYAGm0LGcVCpgcXjqam+wghUpywwWhyzfLEFusq50BksHLG4EJ1AzAVazBBIOWybogn8J8KLPZixolmqQCaZM+5m60/NSoF4WJLDCe4JyLRjqovcJAa7qdleJ3bt2hsxViBBJ4vChferAM9jXrpSDrCkNDXQWiAZVGix9gKWbqW0lwrgA5eu7FReAcJ0vXBxt9zXpTGjSTwtgLsAyfTZpS4AzHbB8bRXKDVg+E7oNrOKa2Hn2ygRYtMCyVQ64ygGWGZ7iQkscwDKZy3XAspnQ4zx/mgyX7/n1mZN6Ly2eKSPI4oDVWFet1FRfUwBcBFhkEqdsUVSay0ORDkcu6HJlqPTt3NjPs1YEUQRVaL+A1guYIQgTO3pdVe3cqpbFOX4s9LoKESJRnD0zdvFAz9R0Xx9oxSkhmpbYIXGDu25yjyPb/lkBlrckmX+MTVkBlumx6jUcsDmdgOVqlZBGSQDL2Ai0woDlm9WXBLDMkOUGLFt2igArLljZSm9xAIb214GGmm7yffgsuywAy/f4uBk4uq4Dlv7eCbAAUxCyPMj21EvIaqivicpszQRXKLmx2YV6M1KeZbKV+vTMlJ6hMsEVhzmetSKwovcHuAJMYRkc9LmqrtqmoGv01PG1lR6rQoSYlXHi6KFoHaw9fa0FGupvK5BtEKSB1zawR8b3PFhxJYEsV1uIOIBFHifAyoGhfiVcJ/+TFdymEbCscDXs/iz2xzCxl9oaYTrgKi1gZdFJvdyA5RO1YLCDVpNTesmvSO0tSl1tzQXqbG1SKqXsFgewdEgzQVYcAEryXkrJYOmwxX1Y+vswARbgikSQRaDVmM9oIZOld3wnwNTbONhgikOVS3qmSocrAitAIIT2CwAqQNau2p0qiwUrSaXHqBAhZnXgIKIGKg9gUdd3Xirk5UK9fUOR8T0PVXuxb15JIMsFZVkAlnd2YwUAiz+/Cao4rFYCsJIAUlaAZeuoXm7A8gGSD65MxvViI/vUc9H1uIBFmapctsoMWDa4gnxZoSSAZcpYAUj07fqyMi75TOwcXExKAnFUMuSAxbNYJsACVLmEfXiPLFIcwNI9VKayny4dpvSyIIcrAGB3V4eoqd4pdmzfKvp6u0NJMESILGJ8fPwiTL/t720UewZaRF9Pg+jvbhL79/SIA4NyQOtqF3t77QvfRo0aY5QQXTL5tkyZMN4KgmYpog1EmoWKbWVNU4nTlkVzwRGBnMtk71vippQ2DL7eVYUA5Ba18bDLY1L3tFFwtVcA4PhKgKWs5edrk5AkIzXQ0ao02NmmfjMk3IbQDoXUJ39fUGHrhHiLJ8dRKeUzW/+qODP01Cy9tialAihimRTbc3E4I0WQ0D4lDiW8W7q+/p9NuueIsjoR2MTMhNmM7g27d4j6XduV6mq3qUtsa6zbKZrqq+Q+NZFam2qV2pp3KbW37C7Ispn+f+3N8u9oaVQwTIstt8ntrW3osdUQbUMGCt3WSVT2a2mpEU1NVaKhYYdUlWhsrFZgRVk2tGHYtWuX2LNnT4CrECGyjKNHj3b3dNWJgb4mMTzYIYYHYNqVA0Vvu9jX3ymGezqLPS8OwEoKVwRYSbqK6zMWk3QorxRgubJbpS5tE/fz8pf6ygtYcVoh2HpXZT3Lr1yARTBVCmAlhSbXLLis/ElxWyDYAItnU9IClqkXFYcrXwaLZ3D0sll7glKjC7AIsgBYHLIgQBbU3FCtxEEL0j8P/X9AgAVFMCW3E2ABogiuYFAnEWg1N1eL9vbdqrdVbe1W5RnD343PAX6r1tZWcezYsdpKj0UhQpyTsW9fj+jpaVJGdzQgBWChgeEwAKu3PRZglQJWJB8kmEpWOmiVCldZAJbNgE77mkzqSdoslBOwsvBI+R4ft9+UKXs1EwAqiYfKaFxnXdX1flW5mX9uwPIN/Gnhiu9rAwuX0K3cBVj8OfSsk/78kV+obUo+wNLXAiwSe14ugq24cGUCrNwswp1KHLB212yNRKBFGS2CLcpq6X+PqQRq+3xUjy1D6Y+rsVG+t/qdoq5uR+5yd5XYVbsjMreHNgwhQpQxfv9t/CIMvvjhArLQhBSQRZksvg6WCbJsABR3lppvppsLsEyAFBessgIsnynf124iS8CyfXZpDOq+tfxMM/uSzPJzzfwrZXHkrAEqqUm9yKzu6bSeFrDSZq1sJcEkgKWkARbBgM0rZXouG2C5Hu/LYJlmQnJYSgpYeh8sABPgibJYgKpd1VtEbdVmUbNzU1Q+tEGWCRptf1dU7mxlYrMCyVdFJUCoqQklwG1K8ISheWhN9XaBfojBzB4ixDTE6bETC3vlYIYDI7VpGOhpViZ3vvCtCbR85UEfYPkyXLYyoQ2OkgKWT3EBy2ZE982GzOI9pspaDXQ4pfdFK+qT5gGsuGZyE1xlAVhxDeYugHJKW0yXFtS1AZPusUrbhmCmARaV+qIynAWoTNtLAaw4MhnykwCWrUSYM7pXR5BFgAW4qt6xUVRt36Bum7xZVDIkA7zuLZvK2O2KFC1lw0RL2+TWDaxRHit4rZCtiiTBClmrmuptqnyIFT0qPeaECHFexejoyfndXbm1rQBYg5hVONBSAFgmyPKZ3OPIBlYEUTpImAArDni4XqdUwPIBnstHVYrHKglc6YBlzFJ5AEvvj1YsN2D5SnguX1UWGarpBiy9j5LuldJBKylAJQGxuG0KkniubIDFYYSX4fSSoJ4R8gGWr8RYquI+hwnKoi7tCrKqI8gCQHHA2rltvbqOjBYHLZ7J0huT8jUPc8p5tZDtAkApiMIlgCoPVdF2Ble7d29Xqtq5RezYvkllrnrk7+X06MiSSo81IUKcl3Hs+KHcmlfwZPU3xwIsn18nKWCZSngmmDDdnxSusgQs2+ubYCmNxypLwEILjoGBNqf0th26sjKh64/JqgToA6S0GTBb9iqCn3wfKlJPR2uk3s62TADLBU1x4cpWEvNmh1oanIBlMnHbAMdkck/i4XICYEtDJNoG71gcwHJBlg5YgCgOWMhi4TrKhdhenNHKdYGnTvBc2NbSWKXU3LAzPxNQqmmnaGyuUoq2NcBjtV3U1aEcuEXU1GwS1dUbVdYKGaw9g73ij98nL6j0GBMixHkdmJnX0VGn2jaYAEuHLDVIO0ArafZKhxAOEqbHxTF6lxuwXK9vA6VyAJarh5UJrmYiYCUtDab1UKUFLNN6cbyPEfWeKhWwkpjUTdDke7wOQBwk0gAW+YWyBCxT6c/bB0uDK3q/gKuedv9SO/okAB2yOGAhMwV4QsaKAGvH1nVKuE6gVZjR2qnUsLsqWnaHhG0EV031OYBSapyCrN27tyqognCd4KqqaoPYuXO98medPHG0u9LjSogQIfJx9NBedUDBmTg6vueW1OksMLhTs8e9Az1FM7+4p4aAq5RSIQBicE+PUz6AMnWST9KoMysA0qGRQ5ELMIf29EXCWaiuuH2obEZy17IythKeD6A4oPDbOtSo5ze0NuDi95tkW3Imatjp6TNl8lBxmcp8tj5Vcct5rtKh/jxpAczWkDJaEy+BwbsUk3l7U53oaK6PoEbNOJTXsQ338ZYJ+oLIkN5iIakIqvB6kJ7FMnVD5806+d/Jy3dTizvXFAAW92IBprZvXys2b14pNm1aIbZuXa2gB/CD7BJgiM84BHDxtg/YBsN6zpiey0TRQsy4rbZJ4AJQ4blQHqyq2iQ2bVyjPFc4tlR6LAkRIoQW//37xIWY4UZrc2GgoewVYAu3cTk0YJ5WzwduynDZAMDnxao0YKWVLVPmyqAV/g19TsiKA1iu9flccFUKYMXJNvFtOjClASyTtyotYPmM6kn7VrkAK+t19rIELFtWKy1gmfpTmdopZAVYBFkEWK5u6DwDx43nU/6o3VP+KANgoSRYtX2d2LZ5ldi6aaXYsXWN2LltrVL1jvViV/WmKKNFZUPe5gHXq6u2KsBC/ypaiodmA+7csVls27YmKgdu3rxaQtxaBYljp0eWVHocCREihCX+ODt2MQCEBhFauxCXBF5DA+aeRXzwjkpRGmRRqcqXyUoLWHs9SltCjPv4JKVQXu5L4rGK2+gzCTBlBVhxS3OJy3zy+6gbzMstHbZKaRCaZWPQcgJW2hIdARaHGgKe9qa6qM0A77SepThYmbJYfMYjgRW/bQIs3YSuZ7EKze7rFVht37JagRWuA7hwG/dxfxaVDqnVAwSIoswVIAvAhcwVZbXQfgFgtWHDCrXfoYPDIWsVIsRsiN8mTl8OyMLghYM1BhNkrmhQwaXXU8N8W6YeSvz2MPpiafL20fIoLWCllclDxrfzbBp/X7b3r/99vj5VceHKBkppmnqamm9mDVim2XumdgilLkVjgjdTNqtUwIpjOo9jwvZ5rEqVDbIi31RMwOJgQ7dViVBrDOp9voTir2V8L1r5j96DbqIvbp9QF7VR4IDFze4ApJqdG1QWizJXAKvNG5aLLRtXKNjiXi0Y4gm0ctmvDaocSFkrABVmBdLMwK1b1ot1a1coCMPkpInxU3MrPWaECBEiQZwZPzkfZm46yGAwoawBBgiTr6YAtLTmpHHAgAOEtwRWZsDKqo+XtVmq5b1OQVe3av7KVdiLKj5gJfVPxZENrPj3wuaPUvexDFQpmSgTXLn6TpUCWC7PVdrslQmqTCCTth1BGsByzeKLA1gcbHTgsYFV7BJkzNfn4pBlykpxyDL3pooPWLUSsKolYJF2ALDWLxNbJGRt37xKbNuM7NbayAyvG+IBVwArABXAChksXN+yeZ3yWu3eVSWOHjkQslYhQszWmDg9sgSQRAcegiw1wLFB0zTo8lmHvk7gXljwwNhMBCzb80T3aX+HDlhmqOqM3YeqVLCKO8suSQbK1HvKBlVxAak7L5q5R8LtrgQLJSdVXA+VD7DSQlG5ActncvctVWMCHC4fYHmXwon5+m2NuyNxyCou+RX2o/LJVyLcVbWxALB2bl2j4Aratmml2LR+hYIsQBUuN65broTb5MECWCFLtX3bRrFh/SollAthvaj02BAiRIgMApAFAKADIPmwMNW5t6PF2VNI92WZTNbWdek8gIVZjC75AKyUxqhZNFOl7ab3vG+wNxIW4IaK2iOgEaxU3GVnbIBVqlcqKWDZGnz6Smxe0MnDlQ5YBFlZgZTNnO4r+aXNYKXOQLW4FResbKW8UgCHIMcEPuWQ7bV5Jk3ft7Vhl2ipry0CLx3CfCb3up0bRe02CVdb1qjLmq1rxc5Nq8T2DSvEjo0rxZaNq5Q2b1gpNqxdJtav+VVBFwALGTBAFTJWVBLEbSyLc+TwvgBXIUKcSzF64shhDApogkfLTHDA0gdkfaA2DewmyDqXAItmSpoAC/ft39NXAFTR+6a/3wJWpQJW3MxVKX2kkjT8pO0ERy5IcsmUveLyAZQvQ2YDJg5YrgaecT1YpUKWr0SWBWBZ4SkDwALIcNn2ywqu9CyW/hocrprralg7hl1GyNKzV3qbBgAWoIoAC6ravFrBFYRSIIBq1fKlSgRX8F+pcuGOzWLjhtVizeplCq5w3Pjj94kLKz0WhAgRogxxdnx0DkpPdNDp6e4UHRKy2tG4Tw6yMFuqJosdDaK7e6rNA++nRe0eICwoDQ31dRRouL9TSc902fo62aSDSwF89fsBzSefR8zUA4zPpNTBkoORC4SSmM9dIOVfOqYlkfo6mwtVQhuEpBkmEzDF9XOZMk8FjSbzrQVIOKGwSd+XWhI45QWsOqc62+rVZXvL7mjNOlyn+0imx2K/zpY6p7pa65VwvaN5txLfHhdweFnOBT4uwNLv0+HMpPZ6t0yPAVxFaqwp8ljxtQTrsTQNUx2WqanbIXbt3i5qd20Tu6s3qdJgVV4wt6MvFtorqN5Ym5eJ1Su/E8t++UqsXf2DmllYV7tFGeDXrvpZrFzxs4KsPnmsPHXyqPjXH1Pd2Pn1ECFCnCMxdupYLbJHAKyGXbWis7VJ9HW1q+7UGKxygxsGv8aCwY4gi2uwpy0SwVahpgCrILMVE7BsYEVKC1il+MS490x/H/rflwVgpctSpYCrTn8GqVyAFdfEnhSwTJCVGKqYTNmqQi+SG7A4LOmAZduPywdYPiUBrDiZpTilxOkGLN6tXReAigSwggBWNbVbc5LABN8V4ArwhBYNW7asUk1HN25cruBq04ZfxM7tq5UAYOvX/KzKhchmodEovFYjxw+Js2dOi9/OjkEXhyxWiBDncACykIkCYLU11avlQABaamahmhnWos6cTbO+cH8EW92tBeLAlYOudBksG1jRc+jbkiqpId/UCZ97r/h7zQKwfD4pX1YrDWD1dvg9SOUwm3PQKqX3VEEbhFZ3FssFVrz3k02+mWo6EOkyQRO/z3Q/gRjkB6hdRVkrymbhvlJLdEkAq1S4iiNeAiQVrglYXVQC5Is1I1PFRXBVXbNFVFVvFlXofbVltQIstGxAZgqAhezV+vW/RnBVU5XLbq1a/r1Ys/InVTrE8fPokf3i9OhxBVa//zYuzkyOismJU7h+UaXHgBAhQpQxJk+fnL93cEDBVbM8GwRoTc2OypUmTANhAWjlB2c7aHU4DfE+maAqS/lm8dn6f1GpNE4Gyzazr5S2CnqGSgcxDljw1pUKVqRSTeSxTe6e/dM06STA4osD66BlgqoksnmpeBsAl3wAZgMrEpX9bCLAIsjipULcFxeQTF6rUgAsMUDxbJRJVrCaAiwOV7SUDd3eLaGKC40/a5G5koBVLQGLZg5S93YAFsHVunW/iKoda8TWzcvFutU/SbBaqszueF7MHD5x7KAYHzuhNDF+UoEVAAuZrD9+nxChRBgixDkev42NXXx435AcbFrkAXPKX4GDL8529UxBEWSxgdoEWaXMQkxi+s4auHywp3usbEvWmLJQaQHLZDznr8G3A65ykxeKy34ucbiqBGDFyVAVQZRrn1Y3ZKWBKyWLqX0KtNyA5YIsfp/+GMx+g3JZKLs4TJm2z3TAMkOTXU31NZqqCsBKlw+w4MGqyYMVdXEHWK1Z85O63LD2FwVXKAvC3I6MIxaUHzl6QJw8fkicPHFEea9GTx1ToAXAQiYrAFaIEOdJ/OvM+EUnjx6Sg3RHdPCMygyGztN88NQH6OIMib2JaZylXHwz6XyPz0ImyONgYyrr6TBlm70XZ5afa0affj/PXiUFLB2ulGKazLMCrDSd0eMAlg5ZWQGWDbLiAJYJsvTtpsckAay2xtoCxQWsrFRSdqreBEyFamBCt3RdHK4wO5DLtI3WEqRu7HU1mxVgbVNNRXNrEgKuVq1aKjZsWCZWLluiOrvjsfCswkaAxs6H9u8Rh/cPq3YMgCxkr5C5IgUPVogQ51H8v2cnLxg9ckjs7e0SfW1yYIRXAwdprfOzPoD1tDcWiQ/QeufvpF4kX4PNtBru6YwtfDZ0fUjCKF+suFyAFadlgklZAJb6f05jBsvooYqRwTLtG5W6DT4qn6G9lBKhvUzoBitAkg2wFEB5yoQ+wCLpgDW1PflswKSZq1LhKg5gcZjCsjS6OFwBnkgcqEgcrNCiAT4qNBqFDwv+KogDFkqFWDqH4AqNg8mreXDvHnHs0H7lwUIGC4CVN7grBcAKEeI8CcDV//f7WSEvxfjxIwokunCG21gb9cvRAWvKRFxfpO62hki8x5YpI+Mri/k6l08nYHFxwLK9t3IAlg2kdE3tkwKu2v2AMxsAywdZNoN7HNkadlKfJZ+vKilgFUGWBk66WhtqIqAq9F7RffEBq5Q2DSbAigtXUIOWpdKlAxU6pHPZAIsgixZlJnG4Qi+raHmc/PqDAKq1a39WgIV2DWqiQVu9mhSkJr3s6VVwdfTgPnHi6CFxYuSwymChRAgfFsqD//pjUilAVogQ53j8798mL/jvsxMCktfV5cSpEQFfFkqGbc01Eq5wENmtLttbapWmtjVEDRm5MZmWyfABQX9Pa5FwsCLpvi7SlO8rmUmcg5le6jOCX29bgQb72gulfGbm96YM5J4+Ur1dzSmVfK0+DjW2Bp+kDvwvZ7B8fai6m93yZqg8JnI9I6SX5mzGc59Haup5083yS2si98/iq/GKZvIZ2yU01Sg1NlaLhoaqSLitZPBPFZb5tinV79qqhB5U0O6azUoo8dXL2xCuIyMF0XYY1zE7cFf1JiVcp0WdURJUJvZNK5XHCiZ2dGrfumm13HebfG/VUcNm/NbUpJd8ifDwgSFx9NBecfwYfFhHxenRESzmLM5MolUDPFjBfxUixHkREqou/NeZ8Qiy/pgcE+Mnj4sTRw5KCGhSMNXcgKnNO+RZdXUEWbhuW+eMsgi2DEuUael2ywVXcQDL1b0cYGVq1EmZM4jehw6BEXQ53lsWgNXT2eRR8pYIPGOU1mQ+E+Tqoj7TAMu0n6ucN9MBS4cnn/Q+VARU9fU7CxTBlsGYXuiZ2lIEVQRLEBZrhlEdMNUACGOghfsAZ7XyOpnYCbhoxiCah65d9aMysm9av0wt7IwsV8PuKmWqx/EO30HMqEZ5EOuPHtw3KI4cHBbHj+wXI8cPK8AaO30iAFaIEOdj/EsC1u8SqqA/JGiRcPvUyEF5wOhXgzmdjfJmiKYSCQGWGtgdnbPVMj0ewPC3GYhXUtPLZ+YZd1OARRku/f3YANDW+sCXYSo3YPlgaaYDVhKTuwmwSjKuTyNg+fxS5QastCoVrKhNQl3dDiU+k4+2KdCygBVJhyrAEgRIggBRgClAVl0+o0ULOO/MAxVlrHCJfle4vnHdr2L1ih9Uh3b0tkIGCxktlA/xuoArlIDVcmOdLVH2CjMIYXA/dnifmkl4YgSzCI8pwJqcQIuGsQBYIUKcT/Hfv01eAKA6Oz4qzoydUsL13ybk2dbkSTE+elQeMIZVb5eu9oZogdTcVPHdRT4tPtCZ/C4F6mgsEgcIk1+oEGTcZm+9qWQEdmyBa/Psu/xtA/RwwPL1k/JnlnwA5VZSQIo1824GKQ1czTTAMoGUz4xejtl7WcrUHd0m3uiTSn/6DD4+w4/WBTQZ0kkF2SoNrmry2StAFozqJLX0Tb6BKMp/OxhowWuFUuCyn78Rv/yYW/4GcIXt2I8AC323cMzDbwyZaPTGg/+KyoMEWMhejZ46LsbHTqrsFQDr99+C9ypEiPMiAFf/De8VSoN5yJo8fVJMjJ4Q46dGxKmRw2L0xBFx+uRR1TgP6W+kwwFV8CDQbB6c0dGCqgRcCrqap8QHrqmlRuoLBIAjKdgyzE4sWMrFkyEzmZg5aOlZrCI5sldKnjYHaQHLBKBcaUtovk7lTjieBsVZqsbVJsG74HJzvUfpAcudobLDVRwTerkByldC1KHJJVsvKlNmiu7jM/y4pozpZrgCMKlynxTBlOrIngcsgixkrABOHKx+/elr1X4BpcEtm5apzBXgK+fV2qLeF89e2cqDOF6aslcBsEKEOE8CqWop8a8/ziBtrQ4AONPCGRcODIArNMxT6W55wMB1HDxwpoazNhxoAFfwJNTV7lACeOVmUNVHfbX4VG8+gJmWBimALW1mog5ccQdoHe5s+1N2i0qIvhKhbfYdyZdh8gNUg1NpS2hJ1t2bifKvBZgOsOKW8+I2+DS1SzCBFancHqu0skFTXJhyzfLLZagKZ/jp4tkqgqoqtjjztk0rxXYJSARXEEqD2LZ14wrVKBQlwJ9++EJ8/+2nYumSzxVkAa5QJkSXdsAVIA5+LWTikLlX/r589opmD3JzOzUa5dmrPFyF8mCIEOdLEGDhhw/hIIAzLZxxwZSJMuHYyeNi5MhBcfzwATX1eHTkqDh1/Ii6joMLvEQYzABWAKx6NT26KpfZqsuJG2Y5cFFHaj5VnYOWvsyHDluxBmGt7OPKzvDyIQDLVLaEIuiygVX+PfqyS+UGLF8Gq6elcUbLZ1I3QdNsAixba4XpAiz6fZaqUsGKAKpxl7y/Vm6rkbert4rdVVsKhJKcLrRQIBFIAYIgMqvDRwUBogBZ0Ob1y8T61T+JVcuWiGU/fS1+WfqlWPLNJ0qAqx+/XyyW//JtBFeqLLhtlYI3wFVLY1VueSJ5bKLMlWnmYARXyPxrswcDYIUIcZ4FUtYEVSQcFFQWS8IVSoW4BFgBtI4c2Ku6FB/al/MawNSJFDkOOshcAbAwjbm2aqto2l2tZAOtKS+XGbL0AYsvWqsAJiFc6YBFpUB94d9orToNaIr8YoZGq7wPWLkBywcQvjKhD2BmG2AVNftEuxCHphOwksLVTAAs+v3aZCrv+cQzVDpc1e7YpFSzfWNOGlBRfyoShylqrUAd1yHKVm2SwLTy1+/E0u8+E18vXiAWf/Ke+HzRu+Iref0HuW2FvA9ghYwWwIqyVrtqNqj2D5hBDcDKZa/qVOaKmoqiNIhjoGrLcGR/BFdjp45Fswfz3qsAWCFCnG/Bs1g4EOBsCwJo4QCBszCkujEjBn1djh45IA4fkmB1cK/yHOAAg3LhQG+HymZhoEMGq2bnFrF1wxqxbaM8u9yyTuzauVk0yjPBZnmwgprqthYMUCbfSkt9tRIGG9ymTBYeg+2Fg+HU7CrapjdKLIasqTIkz5BFjTa1xql6qdJ0X+F+zUXwVgiAxa9J7wn3+Z7fD5h1qcQbyOr38cyiXW4TeVJA9num7L4/s4ndB1ildS+fAqCaVKLvv03UR8qmqJ+URc11VZGadu9UQlaJMkstDTuVcr/X7er3S+0OlPJwxLNPuI7teLzqRZVvo0B9pqjvFLVWwG2ehcJ1KvXx27wESNkqlPCgbVtWqGwThOsb1/+sDOo//vCZWPLtx+LLxe+LTz5+U3y88HXx6aK3xNdffii+/26RmiW4cvlU1go9rrCmoFomBwCYz8TjxBEnKmRoxzFPLYlzcFgeC/eqJXGOHT0gRvLrD6Kx6OnR4wquyH8V4CpEiPM08MPnJUKCLGSxIEAWZsSgrwsA68jh/TnIkmdumJqMMzmky5E2x4EIvqzdNfIAW7VNVG3dKDatXS7WrfxZrMOBTJ4lInW/Y8tKdSDHwZ0gypYRMBmCc4PQ1MKzfNCks3sOXNx/RaVADgt6lozDl6lLven+4v3da97pr8fhCvf5nt8/E658gBVP2QGWCX7SApavDUKaJWKmA7B87RF4806TCKp0sCIBqkiAKwIsErJMyDjh5IngigsgBCjiZvSohQKafua3RaZ05qfayUzoyEbRcjVcBFSbN/4q1q/9UaxY9o34Yckn4vNP3xELP3xVfPDePPHh+/PFgg9eUXD12SdvK7gCeAGuVq9cItatWap6XOXM7Dm4QqYNYIWJO3ozUfJb4eSSAAtL4hw/dlB1bsfSOICrsdMjAbBChAiRCxNkUblQGd61LBYgCzNmKItFkIUDEc0yxCDTULtTbN+0RgHW8p+/ET//8IVK1X//zcfiu68+Vl4IeCNgQMVZMc6WWxurRHtzTXQGTWfRuMR9HS21oqttagDjJRY6G+eDBa5jmw5zprIPBy3dA2YCD7d8WRj3LLWZDFi+95773NK2SXBnlZJmtFzPdS4Clt7AU5cJrJB9InGYMgltEHiPKVzHzD2U5mAsJ2jis/w4SAGwcHt7vmUCRGU+COU6WqYGt6kMiG0o5yH7BFha/Nm7CqbefvN5pXffflG8/+7LCrS++uID8d03H4ml338qfvnpi1xvqxXfiTWrvldgpUqJapbgJjVDEVkrasNAveLIzM57XcFzhcyVKXsFuBofy80eZO0ZAmCFCHE+hw5ZBFoEWZh2TJB17OhB5cHSIQulQhyYAFmAq7rq7epMd8fmtcoLsQYN/H76Wvy45FPxw7efKk/Exx++Id5/W55tvvuK+OrzD8Xq5d+rAzQBVxs6yEvgAlzhbJo6MvMSB8ETwImgiAYPgivaR8+Y2abOuwCsFMBwtQEwPX/aDFEWgOUCK/9nlQ6A0sBQOZTcA+UGpNQlwoS9p3T5ACsqBWriTTsJsOg+3KZO6TwbxT1SuE4lPrRCQAZKtUTYskJs37pSXaoZfNtXq8sN635SUPTT0s8VMH204DXxzlsviBeff0TppRceFa/Me0K89cZzKmOFMiCg6+svFioT+8/yJA4+KzQPRVf2yMQu3wOyZJiliKwVPhMOV8jI43iGsiDBFY51Cq7kcQ+ZK8CVnr0CXGHtwQBYIUKEKAiCLAItat3AM1koFyrQwgGGQRYOQDB/4sAE0zsGJZhpUS6o3rZBGU4xm2fDmp/F2pXfi5++X6yyWd9++ZEynS58/zUFWiTAF/ZBhgu9a3DWzDNZ5Oea8nUVljV4BsykQkOx33Ss75ceMOxLqGSRIUoCg+bnN2er4nQkz6m8kJM1MOnyQZW/lYEbkNKKl/hM8vanysOVD7AoO0Vr+dXmu6SbGnhSK4QdeYjSwYrgSt0nYYoLMEWlvp9/XBx5p5CNev3Vp8XLL84Vzz/7kHjmqfvFU0/cq+AKYAXYQkkQYIUyIDJXuPzu60XKxE6AhV5XgCvqbYVyYC5rtaOwJNjaJHo6WhVYcTO78l1R9koe8wBXpuxVDq5ORXAVOriHCBEiCm585yXDaHZh3vyOGTPoj4WpyZhFwz1ZODCp5WY6WhSM4IBdne9NAx/WulU/KMhavfw7sfznryRIfSaWfP2R+PKz98RnH78lFi14Xbw+/ynx9uvPiQXvzReLP3lHZb3Wr14qn2eNhK2pxVw5TAG04BWh7S7xrJYpc2DKkCXJQNgG7akBvhjW4sw2I6WdBRcnW1dKq4G4ncjLWZ6LV8JzZ6Bs+8XtE6V/f3zfp6ISoOfxHJBM8rZQ0KCqyLDOwEplpOCVKgCpVUpV21YXSd2XN65zAbBQ8lPL0az8Tvzy02LxzVcfio8XvibefvM5Me+luRKg7hOPz71TPPTALeLhB28Vjz48Rzzx2F3i2afvl5D1qIStp9S+773zkioNAq4AYl98/p4qBwLOAGkAKhjY0Y2dslZ4fdXlvWaz+gxQSsXswGgd1bZm0dvZJvq7O9RxDJ4rgquC7JU83lH2igCrMHt1KoKrAFghQoQoCF4uNPmyVEYLZ2xS1JAUGS0cfABaOBhhTT/0k8LsOGRCkHUC/OTWA8MU6hVi07qfxZoVS8SKX74Wv/74hQIt+LO+/XKBuvzq8/fFxx8is/WSeO+tF8XC918Rn370pgIx+Lfg60LZEdCGDBkGAQwMyHZRKYMWe8VrR3BVX+zR0g2/+nZeaowjvU0FtargA7AOa3xw9ft0fICQBIbiKZmHyA0gaTNIaQGq1I7mpv9lKYDl//64M1TNmCTiUEE2yiACKZjUIb1NAkEVgRXBFTJUuSzVygiw8HsmsMLveuvGZdHyM8geIZu0aOFb4u03XhQvPf+YeObJBxVA3X/vjeKuO64Rd8y5Sl3iNqBq7iO3i6efvFc8/+yDYv7LjymoevP1Z8Q7bz0v3n/3JbHgg/kKqlQp8MsP1WxB+LF+/flLVU7MLXPzqwSr5Wp24I6t61SbB8wORPmU2sJQR3Z4R/u62hVY7enrFcMD/QqsdLhSYAXfVd57FQArRIgQJQV6ZMkDw0V5FfiyFGzByIkDyukRtZwOltZBNosOQEf2D4kDQ/1iqK9DrdfX01GvzOk5P1WuVcOuqvURaG1c+5PKUCGrRcCFrBUyW18v/kBlsT5Z+IbKaAG23nnjeZXheuu1Z9X1D955Wd2PffGYLRt+VQf6bZuWq9fAwR8DQc2OtXLwWFc0rVw/o9czAr4BT1d9zQ7lQyM17qpSIvAiuOOgRZkJNU3em+Fw9zFKa7K2QVV8D1E6wPIBU7kBK31jznQA5ctQNWGmn0N6486iRp7Ub0oKJXyoauv6KbESoEkALPy28NvFbxYnRzjxwUnQu2++oCDqsUfuFvfdfbO4/dZrxG03X1Wge+++Xtx3zw0KtJCxQobqxecfFi+98IjSa688qaDq3bdfEO+986LSh+/Pk2D1hvji83fFN18tUO0WYF6H4R3GdZQYN234RXm6tm9Zq/plURmQFqtHE+NcA+EWZWCHzwom9j193WKov0fs2zMo9g/lsvF65grHNZxIjuTLgy7A4sfMsExOiBAhrJHPaF1oBC1ttiH3aOGMDwcnHKhopiEOajhjRFsClKEwWAMocBatvFqb1ogt61cqQNqw5keV4Vr56zeqlPjzD59HwPXV5ygnvik+/vBV8dEHryh98M5L4o1XnhIvP/+I8nDQwZcOwDi7Xf7r1+o2/GAQypYYMJDt4tPRO1qqFQQ2129TlwrKqjfI+7coMMQ2lCqxDfdhG65DuA4B6CDcDxHgYZ/6qg2ibud6JVxvqN4oGms2qUvcRhmDhBlXvK8QGiBSf6FcuUO+77rt6hJqbtgZXcd2NEuEcJ32wz4QmihCuM73QSNYDErcME0G6txMtZ3RY/TnV6+RzxryzCHvpcT9c0afnAHk+CxR7r2j5+Wv53xuKdpXz2yS8Hz6Nno93EdArM9a5ZlRfTsHpN27tyvt2rVNqbZ2q7rEtrq6HQXvj2bucbN5TY383tVuVML1qqp1YseONWLnzrXqui5sx/3bt69WMu1D+0Hbtq8UGzf9IlatXiJ++nmx+Pa7j8Rnn78jFix8Vbzz7ovipeceEc8+eb945IHbxN23XytuvfEyccM1fxfXXfVXce2VfxG33HCp0u23XCnuvfN68cA9N4n7775RPHjvzWLuQ7eLpx69XTw99w7x7ON3iReeul/Ml7/ZN+c9Jd597TnxwZsvio8WvCoWffS6+PzTt8VXX7wvvv16gVj6/SeqrLhi2ddi9YqfxbrVy8Sm9fB4oaUDemptUk2O0eyY1kilVguYEUjZKqi/J6fBvnaxp79DLWi/bwhmdrRi6BMHhweVDu3dI08Wh8XRA3vF8UMSrrCqxZGD0TqtyOKPS7jCyeYZCVdnAVeTo2p913+dnVDCuq+VPoaHCBFihgeBFnWA57AF0OIeLRx89PIhmeHVrMP+TjHY06YWSybYwiCay/5siwAFZ8mALZwpw7sF2EJ2a9lPX0Ylxe++WqjKijiDpiwXPBmYng1PBmYgoXyA69gG4TF4LIANpUj4vnD2jcd/8em76n4IWTS8LrJhm9f/ooRsGN4T3htlxkiUIcN2XMffQXBFHhW175ZVomrzSrFz0wp1fdf2tQWgVS0HOVKNHPhqqyXAycG0btcmUb9bQlXdFnWdbkPoPk37kWgfiLZRl2qIQIxE2/Xu28WL8W4pEodCW3mWoIVKuDbx3kq8tEXbTNBhmu3GZ7nR++EwZgMY0/Pw5+JgZVrqhfpD2cTX1cNMtlxzy9xnC5jl/icymHOjOf+/Q/T/pf81fRfw3amSYEV9o2j2Hk444FXCbwPZIJjE4WnCbDyYypFZQobpztuvFrfefJm48fp/iGuu+i9x+aX/IS75x7+Jqy//T3HNFX+WQPUXceO1fxe33XSZuGvO1RKibhAP3XdzpEcfvE08Ofcu8fTj94hnnrhXPP/0A2LeC4+K11+eK96Y94R4W77We/I1F74zT3z64eviy0Xvia8//UCdIH379cKoxQLeK3pXIUuFZqI7t21UDY1pDVQOVHzBb2q3EJUC5QlervVCu9LQQGcEVwqs9qEVw4A4vG8oAqtjB/dFYHXy6CFx6thhdXyDAFfI4gOwCK5+P3M6AqwAVyFChEgcKB0SbPHsFmW2zo6PijNjp8Tk6ZPRcjsn5YEJS+5APLtFbR4wcwezEHEg7GzbLQ+WNSozgoEfAzj66VDzQZQCMIUbAwUyUshM4UCMAzI8GTjzxVnv9999LH5YskjCFSDrC3UGjOtLl3wkvvv6A/HJR6+KV15+VDz8wE3i9lsvE3NuuVTcOecKMefmKT05925lvgdsQYA7gB6M+ihtAv6QbQOIQbgO+MJ9q5Z9qzJvP3y7KMq+AeA+X/imWPT+q+ps/Z1XnxVvv/KMeGv+00o4k4fJ/41Xni4ogQIAAYLwoeE5IMAhQBGwidcBfOK9odyK94H3BjhESYeAr65mo4SETUrIwkF0G/flMnGbCqTPIsN+tC9BJJ4fItCk6xwuCTDpecjno4t8PxBtM8GGDh70nHSdxPejnk36c/LeTvQ36++L9tOfj+CLoI2elzyBHOga8xlE+m4T6OKSup4jc4psKf+M8XmSzwntDej7j+8+QAnfe3iScHKBflCApddeeUq1Mnj6yfvE3EfuEA/eD3C6UULT5eKWmwBO/xTXXfM3cZWEpcsv/ZOEp38X//z7vymYuvrKPytde/VfxA3X/V3uf6m47ZbLle6cI4Hq9svFvXddJR6491rx0P3Xi0cfukk89sgt4vFHbxXPPnWP0gvP3i/mvfiw+o29/srj4u03nhYfvPuC/C7PV9ln+i5/88WHqnULZg4rf6X8mwBUgClAIQARJxuARsAjdVonoKL1N3mWigSgorYLyKJTXysyslMLhoJZgof2qzVYcazC2qs4duEYdvrEMSVaSmxi9IQ6xuF4h/Vbf58cU5JwdSEUACtEiBCpQzfG8/IhdYRHCRH9tFBGpFmI1OoBBzaaiYiDHs4qkbpHGh+LK2OhZfgnMOsHZSoqkVGzQpqdhCaEmDn0y0/o2AyY+lRC1kLx3TcfyjP198Xiz94SiyRUvfnak+LlFx4STz52hxwcbhT33X2tHCyuUbrnzqtVKQMlDZQ+brvpcvHCMw8pHxhlzHC59LtPFHABbnBJBv2cZ+xtdaZ+521XqbN86AY5kN103T/EzXJQu/7K/xLXXPa/xOVyMLvkL/93kf76n/9D/O3P/6f4+3/9X+Kff/1/xKVyvysu+Q9xlXwMsgeXyYEQ23CJ29fK54Moo4DXueWGS8Qdt16psgqPPXy7eA6lmBfnSnh7Uix4b54a4PA+v5WD8k8STFfKQW0tsgSrf1CZOmTpdP8aZehqdqyJVIuBL69dVeuUcB33VaMctQ0zzlYq4XpuG8vmseyfD8x4hlCfxYbbAEm8ZyrTEvzpIkDURaDJH0elX7pN5WCCHrw2XhNQDZjF54b3Qe8F2wDbAHIqd6PrOGa9AYiQrYHQYgBdx5FJevPVp8Vr854QLz33sPq/PfXY3ep/+OC9N4l777xOGcMBOjfdIL9L1/5NQdBVV8jvxSUXS0D6nyrLxHXpP/9d3YcM1BWX/UlC1V+V8FjAE57n5hsvURAFIWtFwuvg9e656zplRH/w/pvlCckNYu7DN8vfzxzxzJN3iuefuUe89Dxg6kEJUw+L1+Y/Kt549TEJVE+K9995Vix4/wWxaOE8sfjT18VXi9+KfkP43fz641dqvcC1K34S61fJE6fVv6oTKfy2qQQOGAWUtjZVqxMvvSEowIpnqQikAFUEVtR2gWYHmnxWZGQnqMLi9gRWHKoIrHASyeDq4j/OjF8EVfp4HCJEiHMsOGSdmRy/CJqcGLtYSoIWlt/BGoenlHCgwkELBzAczHCmiDPGowf3qQWlCbhwACTowgESB0scQAFcMKty6EJ5hcpYu2rWyzNeNDREOWSJylwhkwU/B7wdC95/SUHWS88/KAeH+8SLzz2g9PQTd8mz8NuUtwRekUcfnKNA66H7bpGD3jNR2RDZIrrEgIlMFTJbuB/ZLgyKc26+XFzyt/+pdOWlfxKX//NiBUS4ft0VfxbXoswigQmXAK4br/5rpJuukaB09X+JG676s7zvP+X+2O9PkW6+9q/R/XSJ7ddc9h9q36svvVhcdYl8rX/+WyTcxnbsc/Wlf1KvTa97s4SyWyX43SahbM6Nl4r75SD+0D03iscfmiOeffweMU8O9K+//Lgq6bz7+rPi4/fni0UfvCI+XfCa+PyjN8SXWIrks3fFtxIUvvviA/GlvA7BK/c1yj2Y7fX1QvEDZnwt+STKBlLm7Zeli6PSL/Trj4uVfv7hMwV/JNz+ZennCm4JcEm4jUwhBm6UiynLBzDG/wTZEpSAoc8XvR21BPnog1fFh+/OK5g8Me+FueLl5x8Vr778hMoiQriObbjviUfvFI8/cocqgT18/y3iAflZ3XfX9eKeO65VAtjefssV6jtwq/w8AbwAYAAyvge4BDDj+4Db+E7gNqAZUM0FwKbvDRceR8JtPCc9Lwfu6/Gdkv9fgD3eC8p5eF8Q3iPeK04EUOK7+/ZrlFDew9/1yAO3qr8RfyvKfCjxAfpeePZeeYLygHh13iPi9Vfmirdef0K8+xayU8+JhR+8KD5b9Lr48vO3VZb4B3mC8/PST8RyecKzeoWE+FXfRu0TcGIEQzpm+cE/hWW2UPajxeD5AvAQFjrHb59M6sqg3t+lRNdxnNBFmSrqZ3Vwb05YuB6L2OO4Q1krCFDlAquz42NKv02MS7CaEH+cCZmqECFClDnIp8W3nT07ecGZMxMXQpOT4wLiDUyVZyuf4aJ1D9ExnrrG0yLTBw8Mi/379oh9ewfFsDwDHZIHzQF5QO2T0NWNsqI8kyV1teOAvEud8cJ0TUt2oHszpo+jlAcowsCOgRlghEEZAy48XBh0MRsKpTnotXlPKsDC4Iz9UO5DtipX2likBnhkrjBIv/jsw+LWm/4prr1KgtHVf1alR5Qdb7zur2obLm+9/u9Kt1z3NyW6DrACLN12w9+Ubr3+r3L7X4o058a/R9dpX/02Hqtrat9iAdoI7ABfXACyq+TAfaUczK+Qgz1gjYCNoA0iALzmyv8VCX/z9ddICLz2L+pvv+n6vxUBALJ7gADKvtF1bMf9EGUC6TG66D48L/xBELJ7BB0EuBA9L/bHPgAUygoCiOk6tmNfCNcpa0j3cxEs0WvhEo8hvxJ/X/Ta2EYARH83Xou+O7rwOZpEny3plhv/oYTv4W03XyLuuO1ycfcdV6kM7f33XKeytiiLP/rQLeqEAplcnFygrPfc0/eq7Cuyna+89JgEy8dVNg0TSN6WcP3eW7kS3yLA9aK3FEh/I6H6+28+UvC74pev1ExgZOxQoqZMKE34UGXqvK+PGn1iUeX25gbV6BP9qHg2Cpf8Ns9IUTsFiDJTXLYslQ5VvBSoyoHyWETHJRyjaG1WalMDqMrrwgBXIUKEmBEB2JJSjUy5Zyuvy8ksf3p0SqOnsFQPFp0+LuHrqBItOk3QtXd4QEJXv4SuPrFnEL1seqOp1wM9naK7vUV1aMZlS8PugrYMMCTv3LJObN2wSmxet0IJAwMyUwAwXCK7gswIIIp8VGSoB4ABrJDhgF/rvrtuEI88eLMaxKAH77tBDWoY3B6493p13wN3Xat0/53XqMsH775OXd53x9XinjlXinvnXBrpvtsvE/ffcbl44M4rxIN3XSkeuvsqdYntdB90z22XiLtv/ad6DC5J2E73ke68qVh3yAH59hv+rnTHjZfIy38qzbn+H5Gmtv1N6VY5sN8iB/ibJBDccMWfxPWX/4e47rKLJSD8KdI1V/6H0tVXXCyuuvzfxZWX/VsEWLoiSJLPp0MGbQO06UCly3Q/wQ0BjkkEU3gcwAz7AnwgXMc2VYbNgwzAxgY8LnG4JsC+7YZ/RJpzi/x/3Hap8jnB73T7rZco0ba7b7tCfU/wfaHvz0P3yO/WfTeKR++/KdLcB24Wjz14i3jykTlqxt6LT98nXn72AaV5zz0oXnnhYWU4f+uVJ8S7rz8t3n/zWfHBW8+Jj96bJz5BCfnjN1VmcgkWSv72Y/HrD5+JFTCd//KtWtYKi7hjdQYIy2GhHx1m5dbu2KLak6AlCbUnQfuMaLHu1px3KvJPAao60I+qU/R3d4nB3i71+8XvGMLvGML1vYN9BR3WAU8QrttKfphow0VAZSoFQjpQ0dI3JEBVAKsQIULMqMgD1gW/4RJZrcnxi3CJ27ifbUeZUULYhLpEmRElxqkyYy7zRZ4utIZA5osyXscOHZRnqfujS/S2OTA8JA7uHc41E+zPdZsf6G5XHeexODNf9w7GbxiN4bXBmTf8OdS3C14fapJKrSNgNkfZCZkvNEZ9581nVBly4QcSvt5+Tt3GJUy+MPxiQHtj3mNqcHvtpUeVXn3xETH/+YfU4Df/uXvFvGfvES8/c7d46em7lF586s4CPf/E7Uqm23Sd69nHbhPPzL1VPP2oHHAfyukJCXvQ4w/IwViC4KMAQAmDD94pB+47rhL33y4H8TlXiHtvu1xdQth2z62XFejuWy4t0G03/0MJoAAwwCWEbbfelJt1RkLZCn4xCGUspRv+qqT2zT8XPZYerz+OrvPtfBsXf31eMiOhzIdLmh0H0X64jwMPGb7vvuMKZfrmuufOKyPRtvvuvloC0TUFeuieayUcXS+h6AYJRDdJKL9OmcZhGH9i7m3RJfmdnn/yngJYIuH7g+8Rvk+5mXqPRfC04J0XxMfvvyw+XfCK+Gzhq+Lzj14TX37ypvh28bti6TcLxC/fLxLLf/xMrPx5sVgPg/nqH8SWdT+JbRt+Udq+8Vexc/NyUb11peqfhdmTmE1JLStwidnAmBXcI09kBro7lHolOOF2f1e7GOzpVOrFZBYsq4VyP36DaEzc1yMGB3CC1K/gCiB1AK0S9g1FJb1IhuafuM6BCv2q4POE35NEq0+cOn5MAtVxpdMnRsTYyRNi/JQEqtFTSgAqDlXUzyqv4LEKESLE7I2zv41fdObsmOCaPHM60vjEKaWJyVEluj02flLp1OhxpZOnjokTJ4+KkRNHxDF5gD0qD7BH5AH20OG94uChYXHg4JDYt39QDO+VB/WhXjG4p0cMDHbLA323Kj/293VGA0FXZ4sqP3a0N6kzb8xgQmkDlxCmisNDgn48O7B47WaYntFi4idlHIeBfPXyb8WqZd8Uzmj8/hM12/G7bxaqmY9YPuT7L+XtxQvFN599qKauL/7oHaUvPn5X3caUduizBW9Ewu1PPnhNzU5c+O7zSgveeU7pw7eRmXhG6f03n1Z6742n5MD7pHj71cfFm/PnygEZA/PDcoB+SLzx0iPi1ecfFPOeuU/pleceUHr56XvFC0/cJZ577A6lZ+fervTMo3PE04/cpvTUw7eKxx643qnHH7xezL3/WvHofdco4Tr0yL1Xi4fvuUo8fO91kQAeBB9zH7hR6SG5H/SwfOwjeJwUrtN2zGojAVboOszZjzx4ozJoQ4AYuk4z4GwC4EDK2P2Y/Lsfv0PpuSck9Dx5l9ILT92tNO+5+8VLz9yrruPylRceVJ8rLnEfzax7bf5jkd549QkF4u+/87zyM5E5/KMPX1IGcejjBS8roTQHYZLCF5++U+B3g777akEklO7ge4OnDRMZ1qz4Tmxau1xlardtXK2yt+hBxxuP7q7apprlIvtEjWFxAkJrXWKFBqi3o0m1WkEz4YHuVtV6RYl5o8hcTgbz3CQWs9mcZvIdgP8SXil5HTqEiTCYeYzyHmBKnkRxqQXomfB7h/Dbh3AcgOi4cHrshBIdL/TjCQcrDlf5tVovrPTxMUSIECFKjt//mLyA67ffJy7kksB1MSkPY+o64EsdIDUwwzYcSHFQHUX3+bGcRk8DwnAQPiKOjxySEHYwJ6yxiP5d8mCOgzoO8Djg70cvr3w5Qvd9YNCAP0TNauqQZ/Ltu0RXW63obK0R7c1VqoN9S8N2paaGbaKxfmvUz4r6FlHvq9ptctDbskbs3LRKbN8gB8L1yyPh9qbVPxq1cdVSpXVyEIXWoskq1mZDHyFMfZda9ctXYrkcbJehPxhM4zCQf7dIlYCWysH4h68Xip+/XSSWYqbXFx8q/fDlAqUliz8Q38A8jun1eS2GaXzB60qfffia0qcfzHdq0Xsvio/flfAgYWLh28+pS7q+4K1nJRy+rIRSFYTrC955SYLiixISX1BlrA/fft4o3Iems9D7cn+Ibn8onweChwgzKUm4DaFhLWZXwl+k65OFryt9+tEb4gsJNxDM/dBXEnJQSoO+kaCDkhoM/7gO0z8+U/pscR/M/kvxmUvw4Qb+ZWiOi2a4+D8t+yaa1blhzdICYcYirVLAl62h2ZZT7TamhNmRaP2AJrnINuXWtKSMUw6WCJyQ3SUN9XUpIeu7d6BHiUBqT2+7Wq0Bfe32DnQp7RvsLvBAcYDSxVsjUAbqaB6kpmBqv9Kxgg7qh4uELDaJwxSU+82f8IIVncDZwCq/VmsoDYYIEeL8CxOMQYAwAjF5AL1cXi8CMJ4B0833UXuJfDmS+npxHwcuYZrFLEgMGCQMIDQrktZqJDiLFsfOz4KiaeUYtCAMYDSYIUNA6u1sUMsPQd3tdUXqbN0VqaOlVgnLFEFtTdVRV3K9wzo112zeJQGwRt6u2qTUUL1ZqW7nRrFr+/oCAQahmq1rI9VuW1Ogmq2rldBUlTdZ3bERwLhMXdL1beuxzNEKJXh6SLiN7vvw+lDTV6s2LFfahP3RtT9/G7PWbEJ/NWjb5qnFitEugITbmCQB6X2wqBcWiTq+U3NT6ipPC5LnuuFXq9lyJJo1l5sZm2tHgIkamLDRjf8zE/V1ipZ6YbPn8J0isKHvGX3XSLQfzyCR1GOH5AnEnn5VpuPCdiX2GA5KJBjISfhN8Bl6ZCon0W+I/5ZM4ES/P/wWIfwuuej3quQBKX6dwCp/PFAnarzHX4CqECFChEgQBFwcvLgmJ0bnQBPjp+ZC42Mn55MkfC3ENloeiB/caSYk+Tsg+D10nRjJiUz7x48dUTp29HBOzJgLzwhdn/Ka4Kwfg9qg6jxNwm21bd9Qgbh/Bb4WrmjQZMIyIQcwyMpBFdovB1toL0zH/T3RbYj2gXA/tG+wN8p2IPNBWRDKitB2PUtCvjhafJfMzjA44xK3IYAFIINmmekNJfFYXZjsAKnH93Q69yFTNV6TXp9M1hDgg4t/dvhM6XOm2/gfALxxmbt/2KhD+/bK/fZN/R/yrQRU65K8cv/TvdG+EHyGRw8eiKTf5tuxP8E+ZY/0EwLMstMFWCJAIt8T/47C30Qqyijl4UiHJJuc8JSf2cdn9+mmdG5O171Uuck1kcfzQvKAkg80RIgQIUJUOExG/eiAPTF54dnxiYugM2PjF0OTp8cEaWJsvEjjcjuJBhU+iFBWDfeNoeSB0gdKIVhsOy/czm0/4RSfpWkSDL8w/sIAzMXBURcHSJruTpk9ylbQAJ3b56i874jcflhd0vXjhw+Jo0emRNAJACUgJe8NzSaFcJ224zkgTHIg4Taen16DthN88H35fiT+PgmIXYpgmb13uu/E0WMFOnnseHR95MhR9dlA3IzNxR8HnTo+Eml05ER0H92GcJ1eB7PmbMrNqjsWGcDJBM6/A7Qv7xfFu5z7vmM0YYX3xiPhfn6b70uygZQum5cqAFWIECFCnENxdvLMBWcmJgU0MTFRoPHxcU2n5fYxJeodhuvYPjY25RXhZY4C5R8bV/QakfLNYbkKB7jTsWQbRGmbPvBSSw78jdBpuc+o3H4K2y06iRYeUnwbgSSeCzKBJb8fLUAgfX+6TdvosfSaNp2Qz+XS6VOjBRobPa00evKUOHXiZNHnVQQhhsfq4sAOYV96fj3zQwBP0iEHt/EZUNbVlE0qUP7/Z5P+/cP3msv3vdIBqgik2LI1WBcwvzbghaRKHwtChAgRIkRGQWfMkX47I0xCjzBoEl3wNcmB6GIajDQguogAjO53whPb1wZbvgGOSiwm5VprnHaKd/fXsxkYzE2DLwEXFHnlmL+mYJv2nBwMOTya4M+WNeGP14GB3lf0/gxQwe+bHJ+IMpe4HoG3vA04MkGt6b3YAWSsQDrs0jJWNuF/SC1SzjDgjp1B8nzP+HfxDF5nSqoh8dkpFbyPqe/YWIFYCwUlWmw5r7AmYIgQIUKcK0HGWJs51mbCJ9med/LsmQtykgORHDTO5AcOuo7tE2ckcMFHxnQGPrMkys/ONHnUcJu3zGAG4UjjEycjTUyeMihnNNbNyLiuZn6dHhGj2A4zMjJ1eeE2dHrihNLYpHyNM6eU5PX5cttCiAZ+3Z/DMx98rUxdtJ8OEQSI43j/mui9QZOYPMHE/waIQx6uE0hQvzdaPJ2a8doyNnaAdWd4qLSti8CGoIreJy4JnuUJgjA9lj/HGU36yYKCqHxPPK6i34l+YhJp/CJ9wXluSAdQkbL7VYcIESJEiBBlDp5dKEWuDBikynwo46Ekl8/6sMzcxWcnzwimC6Ak7++MR/ScJcv3GaR9/pTy/n9TPj5EiBAhQoQIUULYMwvZSM928IwHXt832J8tLDMVy5A9cWVSsv580j5/iBAhQoQIESJEiBAhQoQIESJEiBAhQoQIESJEiBAhQoQIESJEiBAhQoQIESJEiBAhQoQIESJEiBAhQoQIESJEiBAhQoQIESJEiBAhQoQIESJEiBAhQoQIESJEiBAhQoQIESJEiBAhQoQIESJEiBAhQoQIESJEiBAhQvz/7cEhAQAAAICg/6+9YQAAAAAAAAAAAAAAAAAAAAAAAAAAAAAAAAAAAAAAAAAAAAAAAAAAAAAAAAAAAAAAAAAAAAAAAAAAAAAAAAAAAAAAAAAAAAAAAAAAAAAAAAAAAAAAAAAAAAAAAAAAAAAAAAAAAAAAAAAAAAAAAAAAAAAAAAAAAAAAngLvEufi9oo3eQAAAABJRU5ErkJggg==;" vertex="1" parent="1">
          <mxGeometry x="319" y="130" width="90" height="90" as="geometry" />
        </mxCell>
        <mxCell id="7IhyG_YjBcEnH4IUcmP1-9" value="Centre de charge 1&lt;br&gt;Moulage" style="text;html=1;strokeColor=none;fillColor=none;align=center;verticalAlign=middle;whiteSpace=wrap;rounded=0;" vertex="1" parent="1">
          <mxGeometry x="110" y="320" width="130" height="30" as="geometry" />
        </mxCell>
        <mxCell id="7IhyG_YjBcEnH4IUcmP1-11" style="edgeStyle=orthogonalEdgeStyle;rounded=0;orthogonalLoop=1;jettySize=auto;html=1;" edge="1" parent="1" source="7IhyG_YjBcEnH4IUcmP1-12" target="7IhyG_YjBcEnH4IUcmP1-13">
          <mxGeometry relative="1" as="geometry">
            <mxPoint x="504" y="265" as="targetPoint" />
          </mxGeometry>
        </mxCell>
        <mxCell id="7IhyG_YjBcEnH4IUcmP1-12" value="SP1" style="rounded=1;whiteSpace=wrap;html=1;arcSize=41;fillColor=#dae8fc;strokeColor=#6c8ebf;" vertex="1" parent="1">
          <mxGeometry x="334" y="240" width="60" height="50" as="geometry" />
        </mxCell>
        <mxCell id="7IhyG_YjBcEnH4IUcmP1-24" style="edgeStyle=orthogonalEdgeStyle;rounded=0;orthogonalLoop=1;jettySize=auto;html=1;entryX=0;entryY=0.5;entryDx=0;entryDy=0;" edge="1" parent="1" source="7IhyG_YjBcEnH4IUcmP1-13" target="7IhyG_YjBcEnH4IUcmP1-23">
          <mxGeometry relative="1" as="geometry" />
        </mxCell>
        <mxCell id="7IhyG_YjBcEnH4IUcmP1-13" value="OP2" style="ellipse;whiteSpace=wrap;html=1;fillColor=#f8cecc;strokeColor=#b85450;" vertex="1" parent="1">
          <mxGeometry x="434" y="230" width="70" height="70" as="geometry" />
        </mxCell>
        <mxCell id="7IhyG_YjBcEnH4IUcmP1-14" value="Centre de charge 2&lt;br&gt;Peinture" style="text;html=1;strokeColor=none;fillColor=none;align=center;verticalAlign=middle;whiteSpace=wrap;rounded=0;" vertex="1" parent="1">
          <mxGeometry x="395" y="430" width="130" height="30" as="geometry" />
        </mxCell>
        <mxCell id="7IhyG_YjBcEnH4IUcmP1-21" style="rounded=0;orthogonalLoop=1;jettySize=auto;html=1;exitX=0.94;exitY=0.122;exitDx=0;exitDy=0;entryX=0;entryY=1;entryDx=0;entryDy=0;exitPerimeter=0;" edge="1" parent="1" source="7IhyG_YjBcEnH4IUcmP1-17" target="7IhyG_YjBcEnH4IUcmP1-13">
          <mxGeometry relative="1" as="geometry" />
        </mxCell>
        <mxCell id="7IhyG_YjBcEnH4IUcmP1-17" value="A2&lt;br&gt;&lt;font style=&quot;font-size: 7px;&quot;&gt;Peinture verte&lt;/font&gt;" style="rounded=1;whiteSpace=wrap;html=1;arcSize=41;fillColor=#d5e8d4;strokeColor=#82b366;" vertex="1" parent="1">
          <mxGeometry x="350" y="310" width="60" height="50" as="geometry" />
        </mxCell>
        <mxCell id="7IhyG_YjBcEnH4IUcmP1-19" value="A3&lt;br&gt;&lt;font style=&quot;font-size: 7px;&quot;&gt;Peinture noire&lt;/font&gt;" style="rounded=1;whiteSpace=wrap;html=1;arcSize=41;fillColor=#d5e8d4;strokeColor=#82b366;" vertex="1" parent="1">
          <mxGeometry x="438" y="350" width="60" height="50" as="geometry" />
        </mxCell>
        <mxCell id="7IhyG_YjBcEnH4IUcmP1-22" style="rounded=0;orthogonalLoop=1;jettySize=auto;html=1;exitX=0.5;exitY=0;exitDx=0;exitDy=0;entryX=0.5;entryY=1;entryDx=0;entryDy=0;" edge="1" parent="1" source="7IhyG_YjBcEnH4IUcmP1-19" target="7IhyG_YjBcEnH4IUcmP1-13">
          <mxGeometry relative="1" as="geometry" />
        </mxCell>
        <mxCell id="7IhyG_YjBcEnH4IUcmP1-23" value="PF" style="rounded=1;whiteSpace=wrap;html=1;arcSize=41;fillColor=#dae8fc;strokeColor=#6c8ebf;" vertex="1" parent="1">
          <mxGeometry x="630" y="240" width="60" height="50" as="geometry" />
        </mxCell>
        <mxCell id="7IhyG_YjBcEnH4IUcmP1-25" value="A4&lt;br&gt;&lt;font style=&quot;font-size: 7px;&quot;&gt;Peinture orange&lt;/font&gt;" style="rounded=1;whiteSpace=wrap;html=1;arcSize=41;fillColor=#d5e8d4;strokeColor=#82b366;" vertex="1" parent="1">
          <mxGeometry x="520" y="310" width="60" height="50" as="geometry" />
        </mxCell>
        <mxCell id="7IhyG_YjBcEnH4IUcmP1-26" style="rounded=0;orthogonalLoop=1;jettySize=auto;html=1;exitX=0.034;exitY=0.198;exitDx=0;exitDy=0;entryX=1;entryY=1;entryDx=0;entryDy=0;exitPerimeter=0;" edge="1" parent="1" source="7IhyG_YjBcEnH4IUcmP1-25" target="7IhyG_YjBcEnH4IUcmP1-13">
          <mxGeometry relative="1" as="geometry" />
        </mxCell>
        <mxCell id="7IhyG_YjBcEnH4IUcmP1-27" value="" style="shape=image;verticalLabelPosition=bottom;labelBackgroundColor=default;verticalAlign=top;aspect=fixed;imageAspect=0;image=https://pngimg.com/d/rubber_duck_PNG33.png;flipV=0;flipH=1;" vertex="1" parent="1">
          <mxGeometry x="615" y="120" width="90" height="90" as="geometry" />
        </mxCell>
      </root>
    </mxGraphModel>
  </diagram>
</mxfile>
